<svg xmlns="http://www.w3.org/2000/svg" viewBox="0 0 341.59 33.23"><defs><style>.cls-1{fill:#63b2ce;}</style></defs><title>ingo</title><g id="Слой_2" data-name="Слой 2"><g id="Слой_1-2" data-name="Слой 1"><path class="cls-1" d="M1.35,11.54Q0,11.54,0,10V4.86Q0,3.33,1.35,3.33H3.48a5,5,0,0,1,2.36.43,2.09,2.09,0,0,1,1,2,1.68,1.68,0,0,1-1,1.56A2,2,0,0,1,7.1,9.1a2.07,2.07,0,0,1-1.1,2,5.48,5.48,0,0,1-2.42.41Zm1-6.68V6.66h1a1.8,1.8,0,0,0,.84-.15.79.79,0,0,0,.35-.75q0-.91-1.28-.91Zm0,3.33V10h1q1.35,0,1.35-.9a.78.78,0,0,0-.43-.78,2.34,2.34,0,0,0-.92-.13Z"/><path class="cls-1" d="M10.73,6.56a20.5,20.5,0,0,1,2.54.09,2.2,2.2,0,0,1,2,1.32,3.3,3.3,0,0,1,.15,1,2.09,2.09,0,0,1-1,2,5.34,5.34,0,0,1-2.39.41H9.72q-1.35,0-1.35-1.54v-5q0-1.53,1.19-1.53t1.17,1.53Zm0,1.54V9.91h1Q13,9.91,13,9a.78.78,0,0,0-.43-.78,2.36,2.36,0,0,0-.93-.13ZM18.81,5V9.91a2.28,2.28,0,0,1-.2,1.1,1,1,0,0,1-1,.44,1,1,0,0,1-1-.44,2.27,2.27,0,0,1-.2-1.1V5q0-1.72,1.17-1.72T18.81,5Z"/><path class="cls-1" d="M22.79,7.69,25.64,5a2.93,2.93,0,0,1,.18-1.19,1.21,1.21,0,0,1,2,0A2.94,2.94,0,0,1,28,5.05V9.83A3,3,0,0,1,27.81,11a1.18,1.18,0,0,1-2,0,3,3,0,0,1-.18-1.19V7.5L22.8,9.83A3,3,0,0,1,22.62,11a1,1,0,0,1-1,.54q-1.21,0-1.21-1.74V5.05a2.76,2.76,0,0,1,.19-1.18,1,1,0,0,1,1-.54,1,1,0,0,1,1,.53A2.94,2.94,0,0,1,22.79,5Z"/><path class="cls-1" d="M29.31,9.83V5.05q0-1.72,1.19-1.72h2.45q1.5,0,1.5,1t-1.5,1H31.67V9.83q0,1.73-1.17,1.73T29.31,9.83Z"/><path class="cls-1" d="M37.45,11h-.06v2.05q0,1.7-1.13,1.7T35.06,13V5q0-1.72,1.2-1.72a1.27,1.27,0,0,1,1.13.75,2.48,2.48,0,0,1,2-.81A3.25,3.25,0,0,1,42,4.56,4.54,4.54,0,0,1,43,7.44a4.68,4.68,0,0,1-.57,2.29,3.71,3.71,0,0,1-1.66,1.63,3.11,3.11,0,0,1-1.41.34A2.75,2.75,0,0,1,37.45,11Zm-.06-3.42a2.21,2.21,0,0,0,.37,1.32A1.41,1.41,0,0,0,39,9.5a1.37,1.37,0,0,0,1.21-.65,2.49,2.49,0,0,0,.37-1.38,2.33,2.33,0,0,0-.38-1.35A1.36,1.36,0,0,0,39,5.47a1.58,1.58,0,0,0-1.11.43A2.3,2.3,0,0,0,37.39,7.59Z"/><path class="cls-1" d="M49.28,10.73a2.44,2.44,0,0,1-2,.9,3.22,3.22,0,0,1-2.64-1.32,4.5,4.5,0,0,1-1-2.86,4.46,4.46,0,0,1,1-2.89,3.3,3.3,0,0,1,2.69-1.32,2.38,2.38,0,0,1,1.91.85,1.25,1.25,0,0,1,1.13-.75q1.17,0,1.17,1.72V9.83q0,1.74-1.17,1.74A1.18,1.18,0,0,1,49.28,10.73ZM46.14,7.41a2.31,2.31,0,0,0,.36,1.32,1.34,1.34,0,0,0,1.17.62,1.31,1.31,0,0,0,1.15-.62,2.39,2.39,0,0,0,.35-1.32,2.32,2.32,0,0,0-.35-1.31,1.32,1.32,0,0,0-1.15-.6,1.34,1.34,0,0,0-1.15.6A2.22,2.22,0,0,0,46.14,7.41Z"/><path class="cls-1" d="M53.2,9.83V5.05a2.76,2.76,0,0,1,.19-1.18,1,1,0,0,1,1-.54,1,1,0,0,1,1,.53A2.94,2.94,0,0,1,55.56,5V7.69l2.85-3.63a1.56,1.56,0,0,1,1.17-.73,1,1,0,0,1,1,.53,2.94,2.94,0,0,1,.18,1.19V9.83A3,3,0,0,1,60.58,11a1.18,1.18,0,0,1-2,0,3,3,0,0,1-.18-1.19V7.4l-2.85,3.45a1.63,1.63,0,0,1-1.16.72Q53.2,11.56,53.2,9.83ZM57,2.64a2.56,2.56,0,0,1-1.64-.51,1.33,1.33,0,0,1-.6-1q0-.75.7-.75a.85.85,0,0,1,.7.44,1,1,0,0,0,.84.44.94.94,0,0,0,.85-.44A.79.79,0,0,1,58.5.34q.72,0,.72.75a1.33,1.33,0,0,1-.78,1.19A2.88,2.88,0,0,1,57,2.64Z"/><path class="cls-1" d="M73.44,11.45H68q0,1,0,1.19a.74.74,0,0,1-.76.7q-1.1,0-1.1-1.16V10.67q0-.75.35-.91l.63-.13q.35-.16.35-.9v-3a2.31,2.31,0,0,1,.7-1.89,3.18,3.18,0,0,1,2-.51h2.95a1,1,0,0,1,1,.5,2.45,2.45,0,0,1,.19,1.11V9.69a.9.9,0,0,1,1,1v1.48q0,1.16-1.1,1.16-.62,0-.75-.72A8.32,8.32,0,0,1,73.44,11.45Zm-4-1.76H72V5.22H70.2a.48.48,0,0,0-.55.54v3A2.24,2.24,0,0,1,69.42,9.69Z"/><path class="cls-1" d="M75.79,7.44a4.32,4.32,0,0,1,1.12-3,4.06,4.06,0,0,1,5.8,0,4.36,4.36,0,0,1,1.1,3,4.32,4.32,0,0,1-1.09,3,4.06,4.06,0,0,1-5.84,0A4.27,4.27,0,0,1,75.79,7.44Zm2.45,0a2.65,2.65,0,0,0,.37,1.41,1.38,1.38,0,0,0,2.41,0,2.65,2.65,0,0,0,.37-1.41A2.47,2.47,0,0,0,81,6a1.4,1.4,0,0,0-2.39,0A2.51,2.51,0,0,0,78.24,7.41Z"/><path class="cls-1" d="M93.16,4.27a4.7,4.7,0,0,1,1-.13,3,3,0,0,1,2.36,1.07,3.69,3.69,0,0,1,.87,2.48,4,4,0,0,1-4.07,4.08A4.7,4.7,0,0,1,92,11.58a4,4,0,0,1-1.36-.69A1.59,1.59,0,0,1,90,9.63a1.11,1.11,0,0,1,.29-.77A.94.94,0,0,1,91,8.54,2.51,2.51,0,0,1,92,9a2.58,2.58,0,0,0,1.3.45A1.41,1.41,0,0,0,94.43,9a1.63,1.63,0,0,0,.43-1.14,1.66,1.66,0,0,0-.35-1.09,1.23,1.23,0,0,0-1-.42,3.08,3.08,0,0,0-.91.19,3.06,3.06,0,0,1-.9.19q-.94,0-.94-1.06a7.74,7.74,0,0,1,.07-.84L91.2,2A1.52,1.52,0,0,1,91.65,1,2,2,0,0,1,92.78.73h3q1.55,0,1.56,1.13T95.85,3H93.33Z"/><path class="cls-1" d="M98.54,6.11a7.49,7.49,0,0,1,.88-3.86,4,4,0,0,1,6.65,0,7.43,7.43,0,0,1,.9,3.87,7.35,7.35,0,0,1-.9,3.86,3.95,3.95,0,0,1-6.63,0A7.38,7.38,0,0,1,98.54,6.11Zm4.21-3.43q-1,0-1.5,1.26a6.47,6.47,0,0,0-.31,2.15,6.52,6.52,0,0,0,.31,2.16q.44,1.28,1.5,1.28t1.5-1.28a6.53,6.53,0,0,0,.31-2.16Q104.55,2.67,102.75,2.67Z"/><path class="cls-1" d="M112.57,6.11a7.49,7.49,0,0,1,.88-3.86,4,4,0,0,1,6.65,0,7.42,7.42,0,0,1,.9,3.87,7.34,7.34,0,0,1-.9,3.86,4,4,0,0,1-6.63,0A7.39,7.39,0,0,1,112.57,6.11Zm4.21-3.43q-1,0-1.5,1.26A6.47,6.47,0,0,0,115,6.08a6.52,6.52,0,0,0,.31,2.16q.44,1.28,1.5,1.28t1.5-1.28a6.52,6.52,0,0,0,.31-2.16Q118.58,2.67,116.78,2.67Z"/><path class="cls-1" d="M121.61,6.11a7.49,7.49,0,0,1,.88-3.86,4,4,0,0,1,6.65,0,7.42,7.42,0,0,1,.9,3.87,7.34,7.34,0,0,1-.9,3.86,3.95,3.95,0,0,1-6.63,0A7.39,7.39,0,0,1,121.61,6.11Zm4.21-3.43q-1,0-1.5,1.26A6.47,6.47,0,0,0,124,6.08a6.52,6.52,0,0,0,.31,2.16q.44,1.28,1.5,1.28t1.5-1.28a6.52,6.52,0,0,0,.31-2.16Q127.62,2.67,125.82,2.67Z"/><path class="cls-1" d="M130.65,6.11a7.49,7.49,0,0,1,.88-3.86,4,4,0,0,1,6.65,0,7.43,7.43,0,0,1,.9,3.87,7.35,7.35,0,0,1-.9,3.86,4,4,0,0,1-6.63,0A7.39,7.39,0,0,1,130.65,6.11Zm4.21-3.43q-1,0-1.5,1.26a6.47,6.47,0,0,0-.31,2.15,6.52,6.52,0,0,0,.31,2.16q.44,1.28,1.5,1.28t1.5-1.28a6.53,6.53,0,0,0,.31-2.16Q136.66,2.67,134.86,2.67Z"/><path class="cls-1" d="M147.57,11h-.06v2.05q0,1.7-1.13,1.7T145.18,13V5q0-1.72,1.2-1.72a1.27,1.27,0,0,1,1.13.75,2.48,2.48,0,0,1,2-.81,3.25,3.25,0,0,1,2.67,1.29,4.54,4.54,0,0,1,.94,2.88,4.68,4.68,0,0,1-.57,2.29,3.71,3.71,0,0,1-1.66,1.63,3.11,3.11,0,0,1-1.41.34A2.75,2.75,0,0,1,147.57,11Zm-.06-3.42a2.21,2.21,0,0,0,.37,1.32,1.41,1.41,0,0,0,1.21.59,1.37,1.37,0,0,0,1.21-.65,2.49,2.49,0,0,0,.37-1.38,2.33,2.33,0,0,0-.38-1.35,1.36,1.36,0,0,0-1.19-.65,1.58,1.58,0,0,0-1.11.43A2.3,2.3,0,0,0,147.51,7.59Z"/><path class="cls-1" d="M154.6,3.33a1,1,0,0,1,.79.34,2.83,2.83,0,0,1,.41.81l1.35,3.58,1.45-3.79q.37-.94,1-.94,1.17,0,1.17,1.13a2.16,2.16,0,0,1-.19.82L157,13.87q-.41,1-1,1a1.19,1.19,0,0,1-.85-.31,1.09,1.09,0,0,1-.32-.83,2.07,2.07,0,0,1,.2-.8l1-2.13-2.39-5.59a1.65,1.65,0,0,1-.13-.66,1.15,1.15,0,0,1,.33-.84A1.11,1.11,0,0,1,154.6,3.33Z"/><path class="cls-1" d="M161.22,7.43V6.25q0-4.56,2.16-5.2a11,11,0,0,1,2.57-.19,2.24,2.24,0,0,0,.95-.11A.32.32,0,0,0,167,.48q0-.22.34-.37a1.41,1.41,0,0,1,.54-.12q.78,0,.78,1.22a1.09,1.09,0,0,1-.45.87,2,2,0,0,1-.92.4,4.11,4.11,0,0,1-.82.07H165a1.36,1.36,0,0,0-1.2.6,2,2,0,0,0-.28,1.1h0a3,3,0,0,1,1.88-.57A3.2,3.2,0,0,1,168,4.8a4.34,4.34,0,0,1,.82,2.79,4.27,4.27,0,0,1-1,3,3.67,3.67,0,0,1-2.86,1.1,3.44,3.44,0,0,1-2.85-1.22A4.63,4.63,0,0,1,161.22,7.43Zm2.26.13q0,2,1.51,2a1.44,1.44,0,0,0,1.08-.45,2.29,2.29,0,0,0,.43-1.59q0-1.92-1.51-1.92a1.3,1.3,0,0,0-1.16.6A2.33,2.33,0,0,0,163.48,7.56Z"/><path class="cls-1" d="M175,5.37h-1.77a.48.48,0,0,0-.55.54V9.67a1.88,1.88,0,0,1-.5,1.39,1.88,1.88,0,0,1-1.39.5,3.8,3.8,0,0,1-1.09-.1.81.81,0,0,1-.54-.84.81.81,0,0,1,.4-.81,2.21,2.21,0,0,1,1-.15V5.92a2.63,2.63,0,0,1,.65-2,3,3,0,0,1,2.07-.56h2.94a1,1,0,0,1,1,.5,2.46,2.46,0,0,1,.19,1.12V9.83q0,1.74-1.17,1.74a1,1,0,0,1-1-.54A2.88,2.88,0,0,1,175,9.83Z"/><path class="cls-1" d="M181,8.1a1.43,1.43,0,0,0,.57,1.06,2,2,0,0,0,1.22.37,3.64,3.64,0,0,0,1.45-.39,4,4,0,0,1,1.06-.39.82.82,0,0,1,.94.92,1.17,1.17,0,0,1-.26.7,2.89,2.89,0,0,1-1.5,1,5.58,5.58,0,0,1-1.81.29,3.92,3.92,0,0,1-2.94-1.21,4.12,4.12,0,0,1-1.17-3,4.34,4.34,0,0,1,1.12-3,3.69,3.69,0,0,1,2.87-1.25,3.73,3.73,0,0,1,1.57.32,4.1,4.1,0,0,1,1.66,1.39,3.44,3.44,0,0,1,.65,2,1,1,0,0,1-.43.9,1.56,1.56,0,0,1-1,.28Zm0-1.56h3.13a1.46,1.46,0,0,0-.48-1,1.61,1.61,0,0,0-2.11,0A1.78,1.78,0,0,0,180.93,6.55Z"/><path class="cls-1" d="M187.46,9.83V5.05a2.76,2.76,0,0,1,.19-1.18,1,1,0,0,1,1-.54,1,1,0,0,1,1,.53A2.93,2.93,0,0,1,189.82,5V7.69l2.85-3.63a1.56,1.56,0,0,1,1.17-.73,1,1,0,0,1,1,.53A2.94,2.94,0,0,1,195,5.05V9.83a3,3,0,0,1-.18,1.19,1.18,1.18,0,0,1-2,0,3,3,0,0,1-.18-1.19V7.4l-2.86,3.45a1.63,1.63,0,0,1-1.16.72Q187.46,11.56,187.46,9.83Zm3.79-7.19a2.56,2.56,0,0,1-1.64-.51,1.33,1.33,0,0,1-.6-1q0-.75.7-.75a.85.85,0,0,1,.7.44,1,1,0,0,0,.84.44.94.94,0,0,0,.85-.44.79.79,0,0,1,.66-.44q.72,0,.72.75a1.33,1.33,0,0,1-.78,1.19A2.89,2.89,0,0,1,191.25,2.64Z"/><path class="cls-1" d="M200.9,7.44a4.26,4.26,0,0,1,1.12-3,3.88,3.88,0,0,1,3-1.18,4.46,4.46,0,0,1,1.69.29,1.33,1.33,0,0,1,1,1.23,1,1,0,0,1-.28.72.93.93,0,0,1-.7.29,2,2,0,0,1-.73-.18,2.47,2.47,0,0,0-.95-.18,1.44,1.44,0,0,0-1.25.62,2.35,2.35,0,0,0-.4,1.39,2.23,2.23,0,0,0,.41,1.41,1.59,1.59,0,0,0,1.32.59,2.4,2.4,0,0,0,.92-.18,1.93,1.93,0,0,1,.7-.18.84.84,0,0,1,.67.3,1.08,1.08,0,0,1,.26.73q0,.72-1,1.22a4.05,4.05,0,0,1-1.79.35A3.67,3.67,0,0,1,202,10.42,4.29,4.29,0,0,1,200.9,7.44Z"/><path class="cls-1" d="M218.81,9.2h1.26a1,1,0,0,1,1.09,1.12,1,1,0,0,1-1.09,1.12H215a1,1,0,0,1-1.09-1.12A1,1,0,0,1,215,9.2h1.35V2.89a5.18,5.18,0,0,1-1.14-.07.77.77,0,0,1-.59-.84.82.82,0,0,1,.32-.63A4.39,4.39,0,0,1,217.79.6a2.23,2.23,0,0,1,.53,0q.37.1.46.79a9.73,9.73,0,0,1,0,1Z"/><path class="cls-1" d="M230.27,10.32q0,1.12-1.73,1.12h-4.33q-1.47,0-1.47-1.13a1.73,1.73,0,0,1,.53-1.06L225,7.32q1.06-1.17,1.69-2a2.87,2.87,0,0,0,.7-1.59,1.09,1.09,0,0,0-.24-.73.85.85,0,0,0-.68-.29,1,1,0,0,0-.78.38,4.1,4.1,0,0,0-.44.84,3.9,3.9,0,0,1-.41.8.87.87,0,0,1-.72.31,1.13,1.13,0,0,1-.87-.36,1.28,1.28,0,0,1-.33-.9,3,3,0,0,1,.19-1,3.39,3.39,0,0,1,1.33-1.73,3.64,3.64,0,0,1,2.11-.66,3.55,3.55,0,0,1,2.44.84,3,3,0,0,1,1,2.35,5.3,5.3,0,0,1-1.33,3.06,32.59,32.59,0,0,1-2.36,2.53h2.25Q230.27,9.2,230.27,10.32Z"/><path class="cls-1" d="M241.78,5.37h-2.58V9.83q0,1.73-1.17,1.73t-1.19-1.74V4.95A2.4,2.4,0,0,1,237,3.82a1,1,0,0,1,1-.48h4.92a1,1,0,0,1,1,.5,2.47,2.47,0,0,1,.19,1.12V9.83q0,1.74-1.17,1.74t-1.17-1.73Z"/><path class="cls-1" d="M245.31,7.44a4.32,4.32,0,0,1,1.12-3,4.06,4.06,0,0,1,5.8,0,4.36,4.36,0,0,1,1.1,3,4.32,4.32,0,0,1-1.09,3,4.06,4.06,0,0,1-5.84,0A4.27,4.27,0,0,1,245.31,7.44Zm2.45,0a2.65,2.65,0,0,0,.37,1.41,1.38,1.38,0,0,0,2.41,0,2.65,2.65,0,0,0,.37-1.41A2.47,2.47,0,0,0,250.52,6a1.4,1.4,0,0,0-2.39,0A2.51,2.51,0,0,0,247.76,7.41Z"/><path class="cls-1" d="M265.17,5.56A2.92,2.92,0,0,1,267,8.29a3.2,3.2,0,0,1-1.16,2.54,4,4,0,0,1-2.67.94,4.26,4.26,0,0,1-2.5-.78,2.6,2.6,0,0,1-1.23-2.2,1.18,1.18,0,0,1,.32-.79,1,1,0,0,1,.75-.37,1.13,1.13,0,0,1,.87.48L262,9a1.52,1.52,0,0,0,1.13.48,1.19,1.19,0,0,0,.93-.4,1.41,1.41,0,0,0,.36-1,1,1,0,0,0-.48-1,3.4,3.4,0,0,0-1.07-.31,1,1,0,0,1-1-1.09,1,1,0,0,1,.26-.75,1.63,1.63,0,0,1,.75-.32Q264,4.43,264,3.6t-.88-.92a1.72,1.72,0,0,0-1.09.35s-.23.23-.63.65a.92.92,0,0,1-1.41.05,1,1,0,0,1-.29-.73,1.78,1.78,0,0,1,.28-.91A3.08,3.08,0,0,1,261.38.87a4,4,0,0,1,1.81-.44,3.35,3.35,0,0,1,2.26.82,2.66,2.66,0,0,1,1,2.11A2.65,2.65,0,0,1,265.17,5.56Z"/><path class="cls-1" d="M273.61,9.2h1.26A1,1,0,0,1,276,10.32a1,1,0,0,1-1.09,1.12h-5.08a1,1,0,0,1-1.09-1.12,1,1,0,0,1,1.09-1.12h1.35V2.89A5.17,5.17,0,0,1,270,2.82a.77.77,0,0,1-.59-.84.82.82,0,0,1,.32-.63A4.39,4.39,0,0,1,272.6.6a2.23,2.23,0,0,1,.53,0q.37.1.45.79a9.73,9.73,0,0,1,0,1Z"/><path class="cls-1" d="M289,11.45h-5.4q0,1,0,1.19a.74.74,0,0,1-.76.7q-1.1,0-1.1-1.16V10.67q0-.75.35-.91l.63-.13q.35-.16.35-.9v-3a2.3,2.3,0,0,1,.7-1.89,3.18,3.18,0,0,1,2-.51h2.95a1,1,0,0,1,1,.5,2.46,2.46,0,0,1,.19,1.11V9.69a.9.9,0,0,1,1,1v1.48q0,1.16-1.1,1.16-.62,0-.75-.72A8.32,8.32,0,0,1,289,11.45Zm-4-1.76h2.55V5.22h-1.77a.48.48,0,0,0-.55.54v3A2.24,2.24,0,0,1,284.94,9.69Z"/><path class="cls-1" d="M293.74,8.1a1.43,1.43,0,0,0,.57,1.06,2,2,0,0,0,1.22.37A3.64,3.64,0,0,0,297,9.14,4,4,0,0,1,298,8.75a.82.82,0,0,1,.94.92,1.17,1.17,0,0,1-.26.7,2.89,2.89,0,0,1-1.5,1,5.58,5.58,0,0,1-1.81.29,3.92,3.92,0,0,1-2.94-1.21,4.12,4.12,0,0,1-1.17-3,4.34,4.34,0,0,1,1.12-3A3.69,3.69,0,0,1,295.3,3.2a3.73,3.73,0,0,1,1.57.32,4.1,4.1,0,0,1,1.66,1.39,3.44,3.44,0,0,1,.65,2,1,1,0,0,1-.43.9,1.56,1.56,0,0,1-1,.28Zm0-1.56h3.13a1.46,1.46,0,0,0-.48-1,1.61,1.61,0,0,0-2.11,0A1.78,1.78,0,0,0,293.71,6.55Z"/><path class="cls-1" d="M303,8.15l-.35.27V9.83q0,1.74-1.17,1.74t-1.19-1.74V5.07q0-1.73,1.19-1.73.89,0,1.1,1a10.87,10.87,0,0,1,.07,1.7l2-2.07a1.77,1.77,0,0,1,1.22-.64,1.06,1.06,0,0,1,.7.25.83.83,0,0,1,.29.66,1.58,1.58,0,0,1-.6,1.14l-1.6,1.48,2.22,2.6a1.78,1.78,0,0,1,.47,1.16.81.81,0,0,1-.35.68,1.26,1.26,0,0,1-.77.26,1.52,1.52,0,0,1-1.23-.71Z"/><path class="cls-1" d="M313.2,10.73a2.44,2.44,0,0,1-2,.9,3.22,3.22,0,0,1-2.64-1.32,4.5,4.5,0,0,1-1-2.86,4.46,4.46,0,0,1,1-2.89,3.3,3.3,0,0,1,2.69-1.32,2.38,2.38,0,0,1,1.91.85,1.25,1.25,0,0,1,1.13-.75q1.17,0,1.17,1.72V9.83q0,1.74-1.17,1.74A1.18,1.18,0,0,1,313.2,10.73Zm-3.14-3.32a2.31,2.31,0,0,0,.36,1.32,1.34,1.34,0,0,0,1.17.62,1.31,1.31,0,0,0,1.15-.62,2.39,2.39,0,0,0,.35-1.32,2.32,2.32,0,0,0-.35-1.31,1.32,1.32,0,0,0-1.15-.6,1.34,1.34,0,0,0-1.15.6A2.22,2.22,0,0,0,310.06,7.41Z"/><path class="cls-1" d="M316.84,7.43V6.25q0-4.56,2.16-5.2a11,11,0,0,1,2.57-.19,2.24,2.24,0,0,0,.95-.11.32.32,0,0,0,.15-.27q0-.22.34-.37a1.4,1.4,0,0,1,.54-.12q.78,0,.78,1.22a1.09,1.09,0,0,1-.45.87,2,2,0,0,1-.92.4,4.1,4.1,0,0,1-.82.07h-1.56a1.36,1.36,0,0,0-1.19.6,2,2,0,0,0-.28,1.1h0A3,3,0,0,1,321,3.68a3.19,3.19,0,0,1,2.63,1.12,4.34,4.34,0,0,1,.82,2.79,4.27,4.27,0,0,1-1,3,3.67,3.67,0,0,1-2.86,1.1,3.44,3.44,0,0,1-2.85-1.22A4.63,4.63,0,0,1,316.84,7.43Zm2.26.13q0,2,1.51,2a1.44,1.44,0,0,0,1.08-.45,2.28,2.28,0,0,0,.43-1.59q0-1.92-1.51-1.92a1.3,1.3,0,0,0-1.16.6A2.33,2.33,0,0,0,319.1,7.56Z"/><path class="cls-1" d="M328.06,11H328v2.05q0,1.7-1.13,1.7T325.66,13V5q0-1.72,1.2-1.72a1.27,1.27,0,0,1,1.13.75,2.48,2.48,0,0,1,2-.81,3.26,3.26,0,0,1,2.67,1.29,4.54,4.54,0,0,1,.94,2.88A4.67,4.67,0,0,1,333,9.73a3.71,3.71,0,0,1-1.66,1.63,3.11,3.11,0,0,1-1.41.34A2.75,2.75,0,0,1,328.06,11ZM328,7.59a2.21,2.21,0,0,0,.37,1.32,1.41,1.41,0,0,0,1.21.59,1.37,1.37,0,0,0,1.21-.65,2.49,2.49,0,0,0,.37-1.38,2.33,2.33,0,0,0-.38-1.35,1.36,1.36,0,0,0-1.19-.65,1.58,1.58,0,0,0-1.11.43A2.3,2.3,0,0,0,328,7.59Z"/><path class="cls-1" d="M339.23,8.2h-.53L336.55,11a1.71,1.71,0,0,1-.43.43,1.17,1.17,0,0,1-.6.13,1,1,0,0,1-.76-.3.85.85,0,0,1-.29-.55,1.39,1.39,0,0,1,.37-.93l1.5-1.72a2.1,2.1,0,0,1-1.82-2.29q0-2.44,3.37-2.44h2.33a1.35,1.35,0,0,1,1.1.37,2,2,0,0,1,.25,1.16V10q0,1.54-1.19,1.54a1,1,0,0,1-.91-.49,1.94,1.94,0,0,1-.26-1.06Zm0-1.53V4.86h-.95q-1.34,0-1.34.91t1.34.91Z"/><path class="cls-1" d="M89.62,24.81H87.3v4q0,1.55-1.05,1.55t-1.07-1.56V24.43a2.15,2.15,0,0,1,.18-1,.93.93,0,0,1,.88-.44h4.41a.91.91,0,0,1,.88.45,2.2,2.2,0,0,1,.17,1v4.38q0,1.56-1,1.56t-1-1.55Z"/><path class="cls-1" d="M92.8,26.66a3.88,3.88,0,0,1,1-2.72,3.64,3.64,0,0,1,5.21,0,4.24,4.24,0,0,1,0,5.42,3.64,3.64,0,0,1-5.24,0A3.83,3.83,0,0,1,92.8,26.66Zm2.2,0a2.38,2.38,0,0,0,.33,1.26,1.24,1.24,0,0,0,2.16,0,2.38,2.38,0,0,0,.33-1.26,2.22,2.22,0,0,0-.34-1.24,1.25,1.25,0,0,0-2.15,0A2.25,2.25,0,0,0,95,26.64Z"/><path class="cls-1" d="M106.78,30.26h-4.85q0,.92,0,1.07a.66.66,0,0,1-.68.63q-1,0-1-1V29.56q0-.67.32-.82l.57-.12q.32-.15.32-.8V25.13a2.07,2.07,0,0,1,.63-1.7,2.86,2.86,0,0,1,1.79-.46h2.65a.91.91,0,0,1,.88.45,2.21,2.21,0,0,1,.17,1v4.25a.81.81,0,0,1,.92.91v1.33q0,1-1,1-.55,0-.67-.65A7.44,7.44,0,0,1,106.78,30.26Zm-3.61-1.58h2.29v-4h-1.59a.43.43,0,0,0-.49.49v2.66A2,2,0,0,1,103.17,28.68Z"/><path class="cls-1" d="M111.41,29.86h-.05V31.7q0,1.53-1,1.53t-1.08-1.55V24.52q0-1.54,1.08-1.54a1.14,1.14,0,0,1,1,.67,2.23,2.23,0,0,1,1.75-.72,2.92,2.92,0,0,1,2.4,1.16,4.07,4.07,0,0,1,.84,2.58,4.2,4.2,0,0,1-.51,2.05,3.32,3.32,0,0,1-1.49,1.46,2.79,2.79,0,0,1-1.26.3A2.46,2.46,0,0,1,111.41,29.86Zm-.05-3.07a2,2,0,0,0,.33,1.19,1.26,1.26,0,0,0,1.08.53,1.23,1.23,0,0,0,1.08-.58,2.24,2.24,0,0,0,.33-1.24,2.09,2.09,0,0,0-.34-1.21,1.22,1.22,0,0,0-1.07-.58,1.42,1.42,0,0,0-1,.39A2.06,2.06,0,0,0,111.36,26.79Z"/><path class="cls-1" d="M117,26.66a3.87,3.87,0,0,1,1-2.72,3.64,3.64,0,0,1,5.21,0,4.24,4.24,0,0,1,0,5.42,3.64,3.64,0,0,1-5.24,0A3.83,3.83,0,0,1,117,26.66Zm2.2,0a2.38,2.38,0,0,0,.33,1.26,1.24,1.24,0,0,0,2.16,0,2.38,2.38,0,0,0,.33-1.26,2.22,2.22,0,0,0-.34-1.24,1.25,1.25,0,0,0-2.15,0A2.24,2.24,0,0,0,119.22,26.64Z"/><path class="cls-1" d="M125,26.65V25.6q0-4.1,1.94-4.66a9.88,9.88,0,0,1,2.3-.17,2,2,0,0,0,.85-.1.29.29,0,0,0,.14-.24q0-.2.3-.33a1.25,1.25,0,0,1,.49-.11q.7,0,.7,1.09a1,1,0,0,1-.41.78,1.81,1.81,0,0,1-.82.36,3.71,3.71,0,0,1-.73.07h-1.4a1.22,1.22,0,0,0-1.07.54,1.77,1.77,0,0,0-.25,1h0a2.66,2.66,0,0,1,1.69-.51,2.87,2.87,0,0,1,2.36,1,3.9,3.9,0,0,1,.74,2.5,3.83,3.83,0,0,1-.9,2.67,3.29,3.29,0,0,1-2.57,1,3.09,3.09,0,0,1-2.55-1.09A4.15,4.15,0,0,1,125,26.65Zm2,.12q0,1.83,1.36,1.83a1.29,1.29,0,0,0,1-.4,2,2,0,0,0,.39-1.43q0-1.72-1.36-1.72a1.17,1.17,0,0,0-1,.54A2.09,2.09,0,0,0,127.07,26.77Z"/><path class="cls-1" d="M135.07,27.33V28.8q0,1.56-1,1.56T133,28.81V24.52Q133,23,134,23t1,1.54v1.32h2.34V24.52q0-1.54,1-1.54t1,1.54v4.29q0,1.56-1,1.56t-1-1.56V27.33Z"/><path class="cls-1" d="M140.54,26.66a3.87,3.87,0,0,1,1-2.72,3.64,3.64,0,0,1,5.21,0,4.24,4.24,0,0,1,0,5.42,3.64,3.64,0,0,1-5.24,0A3.83,3.83,0,0,1,140.54,26.66Zm2.2,0a2.38,2.38,0,0,0,.33,1.26,1.24,1.24,0,0,0,2.16,0,2.38,2.38,0,0,0,.33-1.26,2.22,2.22,0,0,0-.34-1.24,1.25,1.25,0,0,0-2.15,0A2.24,2.24,0,0,0,142.74,26.64Z"/><path class="cls-1" d="M148.42,26.66a3.82,3.82,0,0,1,1-2.73,3.49,3.49,0,0,1,2.66-1.06,4,4,0,0,1,1.51.26,1.19,1.19,0,0,1,.87,1.11.9.9,0,0,1-.25.64.84.84,0,0,1-.63.26,1.83,1.83,0,0,1-.65-.16,2.22,2.22,0,0,0-.85-.16,1.29,1.29,0,0,0-1.12.55,2.1,2.1,0,0,0-.36,1.25,2,2,0,0,0,.37,1.26,1.43,1.43,0,0,0,1.18.53,2.15,2.15,0,0,0,.83-.16,1.73,1.73,0,0,1,.63-.16.75.75,0,0,1,.6.27,1,1,0,0,1,.23.65q0,.64-.9,1.09a3.63,3.63,0,0,1-1.61.32,3.29,3.29,0,0,1-2.58-1.09A3.84,3.84,0,0,1,148.42,26.66Z"/><path class="cls-1" d="M156.88,24.81H156q-1.33,0-1.33-.91T156,23h3.92q1.34,0,1.34.92t-1.35.91H159v4q0,1.55-1,1.55t-1-1.55Z"/><path class="cls-1" d="M164,26.89l2.55-2.37a2.64,2.64,0,0,1,.16-1.07,1.08,1.08,0,0,1,1.79,0,2.64,2.64,0,0,1,.16,1.07v4.29a2.67,2.67,0,0,1-.16,1.07,1.05,1.05,0,0,1-1.78,0,2.66,2.66,0,0,1-.16-1.07V26.71L164,28.8a2.7,2.7,0,0,1-.16,1.07.89.89,0,0,1-.88.49q-1.08,0-1.08-1.56V24.52a2.47,2.47,0,0,1,.17-1.06.93.93,0,0,1,.91-.49.9.9,0,0,1,.88.47,2.64,2.64,0,0,1,.16,1.07Z"/><path class="cls-1" d="M176.4,27.33V28.8q0,1.56-1,1.56t-1.08-1.56V24.52q0-1.54,1.08-1.54t1,1.54v1.32h2.34V24.52q0-1.54,1-1.54t1,1.54v4.29q0,1.56-1,1.56t-1-1.56V27.33Z"/><path class="cls-1" d="M186.87,29.61a2.19,2.19,0,0,1-1.79.8,2.89,2.89,0,0,1-2.37-1.18,4,4,0,0,1-.86-2.57,4,4,0,0,1,.9-2.59,3,3,0,0,1,2.41-1.18,2.13,2.13,0,0,1,1.71.76,1.12,1.12,0,0,1,1-.67q1.05,0,1.05,1.54v4.29q0,1.56-1.05,1.56A1.06,1.06,0,0,1,186.87,29.61Zm-2.82-3a2.08,2.08,0,0,0,.33,1.19,1.21,1.21,0,0,0,1,.55,1.17,1.17,0,0,0,1-.55,2.14,2.14,0,0,0,.31-1.19,2.07,2.07,0,0,0-.31-1.17,1.18,1.18,0,0,0-1-.54,1.2,1.2,0,0,0-1,.54A2,2,0,0,0,184.05,26.64Z"/><path class="cls-1" d="M194.86,28.81V24.52q0-1.54,1.08-1.54a1.14,1.14,0,0,1,1,.67,2,2,0,0,1,1.44-.7,1.09,1.09,0,0,1,.78.3,1,1,0,0,1,.32.76.9.9,0,0,1-.54.8l-1.06.41a1.28,1.28,0,0,0-.76.57,2.29,2.29,0,0,0-.1.82v2.21q0,1.55-1.07,1.55T194.86,28.81Z"/><path class="cls-1" d="M201.8,27.25a1.28,1.28,0,0,0,.51.95,1.79,1.79,0,0,0,1.09.33,3.26,3.26,0,0,0,1.3-.35,3.59,3.59,0,0,1,.95-.35.74.74,0,0,1,.84.83,1.05,1.05,0,0,1-.24.63,2.6,2.6,0,0,1-1.34.88,5,5,0,0,1-1.62.26,3.51,3.51,0,0,1-2.63-1.09,3.7,3.7,0,0,1-1.05-2.68,3.89,3.89,0,0,1,1-2.7,3.31,3.31,0,0,1,2.57-1.12,3.35,3.35,0,0,1,1.41.29,3.68,3.68,0,0,1,1.49,1.25,3.09,3.09,0,0,1,.58,1.8.93.93,0,0,1-.38.8,1.4,1.4,0,0,1-.87.25Zm0-1.4h2.8a1.31,1.31,0,0,0-.43-.91,1.44,1.44,0,0,0-1.89,0A1.59,1.59,0,0,0,201.77,25.86Z"/><path class="cls-1" d="M208.07,25q-1.28,0-1.28-.92t1.28-.95a12.41,12.41,0,0,1,.05-1.56q.2-.94,1-.94t1,.94a12.41,12.41,0,0,1,.05,1.56q1.54,0,1.54.95t-1.54.92v3.77q0,1.56-1.05,1.56t-1.07-1.56Z"/><path class="cls-1" d="M212.14,28.81V24.52q0-1.54,1.08-1.54a1.14,1.14,0,0,1,1,.67,2,2,0,0,1,1.44-.7,1.09,1.09,0,0,1,.78.3,1,1,0,0,1,.32.76.9.9,0,0,1-.54.8l-1.06.41a1.28,1.28,0,0,0-.76.57,2.28,2.28,0,0,0-.1.82v2.21q0,1.55-1.07,1.55T212.14,28.81Z"/><path class="cls-1" d="M216.89,26.66a3.87,3.87,0,0,1,1-2.72,3.64,3.64,0,0,1,5.21,0,4.24,4.24,0,0,1,0,5.42,3.64,3.64,0,0,1-5.24,0A3.83,3.83,0,0,1,216.89,26.66Zm2.2,0a2.12,2.12,0,0,0,.34,1.22,1.21,1.21,0,0,0,1.07.58,1.22,1.22,0,0,0,1.08-.58,2.14,2.14,0,0,0,.33-1.22,2.09,2.09,0,0,0-.34-1.21,1.21,1.21,0,0,0-1.07-.58,1.23,1.23,0,0,0-1.08.57A2.18,2.18,0,0,0,219.09,26.65Z"/><path class="cls-1" d="M227.76,23.16q1.66,0,1.66.95a.79.79,0,0,1-.61.82,4,4,0,0,1-1.11.11v3.77q0,1.56-1.05,1.56t-1.07-1.56V25q-1.28,0-1.28-.92t1.28-.95v-.74a2.71,2.71,0,0,1,.53-1.78,2,2,0,0,1,1.69-.7q1.4,0,1.4,1.07,0,.87-1,.87c-.21,0-.34.06-.39.17A4.09,4.09,0,0,0,227.76,23.16Z"/><path class="cls-1" d="M229.9,28.81V24.52q0-1.54,1-1.54a1.17,1.17,0,0,1,1.05.67,2.14,2.14,0,0,1,1.7-.67,2.48,2.48,0,0,1,2.12,1A2.79,2.79,0,0,1,238,23q2.41,0,2.41,2.77v3.06q0,1.56-1.06,1.56t-1-1.55V26.4q0-1.59-1-1.59t-1.09,1.57v2.44q0,1.55-1,1.55t-1-1.55V26.4q0-1.59-1-1.59T232,26.37v2.44q0,1.55-1,1.55T229.9,28.81Z"/><path class="cls-1" d="M241.38,29.13a1.21,1.21,0,0,1,.36-.88,1.23,1.23,0,0,1,1.74,0,1.22,1.22,0,0,1,.35.89,1.22,1.22,0,1,1-2.45,0Z"/><path class="cls-1" d="M244.88,28.81V24.52Q244.88,23,246,23a1.14,1.14,0,0,1,1,.67,2,2,0,0,1,1.44-.7,1.09,1.09,0,0,1,.78.3,1,1,0,0,1,.32.76.9.9,0,0,1-.54.8l-1.06.41a1.28,1.28,0,0,0-.76.57,2.28,2.28,0,0,0-.1.82v2.21q0,1.55-1.07,1.55T244.88,28.81Z"/><path class="cls-1" d="M250,27.35V24.52Q250,23,251,23t1.07,1.54V26.9a2.38,2.38,0,0,0,.18,1.06,1.09,1.09,0,0,0,1.82,0,2.39,2.39,0,0,0,.18-1.06V24.51q0-1.54,1.07-1.54t1.05,1.54v2.83a3.06,3.06,0,0,1-.84,2.32,4,4,0,0,1-4.76,0A3,3,0,0,1,250,27.35Z"/></g></g></svg>