<svg xmlns="http://www.w3.org/2000/svg" viewBox="0 0 27.66 27.66"><defs><style>.cls-1{fill:#528cca;opacity:0.54;}.cls-2{fill:#2f3d72;}</style></defs><title>12+</title><g id="Слой_2" data-name="Слой 2"><g id="Слой_1-2" data-name="Слой 1"><circle class="cls-1" cx="13.83" cy="13.83" r="13.83"/><path class="cls-2" d="M5.38,9.34h0l-1.83.88-.27-1,2.3-1.09H6.76v9.35H5.38Z"/><path class="cls-2" d="M10.59,17.51v-.78l1.12-1c2.68-2.27,3.91-3.48,3.91-4.89,0-.95-.5-1.83-2.07-1.83a3.82,3.82,0,0,0-2.23.79L10.86,9a5,5,0,0,1,3-.95C16.08,8,17,9.38,17,10.72c0,1.73-1.41,3.12-3.62,5l-.82.69v0h4.7v1Z"/><path class="cls-2" d="M22.26,10v2.58h2.48v.66H22.26v2.6h-.7V13.2H19.08v-.66h2.48V10Z"/></g></g></svg>