<svg xmlns="http://www.w3.org/2000/svg" viewBox="0 0 281.49 31.63"><defs><style>.cls-1{fill:#63b2ce;}.cls-2{fill:#fff;}</style></defs><title>dates</title><g id="Слой_2" data-name="Слой 2"><g id="Слой_1-2" data-name="Слой 1"><g id="Слой_2-2" data-name="Слой 2"><g id="Слой_1-2-2" data-name="Слой 1-2"><path class="cls-1" d="M1.62,16A9.07,9.07,0,0,1,4,9.53,8.28,8.28,0,0,1,10.32,7a9.5,9.5,0,0,1,3.6.63A2.83,2.83,0,0,1,16,10.27a2.14,2.14,0,0,1-.59,1.53,2,2,0,0,1-1.5.63A4.33,4.33,0,0,1,12.34,12a5.26,5.26,0,0,0-2-.39A3.08,3.08,0,0,0,7.66,13a5,5,0,0,0-.84,3,4.76,4.76,0,0,0,.88,3,3.4,3.4,0,0,0,2.81,1.25,5.12,5.12,0,0,0,2-.37A4.12,4.12,0,0,1,14,19.5a1.79,1.79,0,0,1,1.42.64A2.31,2.31,0,0,1,16,21.69q0,1.53-2.13,2.6A8.63,8.63,0,0,1,10,25a7.81,7.81,0,0,1-6.13-2.6A9.13,9.13,0,0,1,1.62,16Z"/><path class="cls-1" d="M35.94,21.1h2a1.58,1.58,0,0,1,1.75,1.81A1.58,1.58,0,0,1,38,24.72H29.77A1.58,1.58,0,0,1,28,22.91a1.58,1.58,0,0,1,1.75-1.81H32V10.91a8.34,8.34,0,0,1-1.85-.12,1.24,1.24,0,0,1-.95-1.36,1.33,1.33,0,0,1,.52-1Q31.1,7.17,34.3,7.17a3.59,3.59,0,0,1,.85.07q.59.17.76,1.28a15.72,15.72,0,0,1,0,1.66Z"/><path class="cls-1" d="M54.45,22.91q0,1.81-2.8,1.81h-7q-2.37,0-2.37-1.83a2.79,2.79,0,0,1,.85-1.71L46,18.06q1.71-1.89,2.73-3.24a4.63,4.63,0,0,0,1.14-2.56,1.75,1.75,0,0,0-.39-1.17,1.36,1.36,0,0,0-1.1-.42,1.59,1.59,0,0,0-1.26.61,6.63,6.63,0,0,0-.71,1.36,6.29,6.29,0,0,1-.67,1.3,1.41,1.41,0,0,1-1.16.5,1.82,1.82,0,0,1-1.41-.58,2.08,2.08,0,0,1-.53-1.46,4.8,4.8,0,0,1,.33-1.61A5.48,5.48,0,0,1,45,8a5.88,5.88,0,0,1,3.4-1.07,5.74,5.74,0,0,1,3.93,1.36A4.82,4.82,0,0,1,54,12.07,8.57,8.57,0,0,1,51.85,17a52.64,52.64,0,0,1-3.79,4.08h3.63Q54.45,21.1,54.45,22.91Z"/><path class="cls-1" d="M77.74,11.61h-5.5v9.51q0,3.69-2.5,3.69t-2.53-3.7V10.71a5.12,5.12,0,0,1,.44-2.41,2.21,2.21,0,0,1,2.1-1H80.21a2.15,2.15,0,0,1,2.1,1.06,5.26,5.26,0,0,1,.41,2.38v10.4q0,3.7-2.49,3.7t-2.49-3.69Z"/><path class="cls-1" d="M85.27,16a9.21,9.21,0,0,1,2.39-6.46A8.65,8.65,0,0,1,99.89,9.4l.14.14A9.29,9.29,0,0,1,102.39,16a9.21,9.21,0,0,1-2.31,6.41,8.65,8.65,0,0,1-12.23.22l-.22-.22A9.1,9.1,0,0,1,85.27,16Zm5.23-.06a5.66,5.66,0,0,0,.78,3,2.94,2.94,0,0,0,5.13,0,5.66,5.66,0,0,0,.78-3A5.27,5.27,0,0,0,96.38,13a3,3,0,0,0-5.1,0,5.34,5.34,0,0,0-.78,3Z"/><path class="cls-1" d="M122.82,15.2a4.71,4.71,0,0,1,2.89,4.41,5.18,5.18,0,0,1-1.87,4.1,6.42,6.42,0,0,1-4.31,1.52,6.88,6.88,0,0,1-4-1.26,4.2,4.2,0,0,1-2-3.55,1.9,1.9,0,0,1,.52-1.28,1.57,1.57,0,0,1,1.21-.59,1.82,1.82,0,0,1,1.4.76l1.11,1.45a2.46,2.46,0,0,0,1.83.76,1.92,1.92,0,0,0,1.52-.65,2.27,2.27,0,0,0,.58-1.58,1.66,1.66,0,0,0-.76-1.52,5.5,5.5,0,0,0-1.73-.5,1.68,1.68,0,0,1-1.64-1.73v0A1.59,1.59,0,0,1,118,14.3a2.64,2.64,0,0,1,1.2-.52Q121,13.36,121,12q0-1.52-1.42-1.52a2.78,2.78,0,0,0-1.75.57s-.37.36-1,1a1.52,1.52,0,0,1-2.13.21l-.14-.13a1.61,1.61,0,0,1-.52-1.11,2.88,2.88,0,0,1,.45-1.47,5,5,0,0,1,2.22-2,6.43,6.43,0,0,1,2.92-.71,5.41,5.41,0,0,1,3.65,1.33,4.37,4.37,0,0,1-.45,7Z"/><path class="cls-1" d="M136.45,21.1h2a1.58,1.58,0,0,1,1.75,1.81,1.58,1.58,0,0,1-1.75,1.81h-8.2a1.58,1.58,0,0,1-1.75-1.81,1.58,1.58,0,0,1,1.75-1.81h2.18V10.91a8.34,8.34,0,0,1-1.85-.12,1.24,1.24,0,0,1-.95-1.36,1.33,1.33,0,0,1,.52-1q1.42-1.21,4.62-1.21a3.6,3.6,0,0,1,.86.07q.59.17.76,1.28a15.72,15.72,0,0,1,0,1.66Z"/><path class="cls-1" d="M169.3,24.56H157.79q0,2.19-.06,2.53a1.57,1.57,0,0,1-1.63,1.5q-2.35,0-2.35-2.47V22.9q0-1.6.75-1.94l1.35-.28q.75-.34.75-1.91V12.39a4.91,4.91,0,0,1,1.5-4,6.78,6.78,0,0,1,4.25-1.09h6.29a2.15,2.15,0,0,1,2.1,1.06,5.24,5.24,0,0,1,.41,2.38v10.1A1.92,1.92,0,0,1,173.33,23v3.16q0,2.47-2.35,2.47-1.31,0-1.59-1.53A17.73,17.73,0,0,1,169.3,24.56Zm-8.57-3.75h5.44V11.3h-3.78a1,1,0,0,0-1.16,1.16v6.32A4.77,4.77,0,0,1,160.73,20.81Z"/><path class="cls-1" d="M179.5,17.43a3.06,3.06,0,0,0,1.22,2.25,4.27,4.27,0,0,0,2.6.78,7.75,7.75,0,0,0,3.1-.83,8.54,8.54,0,0,1,2.25-.83,1.76,1.76,0,0,1,2,2,2.49,2.49,0,0,1-.56,1.5,6.16,6.16,0,0,1-3.19,2.1,11.89,11.89,0,0,1-3.85.63,8.36,8.36,0,0,1-6.26-2.58,8.79,8.79,0,0,1-2.5-6.37,9.25,9.25,0,0,1,2.39-6.41A7.86,7.86,0,0,1,182.81,7a8,8,0,0,1,3.35.69,8.73,8.73,0,0,1,3.53,3A7.33,7.33,0,0,1,191.07,15a2.21,2.21,0,0,1-.91,1.91,3.32,3.32,0,0,1-2.06.6Zm-.06-3.32h6.66a3.12,3.12,0,0,0-1-2.16,3.43,3.43,0,0,0-4.49,0,3.8,3.8,0,0,0-1.18,2.16Z"/><path class="cls-1" d="M199.14,17.52l-.75.57v3q0,3.71-2.5,3.71t-2.53-3.7V11q0-3.7,2.53-3.7,1.91,0,2.35,2.16a23.17,23.17,0,0,1,.16,3.63l4.32-4.42a3.78,3.78,0,0,1,2.6-1.37,2.25,2.25,0,0,1,1.5.53,1.76,1.76,0,0,1,.62,1.41,3.38,3.38,0,0,1-1.28,2.44l-3.41,3.16,4.72,5.54a3.8,3.8,0,0,1,1,2.47,1.72,1.72,0,0,1-.74,1.45,2.68,2.68,0,0,1-1.64.55,3.24,3.24,0,0,1-2.63-1.51Z"/><path class="cls-1" d="M221,23a5.21,5.21,0,0,1-4.25,1.91,6.87,6.87,0,0,1-5.63-2.82,9.59,9.59,0,0,1-2-6.1,9.5,9.5,0,0,1,2.13-6.16A7,7,0,0,1,216.91,7,5.06,5.06,0,0,1,221,8.86a2.67,2.67,0,0,1,2.41-1.59q2.5,0,2.5,3.67V21.11q0,3.7-2.5,3.7A2.52,2.52,0,0,1,221,23Zm-6.73-7a4.93,4.93,0,0,0,.78,2.82,2.86,2.86,0,0,0,2.49,1.31A2.79,2.79,0,0,0,220,18.78a5.09,5.09,0,0,0,.75-2.82,4.93,4.93,0,0,0-.75-2.78,2.81,2.81,0,0,0-2.46-1.28,2.86,2.86,0,0,0-2.46,1.28A4.74,4.74,0,0,0,214.28,16Z"/><path class="cls-1" d="M228.73,16V13.5q0-9.73,4.6-11.07A23.46,23.46,0,0,1,238.8,2a4.78,4.78,0,0,0,2-.23.69.69,0,0,0,.33-.58q0-.47.72-.78A3,3,0,0,1,243,.16q1.66,0,1.66,2.6a2.32,2.32,0,0,1-1,1.85,4.29,4.29,0,0,1-2,.84,8.73,8.73,0,0,1-1.74.16H236.6A2.9,2.9,0,0,0,234,6.89a4.2,4.2,0,0,0-.6,2.35h.09a6.32,6.32,0,0,1,4-1.22,6.81,6.81,0,0,1,5.6,2.38A9.26,9.26,0,0,1,245,16.34a9.09,9.09,0,0,1-2.13,6.35,7.81,7.81,0,0,1-6.1,2.35,7.34,7.34,0,0,1-6.07-2.6A9.87,9.87,0,0,1,228.73,16Zm4.82.28q0,4.35,3.22,4.35a3.07,3.07,0,0,0,2.3-1,4.87,4.87,0,0,0,.92-3.39q0-4.1-3.22-4.1a2.78,2.78,0,0,0-2.47,1.28,5,5,0,0,0-.75,2.85Z"/><path class="cls-1" d="M252.62,23.62h-.13V28q0,3.63-2.41,3.63-2.57,0-2.56-3.69v-17q0-3.66,2.56-3.66a2.71,2.71,0,0,1,2.41,1.59,5.3,5.3,0,0,1,4.16-1.72,6.94,6.94,0,0,1,5.69,2.75,9.67,9.67,0,0,1,2,6.13,10,10,0,0,1-1.22,4.88,7.9,7.9,0,0,1-3.53,3.47,6.63,6.63,0,0,1-3,.72A5.86,5.86,0,0,1,252.62,23.62Zm-.13-7.29a4.71,4.71,0,0,0,.79,2.81,3,3,0,0,0,2.58,1.25A2.91,2.91,0,0,0,258.44,19a5.31,5.31,0,0,0,.79-2.94,5,5,0,0,0-.82-2.88,2.89,2.89,0,0,0-2.54-1.38,3.36,3.36,0,0,0-2.37.92q-1,1-1,3.62Z"/><path class="cls-1" d="M276.43,17.65H275.3l-4.57,6a3.64,3.64,0,0,1-.91.91,2.49,2.49,0,0,1-1.28.28,2.12,2.12,0,0,1-1.61-.64,1.81,1.81,0,0,1-.61-1.18,3,3,0,0,1,.78-2l3.19-3.67q-3.88-.81-3.88-4.89,0-5.2,7.19-5.2h5a2.88,2.88,0,0,1,2.34.78,4.21,4.21,0,0,1,.53,2.47v11q0,3.29-2.53,3.29a2.15,2.15,0,0,1-1.94-1,4.13,4.13,0,0,1-.56-2.26Zm0-3.25V10.52h-2q-2.86,0-2.86,1.94t2.86,1.94Z"/><path class="cls-2" d="M0,15.86A9.07,9.07,0,0,1,2.39,9.37,8.28,8.28,0,0,1,8.71,6.85a9.5,9.5,0,0,1,3.6.63,2.83,2.83,0,0,1,2.06,2.63,2.14,2.14,0,0,1-.59,1.53,2,2,0,0,1-1.5.63,4.33,4.33,0,0,1-1.55-.39,5.26,5.26,0,0,0-2-.39A3.08,3.08,0,0,0,6,12.79a5,5,0,0,0-.84,3,4.76,4.76,0,0,0,.88,3A3.4,3.4,0,0,0,8.89,20a5.12,5.12,0,0,0,2-.37,4.12,4.12,0,0,1,1.5-.38,1.79,1.79,0,0,1,1.42.64,2.31,2.31,0,0,1,.55,1.55q0,1.53-2.13,2.6a8.63,8.63,0,0,1-3.82.75,7.81,7.81,0,0,1-6.13-2.6A9.13,9.13,0,0,1,0,15.86Z"/><path class="cls-2" d="M34.71,21h2a1.58,1.58,0,0,1,1.75,1.81,1.58,1.58,0,0,1-1.75,1.81H28.53a1.58,1.58,0,0,1-1.74-1.81A1.58,1.58,0,0,1,28.53,21h2.18V10.79a8.34,8.34,0,0,1-1.83-.13,1.24,1.24,0,0,1-.95-1.36,1.33,1.33,0,0,1,.52-1q1.42-1.21,4.62-1.21a3.59,3.59,0,0,1,.85.07q.59.17.76,1.28a15.72,15.72,0,0,1,0,1.66Z"/><path class="cls-2" d="M53.23,22.78q0,1.81-2.8,1.81h-7q-2.37,0-2.37-1.83a2.79,2.79,0,0,1,.85-1.71l2.82-3.13q1.71-1.89,2.73-3.24a4.63,4.63,0,0,0,1.14-2.56A1.75,1.75,0,0,0,48.23,11a1.36,1.36,0,0,0-1.1-.46,1.59,1.59,0,0,0-1.26.61,6.63,6.63,0,0,0-.71,1.36,6.29,6.29,0,0,1-.72,1.29,1.41,1.41,0,0,1-1.16.5,1.82,1.82,0,0,1-1.38-.58,2.08,2.08,0,0,1-.49-1.46,4.8,4.8,0,0,1,.27-1.57,5.48,5.48,0,0,1,2.14-2.8,5.88,5.88,0,0,1,3.4-1.06,5.74,5.74,0,0,1,3.93,1.36,4.82,4.82,0,0,1,1.61,3.79,8.57,8.57,0,0,1-2.15,4.94A52.64,52.64,0,0,1,46.84,21h3.59Q53.23,21,53.23,22.78Z"/><path class="cls-2" d="M76.12,11.45h-5.5V21q0,3.69-2.5,3.69T65.59,21V10.55A5.12,5.12,0,0,1,66,8.13a2.21,2.21,0,0,1,2.1-1H78.59a2.15,2.15,0,0,1,2.1,1.06,5.26,5.26,0,0,1,.41,2.38V21q0,3.7-2.49,3.7T76.12,21Z"/><path class="cls-2" d="M83.66,15.86A9.21,9.21,0,0,1,86,9.4a8.65,8.65,0,0,1,12.23-.14l.14.14a9.29,9.29,0,0,1,2.35,6.47,9.21,9.21,0,0,1-2.31,6.41,8.65,8.65,0,0,1-12.23.22L86,22.28A9.1,9.1,0,0,1,83.66,15.86Zm5.23-.06a5.66,5.66,0,0,0,.78,3,2.94,2.94,0,0,0,5.13,0,5.66,5.66,0,0,0,.78-3,5.27,5.27,0,0,0-.81-2.94,3,3,0,0,0-5.1,0A5.34,5.34,0,0,0,88.89,15.8Z"/><path class="cls-2" d="M121.62,15.09a4.71,4.71,0,0,1,2.89,4.41,5.18,5.18,0,0,1-1.87,4.1,6.42,6.42,0,0,1-4.31,1.52,6.88,6.88,0,0,1-4-1.26,4.2,4.2,0,0,1-2-3.55,1.9,1.9,0,0,1,.52-1.28,1.57,1.57,0,0,1,1.21-.59,1.82,1.82,0,0,1,1.4.76l1.11,1.45a2.46,2.46,0,0,0,1.83.76,1.92,1.92,0,0,0,1.52-.65,2.27,2.27,0,0,0,.58-1.58,1.66,1.66,0,0,0-.76-1.52,5.5,5.5,0,0,0-1.73-.5,1.68,1.68,0,0,1-1.68-1.68s0,0,0,0a1.59,1.59,0,0,1,.42-1.21,2.64,2.64,0,0,1,1.2-.52q1.83-.42,1.83-1.78,0-1.52-1.42-1.52a2.78,2.78,0,0,0-1.75.57s-.37.36-1,1a1.52,1.52,0,0,1-2.13.21l-.14-.13a1.61,1.61,0,0,1-.48-1.17,2.88,2.88,0,0,1,.45-1.44,5,5,0,0,1,2.23-2,6.43,6.43,0,0,1,2.92-.71,5.41,5.41,0,0,1,3.65,1.33,4.37,4.37,0,0,1-.46,7Z"/><path class="cls-2" d="M135.26,21h2A1.58,1.58,0,0,1,139,22.78a1.58,1.58,0,0,1-1.75,1.81h-8.24a1.58,1.58,0,0,1-1.75-1.81A1.58,1.58,0,0,1,129.06,21h2.18V10.79a8.34,8.34,0,0,1-1.85-.13,1.24,1.24,0,0,1-1-1.34,1.33,1.33,0,0,1,.52-1q1.42-1.21,4.62-1.21a3.6,3.6,0,0,1,.86.07q.59.17.76,1.28a15.72,15.72,0,0,1,.06,1.67Z"/><path class="cls-2" d="M167.68,24.4h-11.5q0,2.19-.06,2.53a1.57,1.57,0,0,1-1.63,1.5q-2.35,0-2.35-2.47V22.74q0-1.6.75-1.94l1.35-.28q.75-.34.75-1.91V12.23a4.91,4.91,0,0,1,1.5-4,6.78,6.78,0,0,1,4.25-1.09H167a2.15,2.15,0,0,1,2.1,1.06,5.24,5.24,0,0,1,.41,2.38v10.1a1.92,1.92,0,0,1,2.19,2.16V26q0,2.47-2.35,2.47-1.31,0-1.59-1.53A17.73,17.73,0,0,1,167.68,24.4Zm-8.57-3.75h5.44V11.14h-3.78a1,1,0,0,0-1.16,1.16v6.32a4.77,4.77,0,0,1-.5,2Z"/><path class="cls-2" d="M177.88,17.27a3.06,3.06,0,0,0,1.22,2.25,4.27,4.27,0,0,0,2.6.78,7.75,7.75,0,0,0,3.1-.83,8.54,8.54,0,0,1,2.25-.83,1.76,1.76,0,0,1,2,2,2.49,2.49,0,0,1-.56,1.5,6.16,6.16,0,0,1-3.19,2.1,11.89,11.89,0,0,1-3.85.63,8.36,8.36,0,0,1-6.26-2.58,8.79,8.79,0,0,1-2.5-6.37,9.25,9.25,0,0,1,2.39-6.41,7.86,7.86,0,0,1,6.11-2.66,8,8,0,0,1,3.35.69,8.73,8.73,0,0,1,3.53,3,7.33,7.33,0,0,1,1.38,4.29,2.21,2.21,0,0,1-.91,1.91,3.32,3.32,0,0,1-2.06.6ZM177.82,14h6.66a3.12,3.12,0,0,0-1-2.16,3.43,3.43,0,0,0-4.49,0A3.8,3.8,0,0,0,177.82,14Z"/><path class="cls-2" d="M197.52,17.36l-.75.57v3q0,3.71-2.5,3.71t-2.53-3.7V10.8q0-3.7,2.53-3.7,1.91,0,2.35,2.16a23.17,23.17,0,0,1,.16,3.63l4.32-4.42a3.78,3.78,0,0,1,2.6-1.37,2.25,2.25,0,0,1,1.5.53A1.76,1.76,0,0,1,205.81,9a3.38,3.38,0,0,1-1.28,2.44l-3.41,3.16,4.72,5.54a3.8,3.8,0,0,1,1,2.47,1.72,1.72,0,0,1-.74,1.45,2.68,2.68,0,0,1-1.64.55,3.24,3.24,0,0,1-2.63-1.51Z"/><path class="cls-2" d="M219.36,22.86a5.21,5.21,0,0,1-4.25,1.91A6.87,6.87,0,0,1,209.47,22a9.59,9.59,0,0,1-2-6.1,9.5,9.5,0,0,1,2.13-6.16,7,7,0,0,1,5.72-2.81,5.06,5.06,0,0,1,4.07,1.81,2.67,2.67,0,0,1,2.41-1.59q2.5,0,2.5,3.67V21q0,3.7-2.5,3.7A2.52,2.52,0,0,1,219.36,22.86Zm-6.69-7.07a4.93,4.93,0,0,0,.78,2.82,2.86,2.86,0,0,0,2.49,1.31,2.79,2.79,0,0,0,2.46-1.31,5.09,5.09,0,0,0,.75-2.82A4.93,4.93,0,0,0,218.4,13a2.81,2.81,0,0,0-2.46-1.28A2.86,2.86,0,0,0,213.47,13a4.74,4.74,0,0,0-.81,2.8Z"/><path class="cls-2" d="M227.11,15.83v-2.5q0-9.73,4.6-11.07a23.46,23.46,0,0,1,5.47-.41,4.78,4.78,0,0,0,2-.23.69.69,0,0,0,.33-.58q0-.47.72-.78A3,3,0,0,1,241.41,0q1.66,0,1.66,2.6a2.32,2.32,0,0,1-1,1.85,4.29,4.29,0,0,1-2,.84,8.73,8.73,0,0,1-1.74.16H235a2.9,2.9,0,0,0-2.55,1.28,4.2,4.2,0,0,0-.6,2.35H232a6.32,6.32,0,0,1,4-1.22,6.81,6.81,0,0,1,5.6,2.38,9.26,9.26,0,0,1,1.75,5.94,9.09,9.09,0,0,1-2.13,6.35,7.81,7.81,0,0,1-6.1,2.35,7.34,7.34,0,0,1-6.07-2.6A9.87,9.87,0,0,1,227.11,15.83Zm4.82.28q0,4.35,3.22,4.35a3.07,3.07,0,0,0,2.3-1,4.87,4.87,0,0,0,.92-3.39q0-4.1-3.22-4.1a2.78,2.78,0,0,0-2.47,1.28,5,5,0,0,0-.75,2.86Z"/><path class="cls-2" d="M251,23.46h-.13v4.38q0,3.63-2.41,3.63-2.57,0-2.56-3.69v-17q0-3.66,2.56-3.66a2.71,2.71,0,0,1,2.41,1.59A5.3,5.3,0,0,1,255,7a6.94,6.94,0,0,1,5.69,2.75,9.67,9.67,0,0,1,2,6.13,10,10,0,0,1-1.22,4.88A7.9,7.9,0,0,1,258,24.21a6.63,6.63,0,0,1-3,.72A5.86,5.86,0,0,1,251,23.46Zm-.13-7.29a4.71,4.71,0,0,0,.79,2.81,3,3,0,0,0,2.58,1.25,2.91,2.91,0,0,0,2.58-1.38,5.31,5.31,0,0,0,.79-2.94A5,5,0,0,0,256.8,13a2.89,2.89,0,0,0-2.54-1.38,3.36,3.36,0,0,0-2.37.92q-1,.94-1,3.6Z"/><path class="cls-2" d="M274.82,17.48h-1.13l-4.57,6a3.64,3.64,0,0,1-.91.91,2.49,2.49,0,0,1-1.28.28,2.12,2.12,0,0,1-1.61-.64,1.81,1.81,0,0,1-.61-1.18,3,3,0,0,1,.78-2l3.19-3.67q-3.88-.81-3.88-4.89,0-5.2,7.19-5.2h5a2.88,2.88,0,0,1,2.34.78,4.21,4.21,0,0,1,.53,2.47v11q0,3.29-2.53,3.29a2.15,2.15,0,0,1-1.94-1,4.13,4.13,0,0,1-.56-2.26Zm0-3.25V10.35h-2q-2.86,0-2.86,1.94t2.86,1.94Z"/></g></g></g></g></svg>