<svg xmlns="http://www.w3.org/2000/svg" viewBox="0 0 393.26 21.84"><defs><style>.cls-1{fill:#528cca;}.cls-2{fill:#fff;}</style></defs><title>wait</title><g id="Слой_2" data-name="Слой 2"><g id="Слой_1-2" data-name="Слой 1"><g id="Слой_2-2" data-name="Слой 2"><g id="Слой_1-2-2" data-name="Слой 1-2"><path class="cls-1" d="M10.57,18.87A8.23,8.23,0,0,1,4.1,16.16,9.65,9.65,0,0,1,1.79,9.47,9.7,9.7,0,0,1,4.18,2.78,8.2,8.2,0,0,1,10.62,0a9.16,9.16,0,0,1,2.71.39,4.38,4.38,0,0,1,2.29,1.4A1.73,1.73,0,0,1,16,2.85a1.8,1.8,0,0,1-.52,1.27,1.62,1.62,0,0,1-1.23.55,4.49,4.49,0,0,1-1.6-.37,5.45,5.45,0,0,0-2-.37A3.83,3.83,0,0,0,7.26,5.7a6.74,6.74,0,0,0-1,3.86A6,6,0,0,0,7.37,13.3a4,4,0,0,0,3.45,1.62A6.42,6.42,0,0,0,13,14.48,6,6,0,0,1,14.58,14a1.49,1.49,0,0,1,1.17.55,1.85,1.85,0,0,1,.48,1.24A1.89,1.89,0,0,1,15.84,17Q14.46,18.87,10.57,18.87Z"/><path class="cls-1" d="M22.43,11.15v4.58q0,2.9-2,2.9t-2-2.9V3.15q0-2.9,2-2.9t2,2.9V7.38H30V3.15q0-2.9,2-2.9t2,2.9V15.73q0,2.9-2,2.9t-2-2.9V11.15Z"/><path class="cls-1" d="M36.38,9.46A9.47,9.47,0,0,1,38.65,2.9,8,8,0,0,1,45,.25a8.06,8.06,0,0,1,6.35,2.63,9.5,9.5,0,0,1,2.26,6.58A9.47,9.47,0,0,1,51.32,16,8.14,8.14,0,0,1,45,18.63,8,8,0,0,1,38.65,16,9.38,9.38,0,0,1,36.38,9.46Zm4.33,0a6.25,6.25,0,0,0,1,3.66A3.67,3.67,0,0,0,45,14.86a3.75,3.75,0,0,0,3.27-1.67,6.36,6.36,0,0,0,1-3.68,6.75,6.75,0,0,0-1-3.76A3.75,3.75,0,0,0,45,4a3.69,3.69,0,0,0-3.3,1.74,6.76,6.76,0,0,0-1,3.77Z"/><path class="cls-1" d="M58.7,18.43a3.36,3.36,0,0,1-2.17-.53,2.66,2.66,0,0,1-.62-2.05V3.35a3.21,3.21,0,0,1,.62-2.24A3,3,0,0,1,58.75.47H62.1a8,8,0,0,1,4.13,1A3.81,3.81,0,0,1,68.3,4.94a4.06,4.06,0,0,1-2.12,4V9a4.26,4.26,0,0,1,2.26,1.44,4.34,4.34,0,0,1,.69,2.6,4.89,4.89,0,0,1-1.89,4.16,7.33,7.33,0,0,1-4.5,1.25ZM60,4V7.48h1.77a3.52,3.52,0,0,0,1.7-.29,1.55,1.55,0,0,0,.69-1.48Q64.16,4,61.77,4Zm0,6.72V15h2a4.24,4.24,0,0,0,2-.38,1.75,1.75,0,0,0,.84-1.67A2,2,0,0,0,64,11a4.34,4.34,0,0,0-2-.34Z"/><path class="cls-1" d="M77.87.22a3.07,3.07,0,0,1,3,2.36l4.53,12.9a4.21,4.21,0,0,1,.3,1.28,1.71,1.71,0,0,1-.59,1.35,2.1,2.1,0,0,1-1.43.52q-1.55,0-2.17-1.93l-.67-2.1H74.52l-.74,2.25q-.59,1.79-2,1.79a1.93,1.93,0,0,1-1.4-.53,1.86,1.86,0,0,1-.54-1.39,3.41,3.41,0,0,1,.2-1.18l4.7-12.66Q75.72.22,77.87.22Zm-.12,4.45-2,6.3h4.06l-2-6.3Z"/><path class="cls-1" d="M103.77,11.1l-.34-.27-5.31,6.4a3.16,3.16,0,0,1-2.19,1.4,1.82,1.82,0,0,1-1.32-.58,1.8,1.8,0,0,1-.6-1.31,3.43,3.43,0,0,1,1-2l5.39-6.3-4-4-1-1a2,2,0,0,1-.59-1.25A1.77,1.77,0,0,1,95.42.82,2,2,0,0,1,96.81.25q.81,0,2.2,1.45l4.72,4.84V3.14q0-2.9,1.89-2.9a1.61,1.61,0,0,1,1.6.93,4.91,4.91,0,0,1,.29,2V6.52l4.72-4.83A4.09,4.09,0,0,1,114.55.25,2,2,0,0,1,116,.82a1.78,1.78,0,0,1,.62,1.35A2,2,0,0,1,116,3.42s-.38.39-1,1l-4,4,5.39,6.3a3.43,3.43,0,0,1,1,2,1.79,1.79,0,0,1-.58,1.31,1.84,1.84,0,0,1-1.32.58,3.2,3.2,0,0,1-2.23-1.38L108,10.83l-.35.27v4.63q0,2.89-1.89,2.89t-1.89-2.89Z"/><path class="cls-1" d="M131.65,18.43H121.22V20a1.79,1.79,0,0,1-.49,1.33,1.83,1.83,0,0,1-1.35.49,1.75,1.75,0,0,1-1.32-.49,1.82,1.82,0,0,1-.48-1.33V16.76q0-1.75,1.6-1.75.47,0,.73-.76a9.25,9.25,0,0,0,.26-2.63V5a4.6,4.6,0,0,1,1.18-3.32A4.32,4.32,0,0,1,124.61.47h6.27a2,2,0,0,1,1.84.84,4,4,0,0,1,.42,2.07V15q2.14,0,2.14,1.75V20a1.61,1.61,0,0,1-1.82,1.82A1.7,1.7,0,0,1,131.65,20ZM123.26,15H129V4.08h-4.3q-.91,0-.91,1v6.54A10.11,10.11,0,0,1,123.26,15Z"/><path class="cls-1" d="M144.74.47q2.9,0,2.9,1.92t-2.9,1.89h-3.35v3.2h2.88q2.9,0,2.9,1.88t-2.9,1.88h-2.88v3.42h3.47q2.9,0,2.9,1.88t-2.9,1.88h-4.77a3.36,3.36,0,0,1-2.17-.53,2.66,2.66,0,0,1-.62-2.05V3.35a3.21,3.21,0,0,1,.62-2.24,3,3,0,0,1,2.21-.64Z"/><path class="cls-1" d="M152.57,4.28a17.46,17.46,0,0,1-2.76-.12q-1.65-.34-1.65-1.77,0-1.92,2.9-1.92h7.11q2.9,0,2.9,1.92,0,1.43-1.65,1.77a17.47,17.47,0,0,1-2.76.12V15.73q0,2.9-2,2.9t-2.07-2.9Z"/><path class="cls-1" d="M173.53,18.43a3.36,3.36,0,0,1-2.17-.53,2.66,2.66,0,0,1-.62-2.05V3.35a3.21,3.21,0,0,1,.62-2.24,3,3,0,0,1,2.21-.64h3.35a8,8,0,0,1,4.13,1,3.81,3.81,0,0,1,2.07,3.47,4.06,4.06,0,0,1-2.12,4V9a4.26,4.26,0,0,1,2.26,1.44A4.34,4.34,0,0,1,184,13a4.89,4.89,0,0,1-1.89,4.16,7.33,7.33,0,0,1-4.5,1.25ZM174.83,4V7.48h1.77a3.52,3.52,0,0,0,1.7-.29A1.55,1.55,0,0,0,179,5.71Q179,4,176.6,4Zm0,6.72V15h2a4.24,4.24,0,0,0,1.94-.34,1.75,1.75,0,0,0,.84-1.67,2,2,0,0,0-.81-1.87,4.34,4.34,0,0,0-2-.34Z"/><path class="cls-1" d="M192.7.22a3.07,3.07,0,0,1,3,2.36l4.53,12.9a4.21,4.21,0,0,1,.3,1.28,1.71,1.71,0,0,1-.59,1.35,2.1,2.1,0,0,1-1.43.52q-1.55,0-2.17-1.93l-.67-2.1h-6.35l-.74,2.25q-.59,1.79-2,1.79a1.93,1.93,0,0,1-1.4-.53,1.86,1.86,0,0,1-.54-1.39,3.41,3.41,0,0,1,.2-1.18l4.67-12.65Q190.55.22,192.7.22Zm-.12,4.45-2,6.3h4.06l-2-6.3Z"/><path class="cls-1" d="M209.75,18.87a8.23,8.23,0,0,1-6.47-2.71A9.65,9.65,0,0,1,201,9.47a9.7,9.7,0,0,1,2.39-6.69A8.2,8.2,0,0,1,209.8,0a9.16,9.16,0,0,1,2.71.39,4.38,4.38,0,0,1,2.29,1.4,1.73,1.73,0,0,1,.39,1.06,1.8,1.8,0,0,1-.52,1.27,1.62,1.62,0,0,1-1.23.55,4.49,4.49,0,0,1-1.6-.37,5.45,5.45,0,0,0-2-.37,3.83,3.83,0,0,0-3.4,1.77,6.74,6.74,0,0,0-1,3.86,6,6,0,0,0,1.11,3.74A4,4,0,0,0,210,14.92a6.42,6.42,0,0,0,2.19-.44,6,6,0,0,1,1.62-.44,1.49,1.49,0,0,1,1.17.55,1.85,1.85,0,0,1,.48,1.24A1.89,1.89,0,0,1,215,17Q213.63,18.87,209.75,18.87Z"/><path class="cls-1" d="M230,11.15v4.58q0,2.9-2,2.9t-2-2.9V3.15q0-2.9,2-2.9t2,2.9V7.38h7.53V3.15q0-2.9,2-2.9t2,2.9V15.73q0,2.9-2,2.9t-2-2.9V11.15Z"/><path class="cls-1" d="M251.18.22a3.07,3.07,0,0,1,3,2.36l4.53,12.9a4.21,4.21,0,0,1,.3,1.28,1.71,1.71,0,0,1-.59,1.35,2.1,2.1,0,0,1-1.43.52q-1.55,0-2.17-1.93l-.67-2.1H247.8l-.74,2.25q-.59,1.79-2,1.79a1.93,1.93,0,0,1-1.4-.53,1.86,1.86,0,0,1-.54-1.39,3.41,3.41,0,0,1,.2-1.18L248,2.88Q249,.22,251.18.22ZM251,4.68,249,11h4.06l-2-6.3Z"/><path class="cls-1" d="M271,18.63q-2,0-2-2.9V3.34a3.2,3.2,0,0,1,.62-2.24,3,3,0,0,1,2.21-.64h3.69A6.86,6.86,0,0,1,280.19,2,5.74,5.74,0,0,1,282,6.57a5.94,5.94,0,0,1-1.67,4.5,6.35,6.35,0,0,1-4.58,1.6H273v3.06Q273,18.63,271,18.63ZM273,9h1.77q2.81,0,2.8-2.39t-2.8-2.34H273Z"/><path class="cls-1" d="M291.68.47q2.9,0,2.9,1.92t-2.9,1.89h-3.35v3.2h2.88q2.9,0,2.9,1.88t-2.9,1.88h-2.88v3.42h3.47q2.9,0,2.9,1.88t-2.9,1.88H287a3.36,3.36,0,0,1-2.17-.53,2.66,2.66,0,0,1-.62-2.05V3.35a3.21,3.21,0,0,1,.62-2.24A3,3,0,0,1,287,.47Z"/><path class="cls-1" d="M299.51,4.28a17.46,17.46,0,0,1-2.76-.12q-1.65-.34-1.65-1.77,0-1.92,2.9-1.92h7.11q2.9,0,2.9,1.92,0,1.43-1.65,1.77a17.47,17.47,0,0,1-2.76.12V15.73q0,2.9-2,2.9t-2.07-2.9Z"/><path class="cls-1" d="M311.36,18.63q-2,0-2-2.9V3.34A3.2,3.2,0,0,1,310,1.1a3,3,0,0,1,2.21-.64h3.69A6.86,6.86,0,0,1,320.57,2a5.74,5.74,0,0,1,1.85,4.55,5.94,5.94,0,0,1-1.67,4.5,6.35,6.35,0,0,1-4.58,1.6h-2.76v3.06Q313.41,18.63,311.36,18.63Zm2-9.67h1.77Q318,9,318,6.57t-2.8-2.34h-1.8Z"/><path class="cls-1" d="M323.76,9.46A9.47,9.47,0,0,1,326,2.9a8.92,8.92,0,0,1,12.61-.06l.06.06A9.5,9.5,0,0,1,341,9.46,9.47,9.47,0,0,1,338.7,16a8.14,8.14,0,0,1-6.35,2.61A8,8,0,0,1,326,16,9.38,9.38,0,0,1,323.76,9.46Zm4.33,0a6.25,6.25,0,0,0,1,3.66,3.67,3.67,0,0,0,3.25,1.69,3.75,3.75,0,0,0,3.27-1.67,6.36,6.36,0,0,0,1-3.68,6.75,6.75,0,0,0-1-3.76A3.75,3.75,0,0,0,332.35,4,3.69,3.69,0,0,0,329,5.75a6.76,6.76,0,0,0-.92,3.76Z"/><path class="cls-1" d="M359.1.47q2.9,0,2.9,1.92t-2.9,1.89h-3.35v3.2h2.88q2.9,0,2.9,1.88t-2.9,1.88h-2.88v4.48q0,2.9-2,2.9t-2-2.9V3.34a3.2,3.2,0,0,1,.62-2.24,3,3,0,0,1,2.21-.64Z"/><path class="cls-1" d="M373.39,12.75h.1l2.37-10.09a3.15,3.15,0,0,1,1-1.74,2.82,2.82,0,0,1,1.88-.68,3.08,3.08,0,0,1,2.12.79,3.32,3.32,0,0,1,1.08,2l2,12.25a9.33,9.33,0,0,1,.15,1.37q0,2-1.84,2a1.68,1.68,0,0,1-1.57-.83,4.91,4.91,0,0,1-.54-1.78L378.6,6.2h-.06l-2.31,9.08a5.89,5.89,0,0,1-.84,2,2.64,2.64,0,0,1-3.73.16l-.16-.16a5.61,5.61,0,0,1-.84-2L368.32,6.2h0L366.76,16a4.92,4.92,0,0,1-.54,1.8,1.77,1.77,0,0,1-1.6.8q-1.85,0-1.85-2a12,12,0,0,1,.17-1.37l2-12.25A3.34,3.34,0,0,1,366,1a3,3,0,0,1,2.1-.79A2.79,2.79,0,0,1,370,.88a3.29,3.29,0,0,1,1,1.75Z"/><path class="cls-2" d="M8.79,18.87a8.23,8.23,0,0,1-6.47-2.71A9.65,9.65,0,0,1,0,9.47,9.7,9.7,0,0,1,2.4,2.78,8.2,8.2,0,0,1,8.84,0a9.16,9.16,0,0,1,2.71.39,4.38,4.38,0,0,1,2.29,1.4,1.73,1.73,0,0,1,.39,1.06,1.8,1.8,0,0,1-.52,1.27,1.62,1.62,0,0,1-1.23.55,4.49,4.49,0,0,1-1.6-.37,5.45,5.45,0,0,0-2-.37A3.83,3.83,0,0,0,5.48,5.7a6.74,6.74,0,0,0-1,3.86A6,6,0,0,0,5.59,13.3,4,4,0,0,0,9,14.94a6.42,6.42,0,0,0,2.19-.44,6,6,0,0,1,1.6-.5,1.49,1.49,0,0,1,1.21.6,1.85,1.85,0,0,1,.48,1.24A1.89,1.89,0,0,1,14,17Q12.68,18.87,8.79,18.87Z"/><path class="cls-2" d="M20.65,11.15v4.58q0,2.9-2,2.9t-2-2.9V3.15q0-2.9,2-2.9t2,2.9V7.38h7.53V3.15q0-2.9,2-2.9t2,2.9V15.73q0,2.9-2,2.9t-2-2.9V11.15Z"/><path class="cls-2" d="M34.6,9.46A9.47,9.47,0,0,1,36.87,2.9,8,8,0,0,1,43.19.25a8.06,8.06,0,0,1,6.35,2.63A9.5,9.5,0,0,1,51.8,9.46,9.47,9.47,0,0,1,49.54,16a8.14,8.14,0,0,1-6.35,2.61A8,8,0,0,1,36.87,16,9.38,9.38,0,0,1,34.6,9.46Zm4.33,0a6.25,6.25,0,0,0,1,3.66,3.67,3.67,0,0,0,3.25,1.69,3.75,3.75,0,0,0,3.27-1.67,6.36,6.36,0,0,0,1-3.68,6.75,6.75,0,0,0-1-3.76A3.75,3.75,0,0,0,43.19,4a3.69,3.69,0,0,0-3.3,1.74,6.76,6.76,0,0,0-1,3.77Z"/><path class="cls-2" d="M56.92,18.43a3.36,3.36,0,0,1-2.17-.53,2.66,2.66,0,0,1-.62-2.05V3.35a3.21,3.21,0,0,1,.62-2.24A3,3,0,0,1,57,.47h3.35a8,8,0,0,1,4.13,1,3.81,3.81,0,0,1,2.07,3.47,4.06,4.06,0,0,1-2.12,4V9a4.26,4.26,0,0,1,2.26,1.44,4.34,4.34,0,0,1,.69,2.6A4.89,4.89,0,0,1,65.5,17.2,7.33,7.33,0,0,1,61,18.45ZM58.22,4V7.48H60a3.52,3.52,0,0,0,1.7-.29,1.55,1.55,0,0,0,.69-1.48Q62.38,4,60,4Zm0,6.72V15h2a4.24,4.24,0,0,0,1.94-.34A1.75,1.75,0,0,0,63,12.89,2,2,0,0,0,62.24,11a4.34,4.34,0,0,0-2-.34Z"/><path class="cls-2" d="M76.09.22a3.07,3.07,0,0,1,3,2.36l4.53,12.9a4.21,4.21,0,0,1,.3,1.28,1.71,1.71,0,0,1-.59,1.35,2.1,2.1,0,0,1-1.43.52q-1.55,0-2.17-1.93l-.67-2.1H72.74L72,16.84q-.59,1.79-2,1.79a1.93,1.93,0,0,1-1.4-.53,1.86,1.86,0,0,1-.54-1.39,3.41,3.41,0,0,1,.2-1.18L73,2.88Q73.95.22,76.09.22ZM76,4.68,74,11h4Z"/><path class="cls-2" d="M102,11.1l-.34-.27-5.31,6.4a3.16,3.16,0,0,1-2.19,1.4,1.82,1.82,0,0,1-1.32-.58,1.8,1.8,0,0,1-.58-1.31,3.43,3.43,0,0,1,1-2l5.39-6.3-4-4-1-1A2,2,0,0,1,93,2.17,1.77,1.77,0,0,1,93.64.82,2,2,0,0,1,95,.25q.81,0,2.24,1.45L102,6.53V3.14q0-2.9,1.89-2.9a1.61,1.61,0,0,1,1.6.93,4.91,4.91,0,0,1,.29,2V6.52l4.72-4.83Q111.93.25,112.77.25a2,2,0,0,1,1.41.57,1.78,1.78,0,0,1,.62,1.35,2,2,0,0,1-.59,1.25s-.38.39-1,1l-4,4,5.39,6.3a3.43,3.43,0,0,1,1,2A1.79,1.79,0,0,1,115,18a1.84,1.84,0,0,1-1.32.58,3.2,3.2,0,0,1-2.23-1.38l-5.28-6.4-.35.27v4.63q0,2.89-1.89,2.89T102,15.73Z"/><path class="cls-2" d="M129.87,18.43H119.44V20a1.79,1.79,0,0,1-.49,1.33,1.83,1.83,0,0,1-1.35.49,1.75,1.75,0,0,1-1.32-.49A1.82,1.82,0,0,1,115.8,20V16.76q0-1.75,1.6-1.75.47,0,.73-.76a9.25,9.25,0,0,0,.26-2.63V5a4.6,4.6,0,0,1,1.18-3.32A4.32,4.32,0,0,1,122.84.47h6.27a2,2,0,0,1,1.84.84,4,4,0,0,1,.42,2.07V15q2.14,0,2.14,1.75V20a1.61,1.61,0,0,1-1.82,1.82A1.7,1.7,0,0,1,129.87,20ZM121.48,15h5.78V4.08h-4.33q-.91,0-.91,1v6.54A10.11,10.11,0,0,1,121.48,15Z"/><path class="cls-2" d="M143,.47q2.9,0,2.9,1.92T143,4.28h-3.35v3.2h2.88q2.9,0,2.9,1.88t-2.9,1.88h-2.88v3.42h3.47q2.9,0,2.9,1.88t-2.9,1.88h-4.82a3.36,3.36,0,0,1-2.17-.53,2.66,2.66,0,0,1-.62-2.05V3.35a3.21,3.21,0,0,1,.62-2.24,3,3,0,0,1,2.21-.64Z"/><path class="cls-2" d="M150.79,4.28A17.46,17.46,0,0,1,148,4.16q-1.65-.34-1.65-1.77,0-1.92,2.9-1.92h7.11q2.9,0,2.9,1.92,0,1.43-1.65,1.77a17.47,17.47,0,0,1-2.76.12V15.73q0,2.9-2,2.9t-2.07-2.9Z"/><path class="cls-2" d="M171.75,18.43a3.36,3.36,0,0,1-2.17-.53,2.66,2.66,0,0,1-.62-2.05V3.35a3.21,3.21,0,0,1,.62-2.24,3,3,0,0,1,2.21-.64h3.35a8,8,0,0,1,4.13,1,3.81,3.81,0,0,1,2.07,3.47,4.06,4.06,0,0,1-2.12,4V9a4.26,4.26,0,0,1,2.26,1.44,4.34,4.34,0,0,1,.69,2.6,4.89,4.89,0,0,1-1.89,4.16,7.33,7.33,0,0,1-4.5,1.25ZM173,4V7.48h1.77a3.52,3.52,0,0,0,1.7-.29,1.55,1.55,0,0,0,.69-1.48q0-1.71-2.34-1.71Zm0,6.72V15h2a4.24,4.24,0,0,0,1.94-.34,1.75,1.75,0,0,0,.84-1.67,2,2,0,0,0-.81-1.87,4.34,4.34,0,0,0-2-.34Z"/><path class="cls-2" d="M190.92.22a3.07,3.07,0,0,1,3,2.36l4.53,12.9a4.21,4.21,0,0,1,.3,1.28,1.71,1.71,0,0,1-.59,1.35,2.1,2.1,0,0,1-1.43.52q-1.55,0-2.17-1.93l-.67-2.1h-6.35l-.74,2.25q-.59,1.79-2,1.79a1.93,1.93,0,0,1-1.4-.53,1.86,1.86,0,0,1-.54-1.39,3.41,3.41,0,0,1,.2-1.18l4.67-12.65Q188.78.22,190.92.22Zm-.12,4.45-2,6.3h4.06l-2-6.3Z"/><path class="cls-2" d="M208,18.87a8.23,8.23,0,0,1-6.47-2.71,9.65,9.65,0,0,1-2.31-6.69,9.7,9.7,0,0,1,2.39-6.69A8.2,8.2,0,0,1,208,0a9.16,9.16,0,0,1,2.71.39A4.38,4.38,0,0,1,213,1.8a1.73,1.73,0,0,1,.39,1.06,1.8,1.8,0,0,1-.52,1.27,1.62,1.62,0,0,1-1.23.55,4.49,4.49,0,0,1-1.6-.37,5.45,5.45,0,0,0-2-.37,3.83,3.83,0,0,0-3.4,1.77,6.74,6.74,0,0,0-1,3.86,6,6,0,0,0,1.11,3.74,4,4,0,0,0,3.45,1.62,6.42,6.42,0,0,0,2.19-.44A6,6,0,0,1,212,14a1.49,1.49,0,0,1,1.17.55,1.85,1.85,0,0,1,.48,1.24,1.89,1.89,0,0,1-.39,1.13Q211.86,18.87,208,18.87Z"/><path class="cls-2" d="M228.19,11.15v4.58q0,2.9-2,2.9t-2-2.9V3.15q0-2.9,2-2.9t2,2.9V7.38h7.53V3.15q0-2.9,2-2.9t2,2.9V15.73q0,2.9-2,2.9t-2-2.9V11.15Z"/><path class="cls-2" d="M249.4.22a3.07,3.07,0,0,1,3,2.36l4.53,12.9a4.21,4.21,0,0,1,.3,1.28,1.71,1.71,0,0,1-.59,1.35,2.1,2.1,0,0,1-1.43.52q-1.55,0-2.17-1.93l-.67-2.1H246l-.74,2.25q-.59,1.79-2,1.79a1.93,1.93,0,0,1-1.4-.53,1.86,1.86,0,0,1-.54-1.39,3.41,3.41,0,0,1,.2-1.18L246.2,2.89Q247.26.22,249.4.22Zm-.12,4.45-2,6.3h4.06l-2-6.3Z"/><path class="cls-2" d="M269.21,18.63q-2,0-2-2.9V3.34a3.2,3.2,0,0,1,.62-2.24A3,3,0,0,1,270,.47h3.69A6.86,6.86,0,0,1,278.41,2a5.74,5.74,0,0,1,1.85,4.55,5.94,5.94,0,0,1-1.67,4.5,6.35,6.35,0,0,1-4.58,1.6h-2.76v3.06Q271.25,18.63,269.21,18.63Zm2-9.67H273q2.81,0,2.8-2.39T273,4.23h-1.77Z"/><path class="cls-2" d="M289.9.47q2.9,0,2.9,1.92t-2.9,1.89h-3.35v3.2h2.88q2.9,0,2.9,1.88t-2.9,1.88h-2.88v3.42H290q2.9,0,2.9,1.88T290,18.43h-4.77a3.36,3.36,0,0,1-2.17-.53,2.66,2.66,0,0,1-.62-2.05V3.35a3.21,3.21,0,0,1,.62-2.24,3,3,0,0,1,2.21-.64Z"/><path class="cls-2" d="M297.73,4.28A17.46,17.46,0,0,1,295,4.16q-1.65-.34-1.65-1.77,0-1.92,2.9-1.92h7.11q2.9,0,2.9,1.92,0,1.43-1.65,1.77a17.47,17.47,0,0,1-2.76.12V15.73q0,2.9-2,2.9t-2.07-2.9Z"/><path class="cls-2" d="M309.59,18.63q-2,0-2-2.9V3.34a3.2,3.2,0,0,1,.62-2.24,3,3,0,0,1,2.21-.64h3.69A6.86,6.86,0,0,1,318.79,2a5.74,5.74,0,0,1,1.85,4.55,5.94,5.94,0,0,1-1.67,4.5,6.35,6.35,0,0,1-4.58,1.6h-2.76v3.06Q311.63,18.63,309.59,18.63Zm2-9.67h1.77q2.81,0,2.8-2.39t-2.8-2.34h-1.77Z"/><path class="cls-2" d="M322,9.46a9.47,9.47,0,0,1,2.26-6.56,8.92,8.92,0,0,1,12.61-.06l.06.06a9.5,9.5,0,0,1,2.26,6.58A9.47,9.47,0,0,1,336.92,16a8.14,8.14,0,0,1-6.35,2.61A8,8,0,0,1,324.25,16,9.38,9.38,0,0,1,322,9.46Zm4.33,0a6.25,6.25,0,0,0,1,3.66,3.67,3.67,0,0,0,3.25,1.69,3.75,3.75,0,0,0,3.27-1.67,6.36,6.36,0,0,0,1-3.68,6.75,6.75,0,0,0-1-3.76A3.75,3.75,0,0,0,330.57,4a3.69,3.69,0,0,0-3.3,1.74,6.76,6.76,0,0,0-1,3.77Z"/><path class="cls-2" d="M357.32.47q2.9,0,2.9,1.92t-2.9,1.89H354v3.2h2.88q2.9,0,2.9,1.88t-2.9,1.88H354v4.48q0,2.9-2,2.9t-2-2.9V3.34a3.2,3.2,0,0,1,.62-2.24,3,3,0,0,1,2.21-.64Z"/><path class="cls-2" d="M371.61,12.75h.1l2.37-10.09a3.15,3.15,0,0,1,1-1.74A2.82,2.82,0,0,1,377,.25a3.08,3.08,0,0,1,2.12.79,3.32,3.32,0,0,1,1.08,2l2,12.25a9.33,9.33,0,0,1,.15,1.37q0,2-1.84,2a1.68,1.68,0,0,1-1.57-.83,4.91,4.91,0,0,1-.54-1.78L376.82,6.2h-.06l-2.31,9.08a5.89,5.89,0,0,1-.84,2,2.64,2.64,0,0,1-3.73.16l-.16-.16a5.61,5.61,0,0,1-.84-2L366.55,6.2h0L365,16a4.92,4.92,0,0,1-.54,1.8,1.77,1.77,0,0,1-1.6.8q-1.85,0-1.85-2a12,12,0,0,1,.17-1.37l2-12.25a3.34,3.34,0,0,1,1.07-2,3,3,0,0,1,2.1-.79,2.79,2.79,0,0,1,1.88.67,3.29,3.29,0,0,1,1,1.75Z"/></g></g><path class="cls-1" d="M391.63,12.4l1.24-9A11.28,11.28,0,0,0,393,1.94q0-1.8-2.1-1.8a1.8,1.8,0,0,0-2.06,2,11.51,11.51,0,0,0,.12,1.33l1.24,8.93Zm-2.43,5.65a2.38,2.38,0,1,0,3.36-3.36,2.38,2.38,0,1,0-3.36,3.36Z"/><path class="cls-2" d="M390.69,12.4l1.24-9A11.29,11.29,0,0,0,392,1.94q0-1.8-2.1-1.8a1.8,1.8,0,0,0-2.06,2A11.49,11.49,0,0,0,388,3.48l1.24,8.93Zm-2.43,5.65a2.38,2.38,0,1,0,3.36-3.36,2.38,2.38,0,1,0-3.36,3.36Z"/></g></g></svg>