<svg xmlns="http://www.w3.org/2000/svg" viewBox="0 0 432.95 32.85"><defs><style>.cls-1{fill:#e3077b;}.cls-2{fill:#fff;}</style></defs><title>win_1</title><g id="Слой_2" data-name="Слой 2"><g id="Слой_1-2" data-name="Слой 1"><path class="cls-1" d="M5.46,25.59q-3,0-3-3.4V10.85q0-3.37,3-3.37h4.7a11.13,11.13,0,0,1,5.22.94q2.27,1.23,2.27,4.44a3.71,3.71,0,0,1-2.17,3.43,4.34,4.34,0,0,1,2.69,3.92,4.56,4.56,0,0,1-2.43,4.47,12.1,12.1,0,0,1-5.35.91ZM7.7,10.85v4H9.8a4,4,0,0,0,1.85-.32,1.75,1.75,0,0,0,.78-1.65q0-2-2.82-2Zm0,7.35v4H9.8q3,0,3-2a1.73,1.73,0,0,0-.94-1.72,5.17,5.17,0,0,0-2-.29Z"/><path class="cls-1" d="M26.16,14.61a45.24,45.24,0,0,1,5.6.19q3.53.55,4.34,2.92a7.29,7.29,0,0,1,.32,2.3q0,3.24-2.3,4.47a11.78,11.78,0,0,1-5.28.91H23.93q-3,0-3-3.4V10.85q0-3.37,2.62-3.37t2.59,3.37Zm0,3.4v4h2.12q3,0,3-2a1.72,1.72,0,0,0-.94-1.72A5.21,5.21,0,0,0,28.28,18ZM44,11.27V22a5,5,0,0,1-.45,2.43,2.27,2.27,0,0,1-2.13,1,2.26,2.26,0,0,1-2.12-1A5,5,0,0,1,38.86,22V11.27q0-3.79,2.57-3.79T44,11.27Z"/><path class="cls-1" d="M52.79,17.1l6.28-5.83a6.47,6.47,0,0,1,.39-2.62,2.66,2.66,0,0,1,4.41,0,6.5,6.5,0,0,1,.39,2.63V21.83a6.55,6.55,0,0,1-.39,2.63,2.59,2.59,0,0,1-4.38,0,6.58,6.58,0,0,1-.39-2.63V16.68l-6.3,5.14a6.66,6.66,0,0,1-.39,2.63,2.2,2.2,0,0,1-2.18,1.2q-2.66,0-2.66-3.83V11.28A6.09,6.09,0,0,1,48,8.68a2.28,2.28,0,0,1,2.24-1.2A2.2,2.2,0,0,1,52.4,8.65a6.5,6.5,0,0,1,.39,2.62Z"/><path class="cls-1" d="M67.17,21.83V11.28q0-3.8,2.62-3.8h5.41q3.3,0,3.3,2.25T75.21,12H72.39v9.85q0,3.82-2.59,3.82T67.17,21.83Z"/><path class="cls-1" d="M85.15,24.43H85V29q0,3.76-2.49,3.76-2.66,0-2.66-3.82V11.27q0-3.79,2.66-3.79A2.81,2.81,0,0,1,85,9.13a5.48,5.48,0,0,1,4.31-1.78,7.18,7.18,0,0,1,5.9,2.85,10,10,0,0,1,2.07,6.35A10.33,10.33,0,0,1,96,21.61a8.19,8.19,0,0,1-3.66,3.6,6.86,6.86,0,0,1-3.11.74A6.07,6.07,0,0,1,85.15,24.43ZM85,16.88a4.87,4.87,0,0,0,.81,2.92,3.11,3.11,0,0,0,2.67,1.3,3,3,0,0,0,2.67-1.43,5.51,5.51,0,0,0,.81-3,5.15,5.15,0,0,0-.85-3,3,3,0,0,0-2.64-1.43,3.48,3.48,0,0,0-2.46,1Q85,14.12,85,16.88Z"/><path class="cls-1" d="M111.27,23.81a5.4,5.4,0,0,1-4.41,2A7.12,7.12,0,0,1,101,22.87a9.93,9.93,0,0,1-2.11-6.32,9.84,9.84,0,0,1,2.2-6.38,7.27,7.27,0,0,1,5.93-2.92,5.24,5.24,0,0,1,4.21,1.88,2.76,2.76,0,0,1,2.49-1.65q2.59,0,2.59,3.8V21.83q0,3.83-2.59,3.83A2.61,2.61,0,0,1,111.27,23.81Zm-6.93-7.32a5.1,5.1,0,0,0,.81,2.92,3,3,0,0,0,2.58,1.36,2.89,2.89,0,0,0,2.55-1.36,5.27,5.27,0,0,0,.77-2.92,5.11,5.11,0,0,0-.77-2.88,2.91,2.91,0,0,0-2.55-1.33,3,3,0,0,0-2.55,1.33A4.91,4.91,0,0,0,104.33,16.49Z"/><path class="cls-1" d="M119.92,21.83V11.28a6.09,6.09,0,0,1,.42-2.6,2.28,2.28,0,0,1,2.24-1.2,2.2,2.2,0,0,1,2.17,1.17,6.5,6.5,0,0,1,.39,2.62V17.1l6.28-8A3.44,3.44,0,0,1,134,7.48a2.23,2.23,0,0,1,2.2,1.17,6.5,6.5,0,0,1,.39,2.63V21.83a6.55,6.55,0,0,1-.39,2.63,2.59,2.59,0,0,1-4.38,0,6.58,6.58,0,0,1-.39-2.63V16.46l-6.3,7.61a3.59,3.59,0,0,1-2.57,1.59Q119.91,25.66,119.92,21.83ZM128.27,6a5.64,5.64,0,0,1-3.63-1.13,2.93,2.93,0,0,1-1.33-2.3q0-1.65,1.55-1.65a1.88,1.88,0,0,1,1.54,1,2.13,2.13,0,0,0,1.86,1,2.07,2.07,0,0,0,1.88-1,1.74,1.74,0,0,1,1.46-1q1.59,0,1.59,1.65a2.94,2.94,0,0,1-1.72,2.62A6.37,6.37,0,0,1,128.27,6Z"/><path class="cls-1" d="M164.59,25.4H152.67q0,2.27-.06,2.62a1.62,1.62,0,0,1-1.69,1.55q-2.43,0-2.43-2.56V23.68q0-1.65.78-2,.68-.16,1.39-.29.78-.36.78-2V12.8A5.09,5.09,0,0,1,153,8.62a7,7,0,0,1,4.41-1.13h6.51a2.23,2.23,0,0,1,2.17,1.1A5.41,5.41,0,0,1,166.5,11V21.51a2,2,0,0,1,2.27,2.24V27q0,2.56-2.43,2.56-1.36,0-1.65-1.59A18.36,18.36,0,0,1,164.59,25.4Zm-8.88-3.89h5.64V11.66h-3.91a1.06,1.06,0,0,0-1.21,1.2v6.54A4.94,4.94,0,0,1,155.71,21.51Z"/><path class="cls-1" d="M169.77,16.55a9.54,9.54,0,0,1,2.48-6.69,9,9,0,0,1,12.81,0,9.62,9.62,0,0,1,2.43,6.7,9.54,9.54,0,0,1-2.4,6.64,9,9,0,0,1-12.89,0A9.43,9.43,0,0,1,169.77,16.55Zm5.41-.06A5.86,5.86,0,0,0,176,19.6a3,3,0,0,0,5.31,0,5.86,5.86,0,0,0,.81-3.11,5.45,5.45,0,0,0-.84-3,3.08,3.08,0,0,0-5.28,0A5.53,5.53,0,0,0,175.18,16.49Z"/><path class="cls-1" d="M208.12,9.56a10.38,10.38,0,0,1,2.3-.29,6.53,6.53,0,0,1,5.22,2.37,8.14,8.14,0,0,1,1.91,5.48,8.72,8.72,0,0,1-9,9,10.38,10.38,0,0,1-2.95-.42,8.79,8.79,0,0,1-3-1.52A3.51,3.51,0,0,1,201,21.38a2.44,2.44,0,0,1,.63-1.7,2.07,2.07,0,0,1,1.6-.7,5.54,5.54,0,0,1,2.38,1,5.69,5.69,0,0,0,2.87,1,3.12,3.12,0,0,0,2.41-1.05,3.6,3.6,0,0,0,1-2.51,3.67,3.67,0,0,0-.76-2.41,2.71,2.71,0,0,0-2.22-.92,6.8,6.8,0,0,0-2,.42,6.75,6.75,0,0,1-2,.42q-2.07,0-2.07-2.33a17.08,17.08,0,0,1,.16-1.85l.78-6.16a3.35,3.35,0,0,1,1-2.33,4.32,4.32,0,0,1,2.49-.52h6.58q3.43,0,3.43,2.49T214.06,6.7h-5.57Z"/><path class="cls-1" d="M220,13.61a16.53,16.53,0,0,1,1.94-8.52,8.73,8.73,0,0,1,14.67,0,16.4,16.4,0,0,1,2,8.55,16.22,16.22,0,0,1-2,8.52,8.72,8.72,0,0,1-14.64,0A16.3,16.3,0,0,1,220,13.61ZM229.28,6Q227,6,226,8.82a14.27,14.27,0,0,0-.68,4.74,14.38,14.38,0,0,0,.68,4.77q1,2.82,3.3,2.82t3.31-2.82a14.42,14.42,0,0,0,.68-4.77Q233.27,6,229.28,6Z"/><path class="cls-1" d="M251,13.61a16.54,16.54,0,0,1,1.94-8.52,8.73,8.73,0,0,1,14.68,0,16.38,16.38,0,0,1,2,8.55,16.2,16.2,0,0,1-2,8.52,8.72,8.72,0,0,1-14.64,0A16.32,16.32,0,0,1,251,13.61ZM260.25,6q-2.3,0-3.3,2.79a14.27,14.27,0,0,0-.68,4.74,14.39,14.39,0,0,0,.68,4.77q1,2.82,3.3,2.82t3.3-2.82a14.38,14.38,0,0,0,.68-4.77Q264.24,6,260.25,6Z"/><path class="cls-1" d="M270.91,13.61a16.54,16.54,0,0,1,1.94-8.52,8.73,8.73,0,0,1,14.67,0,16.38,16.38,0,0,1,2,8.55,16.2,16.2,0,0,1-2,8.52,8.72,8.72,0,0,1-14.64,0A16.31,16.31,0,0,1,270.91,13.61ZM280.21,6q-2.3,0-3.3,2.79a14.27,14.27,0,0,0-.68,4.74,14.39,14.39,0,0,0,.68,4.77q1,2.82,3.3,2.82t3.3-2.82a14.38,14.38,0,0,0,.68-4.77Q284.19,6,280.21,6Z"/><path class="cls-1" d="M290.87,13.61a16.53,16.53,0,0,1,1.94-8.52,8.73,8.73,0,0,1,14.68,0,16.4,16.4,0,0,1,2,8.55,16.22,16.22,0,0,1-2,8.52,8.72,8.72,0,0,1-14.64,0A16.31,16.31,0,0,1,290.87,13.61ZM300.16,6q-2.3,0-3.3,2.79a14.27,14.27,0,0,0-.68,4.74,14.38,14.38,0,0,0,.68,4.77q1,2.82,3.3,2.82t3.3-2.82a14.42,14.42,0,0,0,.68-4.77Q304.15,6,300.16,6Z"/><path class="cls-1" d="M328.22,24.43h-.13V29q0,3.76-2.49,3.76-2.66,0-2.66-3.82V11.27q0-3.79,2.66-3.79a2.81,2.81,0,0,1,2.49,1.65,5.48,5.48,0,0,1,4.31-1.78,7.18,7.18,0,0,1,5.9,2.85,10,10,0,0,1,2.07,6.35,10.33,10.33,0,0,1-1.26,5.05,8.19,8.19,0,0,1-3.66,3.6,6.86,6.86,0,0,1-3.11.74A6.07,6.07,0,0,1,328.22,24.43Zm-.13-7.55a4.87,4.87,0,0,0,.81,2.92,3.11,3.11,0,0,0,2.67,1.3,3,3,0,0,0,2.67-1.43,5.51,5.51,0,0,0,.81-3,5.15,5.15,0,0,0-.85-3,3,3,0,0,0-2.64-1.43,3.48,3.48,0,0,0-2.46,1Q328.09,14.12,328.09,16.88Z"/><path class="cls-1" d="M343.74,7.48a2.14,2.14,0,0,1,1.75.74,6.24,6.24,0,0,1,.91,1.78l3,7.91,3.21-8.36q.81-2.07,2.3-2.07,2.59,0,2.59,2.49a4.77,4.77,0,0,1-.42,1.82l-8,19q-.91,2.11-2.3,2.11a2.62,2.62,0,0,1-1.88-.68,2.42,2.42,0,0,1-.71-1.84,4.56,4.56,0,0,1,.43-1.77l2.16-4.69-5.28-12.34a3.65,3.65,0,0,1-.29-1.46,2.53,2.53,0,0,1,.73-1.85A2.45,2.45,0,0,1,343.74,7.48Z"/><path class="cls-1" d="M358.35,16.52V13.93q0-10.08,4.76-11.47A24.32,24.32,0,0,1,368.78,2a5,5,0,0,0,2.09-.24.72.72,0,0,0,.34-.6q0-.49.74-.81a3.1,3.1,0,0,1,1.2-.26q1.72,0,1.72,2.69a2.4,2.4,0,0,1-1,1.91,4.45,4.45,0,0,1-2,.87,9.06,9.06,0,0,1-1.8.16h-3.45A3,3,0,0,0,364,7.09a4.35,4.35,0,0,0-.62,2.43h.1a6.55,6.55,0,0,1,4.15-1.26,7.05,7.05,0,0,1,5.8,2.46,9.59,9.59,0,0,1,1.81,6.15,9.43,9.43,0,0,1-2.2,6.58,8.1,8.1,0,0,1-6.32,2.43,7.6,7.6,0,0,1-6.28-2.69A10.21,10.21,0,0,1,358.35,16.52Zm5,.29q0,4.5,3.34,4.5a3.18,3.18,0,0,0,2.38-1,5,5,0,0,0,1-3.52q0-4.24-3.34-4.24a2.87,2.87,0,0,0-2.56,1.33A5.14,5.14,0,0,0,363.33,16.81Z"/><path class="cls-1" d="M388.76,12h-3.91a1.06,1.06,0,0,0-1.21,1.2v8.29a4.16,4.16,0,0,1-1.1,3.08,4.16,4.16,0,0,1-3.08,1.1,8.39,8.39,0,0,1-2.4-.23,1.79,1.79,0,0,1-1.2-1.85,1.78,1.78,0,0,1,.88-1.79,4.87,4.87,0,0,1,2.11-.32V13.19q0-3.21,1.42-4.48t4.57-1.23h6.48a2.23,2.23,0,0,1,2.17,1.1,5.43,5.43,0,0,1,.42,2.47V21.83q0,3.83-2.58,3.83a2.21,2.21,0,0,1-2.16-1.2,6.35,6.35,0,0,1-.42-2.62Z"/><path class="cls-1" d="M401.92,18a3.17,3.17,0,0,0,1.26,2.33,4.42,4.42,0,0,0,2.69.81,8,8,0,0,0,3.21-.86,8.84,8.84,0,0,1,2.33-.86,1.82,1.82,0,0,1,2.07,2A2.58,2.58,0,0,1,412.9,23a6.38,6.38,0,0,1-3.3,2.17,12.32,12.32,0,0,1-4,.65,8.65,8.65,0,0,1-6.48-2.67,9.1,9.1,0,0,1-2.59-6.59A9.58,9.58,0,0,1,399,9.94a8.14,8.14,0,0,1,6.33-2.75,8.24,8.24,0,0,1,3.47.71A9,9,0,0,1,412.48,11a7.59,7.59,0,0,1,1.43,4.44,2.29,2.29,0,0,1-.94,2,3.44,3.44,0,0,1-2.14.62Zm-.06-3.43h6.9a3.23,3.23,0,0,0-1.05-2.24,3.55,3.55,0,0,0-4.65,0A3.93,3.93,0,0,0,401.85,14.58Z"/><path class="cls-1" d="M416.27,21.83V11.28a6.09,6.09,0,0,1,.42-2.6,2.29,2.29,0,0,1,2.24-1.2,2.2,2.2,0,0,1,2.17,1.17,6.47,6.47,0,0,1,.39,2.62V17.1l6.28-8a3.44,3.44,0,0,1,2.59-1.62,2.23,2.23,0,0,1,2.2,1.17,6.5,6.5,0,0,1,.39,2.63V21.83a6.55,6.55,0,0,1-.39,2.63,2.59,2.59,0,0,1-4.38,0,6.56,6.56,0,0,1-.39-2.63V16.46l-6.3,7.61a3.59,3.59,0,0,1-2.57,1.59Q416.27,25.66,416.27,21.83ZM424.63,6A5.65,5.65,0,0,1,421,4.83a2.93,2.93,0,0,1-1.33-2.3q0-1.65,1.55-1.65a1.88,1.88,0,0,1,1.54,1,2.13,2.13,0,0,0,1.86,1,2.07,2.07,0,0,0,1.88-1,1.74,1.74,0,0,1,1.46-1q1.59,0,1.59,1.65a2.94,2.94,0,0,1-1.72,2.62A6.37,6.37,0,0,1,424.63,6Z"/><path class="cls-2" d="M3,25.46q-3,0-3-3.4V10.72Q0,7.35,3,7.35h4.7a11.13,11.13,0,0,1,5.22.94q2.27,1.23,2.27,4.44A3.71,3.71,0,0,1,13,16.16a4.34,4.34,0,0,1,2.69,3.92,4.56,4.56,0,0,1-2.43,4.47,12.1,12.1,0,0,1-5.35.91ZM5.22,10.72v4H7.32a4,4,0,0,0,1.85-.32,1.75,1.75,0,0,0,.78-1.65q0-2-2.82-2Zm0,7.35v4H7.32q3,0,3-2a1.73,1.73,0,0,0-.94-1.72,5.17,5.17,0,0,0-2-.29Z"/><path class="cls-2" d="M23.68,14.48a45.24,45.24,0,0,1,5.6.19q3.53.55,4.34,2.92a7.29,7.29,0,0,1,.32,2.3q0,3.24-2.3,4.47a11.78,11.78,0,0,1-5.28.91H21.45q-3,0-3-3.4V10.72q0-3.37,2.62-3.37t2.59,3.37Zm0,3.4v4H25.8q3,0,3-2a1.72,1.72,0,0,0-.94-1.72,5.21,5.21,0,0,0-2.05-.29Zm17.85-6.74V21.87a5,5,0,0,1-.45,2.43,2.27,2.27,0,0,1-2.13,1,2.26,2.26,0,0,1-2.12-1,5,5,0,0,1-.45-2.43V11.14q0-3.79,2.57-3.79T41.53,11.14Z"/><path class="cls-2" d="M50.31,17l6.28-5.83A6.47,6.47,0,0,1,57,8.52a2.66,2.66,0,0,1,4.41,0,6.5,6.5,0,0,1,.39,2.63V21.7a6.55,6.55,0,0,1-.39,2.63,2.59,2.59,0,0,1-4.38,0,6.58,6.58,0,0,1-.39-2.63V16.55l-6.3,5.14a6.66,6.66,0,0,1-.39,2.63,2.2,2.2,0,0,1-2.18,1.2q-2.66,0-2.66-3.83V11.15a6.09,6.09,0,0,1,.42-2.6,2.28,2.28,0,0,1,2.24-1.2,2.2,2.2,0,0,1,2.17,1.17,6.5,6.5,0,0,1,.39,2.62Z"/><path class="cls-2" d="M64.69,21.7V11.15q0-3.8,2.62-3.8h5.41q3.3,0,3.3,2.25t-3.3,2.25H69.91V21.7q0,3.82-2.59,3.82T64.69,21.7Z"/><path class="cls-2" d="M82.67,24.3h-.13v4.54q0,3.76-2.49,3.76-2.66,0-2.66-3.82V11.14q0-3.79,2.66-3.79A2.81,2.81,0,0,1,82.54,9a5.48,5.48,0,0,1,4.31-1.78,7.18,7.18,0,0,1,5.9,2.85,10,10,0,0,1,2.07,6.35,10.33,10.33,0,0,1-1.26,5.05,8.19,8.19,0,0,1-3.66,3.6,6.86,6.86,0,0,1-3.11.74A6.07,6.07,0,0,1,82.67,24.3Zm-.13-7.55a4.87,4.87,0,0,0,.81,2.92A3.11,3.11,0,0,0,86,21a3,3,0,0,0,2.67-1.43,5.51,5.51,0,0,0,.81-3,5.15,5.15,0,0,0-.85-3A3,3,0,0,0,86,12.08a3.48,3.48,0,0,0-2.46,1Q82.54,14,82.54,16.75Z"/><path class="cls-2" d="M108.78,23.68a5.4,5.4,0,0,1-4.41,2,7.12,7.12,0,0,1-5.83-2.92,9.93,9.93,0,0,1-2.11-6.32A9.84,9.84,0,0,1,98.64,10a7.27,7.27,0,0,1,5.93-2.92A5.24,5.24,0,0,1,108.78,9a2.76,2.76,0,0,1,2.49-1.65q2.59,0,2.59,3.8V21.7q0,3.83-2.59,3.83A2.61,2.61,0,0,1,108.78,23.68Zm-6.93-7.32a5.1,5.1,0,0,0,.81,2.92,3,3,0,0,0,2.58,1.36,2.89,2.89,0,0,0,2.55-1.36,5.27,5.27,0,0,0,.77-2.92,5.11,5.11,0,0,0-.77-2.88,2.91,2.91,0,0,0-2.55-1.33,3,3,0,0,0-2.55,1.33A4.91,4.91,0,0,0,101.85,16.36Z"/><path class="cls-2" d="M117.43,21.7V11.15a6.09,6.09,0,0,1,.42-2.6,2.28,2.28,0,0,1,2.24-1.2,2.2,2.2,0,0,1,2.17,1.17,6.5,6.5,0,0,1,.39,2.62V17l6.28-8a3.44,3.44,0,0,1,2.59-1.62,2.23,2.23,0,0,1,2.2,1.17,6.5,6.5,0,0,1,.39,2.63V21.7a6.55,6.55,0,0,1-.39,2.63,2.59,2.59,0,0,1-4.38,0,6.58,6.58,0,0,1-.39-2.63V16.33l-6.3,7.61a3.59,3.59,0,0,1-2.57,1.59Q117.43,25.53,117.43,21.7Zm8.36-15.87a5.64,5.64,0,0,1-3.63-1.13,2.93,2.93,0,0,1-1.33-2.3q0-1.65,1.55-1.65a1.88,1.88,0,0,1,1.54,1,2.13,2.13,0,0,0,1.86,1,2.07,2.07,0,0,0,1.88-1,1.74,1.74,0,0,1,1.46-1q1.59,0,1.59,1.65A2.94,2.94,0,0,1,129,5,6.37,6.37,0,0,1,125.79,5.83Z"/><path class="cls-2" d="M162.11,25.27H150.19q0,2.27-.06,2.62a1.62,1.62,0,0,1-1.69,1.55q-2.43,0-2.43-2.56V23.55q0-1.65.78-2,.68-.16,1.39-.29.78-.36.78-2V12.67a5.09,5.09,0,0,1,1.55-4.18,7,7,0,0,1,4.41-1.13h6.51a2.23,2.23,0,0,1,2.17,1.1,5.41,5.41,0,0,1,.42,2.46V21.38a2,2,0,0,1,2.27,2.24v3.27q0,2.56-2.43,2.56-1.36,0-1.65-1.59A18.36,18.36,0,0,1,162.11,25.27Zm-8.88-3.89h5.64V11.53H155a1.06,1.06,0,0,0-1.21,1.2v6.54A4.94,4.94,0,0,1,153.23,21.38Z"/><path class="cls-2" d="M167.29,16.42a9.54,9.54,0,0,1,2.48-6.69,9,9,0,0,1,12.81,0,9.62,9.62,0,0,1,2.43,6.7,9.54,9.54,0,0,1-2.4,6.64,9,9,0,0,1-12.89,0A9.43,9.43,0,0,1,167.29,16.42Zm5.41-.06a5.86,5.86,0,0,0,.81,3.11,3,3,0,0,0,5.31,0,5.86,5.86,0,0,0,.81-3.11,5.45,5.45,0,0,0-.84-3,3.08,3.08,0,0,0-5.28,0A5.53,5.53,0,0,0,172.7,16.36Z"/><path class="cls-2" d="M205.64,9.43a10.38,10.38,0,0,1,2.3-.29,6.53,6.53,0,0,1,5.22,2.37A8.14,8.14,0,0,1,215.07,17a8.72,8.72,0,0,1-9,9,10.38,10.38,0,0,1-2.95-.42,8.79,8.79,0,0,1-3-1.52,3.51,3.51,0,0,1-1.59-2.79,2.44,2.44,0,0,1,.63-1.7,2.07,2.07,0,0,1,1.6-.7,5.54,5.54,0,0,1,2.38,1,5.69,5.69,0,0,0,2.87,1,3.12,3.12,0,0,0,2.41-1.05,3.6,3.6,0,0,0,1-2.51,3.67,3.67,0,0,0-.76-2.41,2.71,2.71,0,0,0-2.22-.92,6.8,6.8,0,0,0-2,.42,6.75,6.75,0,0,1-2,.42q-2.07,0-2.07-2.33a17.08,17.08,0,0,1,.16-1.85l.78-6.16a3.35,3.35,0,0,1,1-2.33,4.32,4.32,0,0,1,2.49-.52h6.58q3.43,0,3.43,2.49t-3.24,2.46H206Z"/><path class="cls-2" d="M217.5,13.48A16.53,16.53,0,0,1,219.45,5a8.73,8.73,0,0,1,14.67,0,16.4,16.4,0,0,1,2,8.55,16.22,16.22,0,0,1-2,8.52,8.72,8.72,0,0,1-14.64,0A16.3,16.3,0,0,1,217.5,13.48Zm9.3-7.58q-2.3,0-3.3,2.79a14.27,14.27,0,0,0-.68,4.74,14.38,14.38,0,0,0,.68,4.77q1,2.82,3.3,2.82t3.31-2.82a14.42,14.42,0,0,0,.68-4.77Q230.78,5.9,226.8,5.9Z"/><path class="cls-2" d="M248.47,13.48A16.54,16.54,0,0,1,250.42,5a8.73,8.73,0,0,1,14.68,0,16.38,16.38,0,0,1,2,8.55,16.2,16.2,0,0,1-2,8.52,8.72,8.72,0,0,1-14.64,0A16.32,16.32,0,0,1,248.47,13.48Zm9.3-7.58q-2.3,0-3.3,2.79a14.27,14.27,0,0,0-.68,4.74,14.39,14.39,0,0,0,.68,4.77q1,2.82,3.3,2.82t3.3-2.82a14.38,14.38,0,0,0,.68-4.77Q261.75,5.9,257.77,5.9Z"/><path class="cls-2" d="M268.43,13.48A16.54,16.54,0,0,1,270.37,5a8.73,8.73,0,0,1,14.67,0,16.38,16.38,0,0,1,2,8.55A16.2,16.2,0,0,1,285,22a8.72,8.72,0,0,1-14.64,0A16.31,16.31,0,0,1,268.43,13.48Zm9.3-7.58q-2.3,0-3.3,2.79a14.27,14.27,0,0,0-.68,4.74,14.39,14.39,0,0,0,.68,4.77q1,2.82,3.3,2.82T281,18.2a14.38,14.38,0,0,0,.68-4.77Q281.71,5.9,277.73,5.9Z"/><path class="cls-2" d="M288.38,13.48A16.53,16.53,0,0,1,290.33,5a8.73,8.73,0,0,1,14.68,0,16.4,16.4,0,0,1,2,8.55A16.22,16.22,0,0,1,305,22a8.72,8.72,0,0,1-14.64,0A16.31,16.31,0,0,1,288.38,13.48Zm9.3-7.58q-2.3,0-3.3,2.79a14.27,14.27,0,0,0-.68,4.74,14.38,14.38,0,0,0,.68,4.77q1,2.82,3.3,2.82T301,18.2a14.42,14.42,0,0,0,.68-4.77Q301.67,5.9,297.68,5.9Z"/><path class="cls-2" d="M325.74,24.3h-.13v4.54q0,3.76-2.49,3.76-2.66,0-2.66-3.82V11.14q0-3.79,2.66-3.79A2.81,2.81,0,0,1,325.61,9a5.48,5.48,0,0,1,4.31-1.78,7.18,7.18,0,0,1,5.9,2.85,10,10,0,0,1,2.07,6.35,10.33,10.33,0,0,1-1.26,5.05,8.19,8.19,0,0,1-3.66,3.6,6.86,6.86,0,0,1-3.11.74A6.07,6.07,0,0,1,325.74,24.3Zm-.13-7.55a4.87,4.87,0,0,0,.81,2.92,3.11,3.11,0,0,0,2.67,1.3,3,3,0,0,0,2.67-1.43,5.51,5.51,0,0,0,.81-3,5.15,5.15,0,0,0-.85-3,3,3,0,0,0-2.64-1.43,3.48,3.48,0,0,0-2.46,1Q325.61,14,325.61,16.75Z"/><path class="cls-2" d="M341.25,7.35A2.14,2.14,0,0,1,343,8.1a6.24,6.24,0,0,1,.91,1.78l3,7.91,3.21-8.36q.81-2.07,2.3-2.07,2.59,0,2.59,2.49a4.77,4.77,0,0,1-.42,1.82l-8,19q-.91,2.11-2.3,2.11a2.62,2.62,0,0,1-1.88-.68,2.42,2.42,0,0,1-.71-1.84,4.56,4.56,0,0,1,.43-1.77l2.16-4.69L339,11.4a3.65,3.65,0,0,1-.29-1.46,2.53,2.53,0,0,1,.73-1.85A2.45,2.45,0,0,1,341.25,7.35Z"/><path class="cls-2" d="M355.86,16.39V13.8q0-10.08,4.76-11.47a24.32,24.32,0,0,1,5.67-.42,5,5,0,0,0,2.09-.24.72.72,0,0,0,.34-.6q0-.49.74-.81a3.1,3.1,0,0,1,1.2-.26q1.72,0,1.72,2.69a2.4,2.4,0,0,1-1,1.91,4.45,4.45,0,0,1-2,.87,9.06,9.06,0,0,1-1.8.16h-3.45A3,3,0,0,0,361.47,7a4.35,4.35,0,0,0-.62,2.43h.1a6.55,6.55,0,0,1,4.15-1.26,7.05,7.05,0,0,1,5.8,2.46,9.59,9.59,0,0,1,1.81,6.15,9.43,9.43,0,0,1-2.2,6.58,8.1,8.1,0,0,1-6.32,2.43,7.6,7.6,0,0,1-6.28-2.69A10.21,10.21,0,0,1,355.86,16.39Zm5,.29q0,4.5,3.34,4.5a3.18,3.18,0,0,0,2.38-1,5,5,0,0,0,1-3.52q0-4.24-3.34-4.24a2.87,2.87,0,0,0-2.56,1.33A5.14,5.14,0,0,0,360.85,16.68Z"/><path class="cls-2" d="M386.28,11.86h-3.91a1.06,1.06,0,0,0-1.21,1.2v8.29a4.16,4.16,0,0,1-1.1,3.08,4.16,4.16,0,0,1-3.08,1.1,8.39,8.39,0,0,1-2.4-.23,1.79,1.79,0,0,1-1.2-1.85,1.78,1.78,0,0,1,.88-1.79,4.87,4.87,0,0,1,2.11-.32V13.07q0-3.21,1.42-4.48t4.57-1.23h6.48A2.23,2.23,0,0,1,391,8.46a5.43,5.43,0,0,1,.42,2.47V21.7q0,3.83-2.58,3.83a2.21,2.21,0,0,1-2.16-1.2,6.35,6.35,0,0,1-.42-2.62Z"/><path class="cls-2" d="M399.43,17.88a3.17,3.17,0,0,0,1.26,2.33,4.42,4.42,0,0,0,2.69.81,8,8,0,0,0,3.21-.86,8.84,8.84,0,0,1,2.33-.86,1.82,1.82,0,0,1,2.07,2,2.58,2.58,0,0,1-.58,1.55,6.38,6.38,0,0,1-3.3,2.17,12.32,12.32,0,0,1-4,.65A8.65,8.65,0,0,1,396.65,23a9.1,9.1,0,0,1-2.59-6.59,9.58,9.58,0,0,1,2.48-6.64,8.14,8.14,0,0,1,6.33-2.75,8.24,8.24,0,0,1,3.47.71A9,9,0,0,1,410,10.85a7.59,7.59,0,0,1,1.43,4.44,2.29,2.29,0,0,1-.94,2,3.44,3.44,0,0,1-2.14.62Zm-.06-3.43h6.9a3.23,3.23,0,0,0-1.05-2.24,3.55,3.55,0,0,0-4.65,0A3.93,3.93,0,0,0,399.37,14.45Z"/><path class="cls-2" d="M413.79,21.7V11.15a6.09,6.09,0,0,1,.42-2.6,2.29,2.29,0,0,1,2.24-1.2,2.2,2.2,0,0,1,2.17,1.17,6.47,6.47,0,0,1,.39,2.62V17l6.28-8a3.44,3.44,0,0,1,2.59-1.62,2.23,2.23,0,0,1,2.2,1.17,6.5,6.5,0,0,1,.39,2.63V21.7a6.55,6.55,0,0,1-.39,2.63,2.59,2.59,0,0,1-4.38,0,6.56,6.56,0,0,1-.39-2.63V16.33L419,23.93a3.59,3.59,0,0,1-2.57,1.59Q413.79,25.53,413.79,21.7Zm8.36-15.87a5.65,5.65,0,0,1-3.63-1.13,2.93,2.93,0,0,1-1.33-2.3q0-1.65,1.55-1.65a1.88,1.88,0,0,1,1.54,1,2.13,2.13,0,0,0,1.86,1,2.07,2.07,0,0,0,1.88-1,1.74,1.74,0,0,1,1.46-1q1.59,0,1.59,1.65A2.94,2.94,0,0,1,425.35,5,6.37,6.37,0,0,1,422.14,5.83Z"/></g></g></svg>