
<svg width="401px" height="77px" viewBox="1 3 401 77" version="1.1" xmlns="http://www.w3.org/2000/svg" xmlns:xlink="http://www.w3.org/1999/xlink">
    <defs>
        <filter x="-50%" y="-50%" width="200%" height="200%" filterUnits="objectBoundingBox" id="filter-1">
            <feOffset dx="0" dy="2" in="SourceAlpha" result="shadowOffsetOuter1"></feOffset>
            <feGaussianBlur stdDeviation="2" in="shadowOffsetOuter1" result="shadowBlurOuter1"></feGaussianBlur>
            <feColorMatrix values="0 0 0 0 0   0 0 0 0 0   0 0 0 0 0  0 0 0 0.5 0" type="matrix" in="shadowBlurOuter1" result="shadowMatrixOuter1"></feColorMatrix>
            <feMerge>
                <feMergeNode in="shadowMatrixOuter1"></feMergeNode>
                <feMergeNode in="SourceGraphic"></feMergeNode>
            </feMerge>
        </filter>
    </defs>
    <g id="13ZP" stroke="none" stroke-width="1" fill="none" fill-rule="evenodd" transform="translate(5.000000, 5.000000)">
        <g id="Слой_2">
            <g id="Слой_1-2" filter="url(#filter-1)">
                <path d="M27.61,45.58 L33.41,45.58 C36.7433333,45.58 38.41,47.3 38.41,50.74 C38.41,54.18 36.7433333,55.9 33.41,55.9 L10.07,55.9 C6.73666667,55.9 5.07,54.18 5.07,50.74 C5.07,47.3 6.73666667,45.58 10.07,45.58 L16.28,45.58 L16.28,16.58 C14.5132054,16.6665574 12.7422677,16.5558738 11,16.25 C9.2,15.7566667 8.3,14.4733333 8.3,12.4 C8.32741741,11.2559808 8.87161649,10.1859677 9.78,9.49 C12.4933333,7.16333333 16.9,6 23,6 C23.8150702,5.96984216 24.630829,6.0369828 25.43,6.2 C26.5566667,6.51333333 27.2533333,7.73 27.52,9.85 C27.6461441,11.4233017 27.6895372,13.0021447 27.65,14.58 L27.61,45.58 Z" id="Shape" fill="#E3077B"></path>
                <path d="M71.94,28.85 C77.4266667,31.6166667 80.17,35.8 80.17,41.4 C80.2696924,45.9000411 78.3063881,50.1986828 74.84,53.07 C71.4154504,55.9680824 67.044757,57.5056553 62.56,57.39 C58.4560525,57.4276151 54.4439348,56.1753587 51.09,53.81 C47.31,51.1433333 45.42,47.77 45.42,43.69 C45.4396919,42.3340591 45.9678968,41.0349605 46.9,40.05 C47.7347357,38.9987125 48.9977418,38.378224 50.34,38.36 C51.9482342,38.4385304 53.4276254,39.263291 54.34,40.59 L57.51,44.71 C58.8523129,46.1519392 60.7400939,46.9615068 62.71,46.94 C64.3462916,46.9932338 65.9204018,46.3107524 67,45.08 C68.0998742,43.8469601 68.6897338,42.2418268 68.65,40.59 C68.7869674,38.824616 67.9264419,37.130577 66.42,36.2 C64.8660335,35.4585226 63.2002938,34.9787356 61.49,34.78 C58.3833333,34.24 56.83,32.5733333 56.83,29.78 C56.7245126,28.5235223 57.1486555,27.2800948 58,26.35 C59.0026261,25.5729644 60.1863911,25.0636701 61.44,24.87 C64.9,24.0566667 66.6333333,22.37 66.64,19.81 C66.64,16.9766667 65.3066667,15.56 62.64,15.56 C60.837403,15.5143113 59.0732992,16.0858809 57.64,17.18 C57.5466667,17.2266667 56.58,18.2266667 54.74,20.18 C53.9683052,21.1620403 52.8037085,21.7549271 51.5555983,21.8011534 C50.307488,21.8473797 49.1022247,21.3422655 48.26,20.42 C47.3551844,19.5165501 46.8662388,18.2778881 46.91,17 C46.9500562,15.5164282 47.3924847,14.0716226 48.19,12.82 C49.6838741,10.3513617 51.8957919,8.39761728 54.53,7.22 C57.1012048,5.91075079 59.9446584,5.22558125 62.83,5.22 C66.6416722,5.15142891 70.3434642,6.49818289 73.22,9 C76.0910008,11.3995154 77.7079237,14.9795815 77.61,18.72 C77.61,22.7266667 75.72,26.1033333 71.94,28.85 Z" id="Shape" fill="#E3077B"></path>
                <path d="M103.89,43.62 L101.89,43.62 L93.77,54.23 C93.3338104,54.8613376 92.7886246,55.4099096 92.16,55.85 C91.4587029,56.2184235 90.6711137,56.3911404 89.88,56.35 C88.8010165,56.4001225 87.7523608,55.9850296 87,55.21 C86.3892818,54.6744849 86.0035112,53.9279474 85.92,53.12 C85.9339868,51.8184942 86.4291158,50.5682046 87.31,49.61 L93,43.1 C88.4066667,42.1333333 86.11,39.2366667 86.11,34.41 C86.11,28.2433333 90.3733333,25.1633333 98.9,25.17 L107.74,25.17 C109.78,25.17 111.17,25.6333333 111.91,26.56 C112.543333,27.3733333 112.856667,28.8366667 112.85,30.95 L112.85,50.5 C112.85,54.4 111.35,56.35 108.35,56.35 C106.949468,56.4162921 105.625175,55.7100022 104.9,54.51 C104.191334,53.2995979 103.844307,51.9114917 103.9,50.51 L103.89,43.62 Z M103.89,37.84 L103.89,30.95 L100.3,30.95 C96.9133333,30.95 95.22,32.1 95.22,34.4 C95.22,36.7 96.9133333,37.85 100.3,37.85 L103.89,37.84 Z" id="Shape" fill="#E3077B"></path>
                <path d="M142.52,40.73 C142.52,38.7633333 143.946667,37.78 146.8,37.78 C148.105734,37.8535462 149.415314,37.7424507 150.69,37.45 C151.836667,37.0433333 152.41,36.0233333 152.41,34.39 C152.41,32.7566667 151.94,31.6466667 151,31.06 C149.880279,30.5712478 148.658562,30.3619086 147.44,30.45 C146.091453,30.4581666 144.754698,30.7018284 143.49,31.17 C142.444446,31.6007379 141.337527,31.8639684 140.21,31.95 C138.023333,31.95 136.93,30.93 136.93,28.89 C136.93,26.0366667 140.653333,24.61 148.1,24.61 C152.253333,24.61 155.346667,25.2033333 157.38,26.39 C160.046667,27.91 161.38,30.5766667 161.38,34.39 C161.42112,36.9182618 159.960615,39.2307284 157.66,40.28 C160.626667,41.8733333 162.11,44.1166667 162.11,47.01 C162.11,53.53 157.443333,56.79 148.11,56.79 C140.11,56.79 136.11,55.2533333 136.11,52.18 C136.11,50.2933333 137.146667,49.35 139.22,49.35 C140.401749,49.4722708 141.561949,49.7513914 142.67,50.18 C144.410294,50.7449234 146.230374,51.0251956 148.06,51.01 C151.246667,51.01 152.84,49.6766667 152.84,47.01 C152.949102,46.0596112 152.642948,45.1083498 152,44.4 C150.951579,43.757456 149.725303,43.4666534 148.5,43.57 C147.160896,43.5997487 145.8219,43.506019 144.5,43.29 C143.272094,43.0857539 142.408986,41.969817 142.52,40.73 L142.52,40.73 Z" id="Shape" fill="#E3077B"></path>
                <path d="M186.44,53.18 C184.594264,55.4372226 181.793177,56.6932659 178.88,56.57 C174.93497,56.6153299 171.210754,54.7532218 168.88,51.57 C166.466521,48.4789885 165.191654,44.6508537 165.27,40.73 C165.187038,36.7313063 166.526617,32.833059 169.05,29.73 C171.444222,26.5315138 175.225087,24.6726814 179.22,24.73 C182.00291,24.6445402 184.668691,25.8518952 186.44,28 C187.188624,26.2992846 188.86195,25.192856 190.72,25.17 C193.686667,25.17 195.17,27.3433333 195.17,31.69 L195.17,49.79 C195.17,54.17 193.686667,56.36 190.72,56.36 C188.753333,56.3533333 187.326667,55.2933333 186.44,53.18 Z M174.54,40.62 C174.484708,42.3877611 174.965803,44.130858 175.92,45.62 C176.872877,47.1398528 178.556693,48.0444763 180.35,48 C182.116012,48.0499333 183.777279,47.1641776 184.72,45.67 C185.643165,44.1694356 186.105611,42.4309188 186.05,40.67 C186.110093,38.924302 185.64693,37.2004978 184.72,35.72 C183.765159,34.2449233 182.106101,33.3793283 180.35,33.44 C178.613731,33.3890849 176.972256,34.2305766 176,35.67 C175.006585,37.1262105 174.495864,38.8577644 174.54,40.62 Z" id="Shape" fill="#E3077B"></path>
                <path d="M210.34,54.24 L210.12,54.24 L210.12,62 C210.12,66.3 208.693333,68.45 205.84,68.45 C202.8,68.45 201.28,66.2633333 201.28,61.89 L201.28,31.67 C201.28,27.3366667 202.8,25.17 205.84,25.17 C207.691201,25.2148982 209.353776,26.3142177 210.12,28 C212.004859,25.9305741 214.71393,24.8088209 217.51,24.94 C221.473297,24.8483196 225.238942,26.6678852 227.63,29.83 C230.029947,32.9484133 231.28665,36.7961845 231.19,40.73 C231.214102,43.7598076 230.460037,46.7450788 229,49.4 C227.624618,52.0784715 225.422355,54.2421595 222.72,55.57 C221.065426,56.4106645 219.235891,56.8492048 217.38,56.85 C214.790533,56.8850608 212.280798,55.9546051 210.34,54.24 L210.34,54.24 Z M210.12,41.24 C210.044842,43.0129348 210.535106,44.7638798 211.52,46.24 C212.57192,47.7081995 214.295804,48.543794 216.1,48.46 C217.955394,48.5230527 219.702664,47.588378 220.68,46.01 C221.646767,44.4405224 222.133409,42.6225648 222.08,40.78 C222.133894,38.9680549 221.62754,37.1835929 220.63,35.67 C219.670822,34.1027922 217.946705,33.1682602 216.11,33.22 C214.543142,33.1946069 213.028527,33.7832249 211.89,34.86 C210.71,35.9933333 210.12,38.1366667 210.12,41.29 L210.12,41.24 Z" id="Shape" fill="#E3077B"></path>
                <path d="M254.37,32.89 L244.59,32.89 L244.59,49.79 C244.59,54.1633333 243.106667,56.35 240.14,56.35 C237.173333,56.35 235.673333,54.16 235.64,49.78 L235.64,31.29 C235.548498,29.8179198 235.816182,28.3456584 236.42,27 C237.210309,25.7250994 238.657407,25.0112492 240.15,25.16 L258.77,25.16 C260.274943,24.9973133 261.733987,25.7386022 262.49,27.05 C263.055726,28.3848104 263.302259,29.833192 263.21,31.28 L263.21,49.78 C263.21,54.16 261.736667,56.35 258.79,56.35 C255.843333,56.35 254.37,54.1633333 254.37,49.79 L254.37,32.89 Z" id="Shape" fill="#E3077B"></path>
                <path d="M288.17,32.89 L281.46,32.89 C280.890986,32.805075 280.315321,32.9941911 279.907527,33.4000153 C279.499733,33.8058394 279.307831,34.3805814 279.39,34.95 L279.39,49.18 C279.581998,51.1341724 278.888517,53.0715935 277.500055,54.4600555 C276.111594,55.8485174 274.174172,56.5419985 272.22,56.35 C270.83698,56.4321381 269.449345,56.3142564 268.1,56 C266.73541,55.5528218 265.863113,54.2194532 266,52.79 C266,51.23 266.5,50.21 267.5,49.73 C268.647421,49.2798031 269.880112,49.0885824 271.11,49.17 L271.11,35 C271.11,31.3266667 271.926667,28.7633333 273.56,27.31 C275.08,25.8966667 277.693333,25.19 281.4,25.19 L292.52,25.19 C294.024457,25.0299548 295.48214,25.7705516 296.24,27.08 C296.805371,28.4149143 297.05189,29.8632115 296.96,31.31 L296.96,49.78 C296.96,54.16 295.486667,56.35 292.54,56.35 C291.002287,56.4806801 289.538899,55.665929 288.84,54.29 C288.284138,52.8578853 288.038725,51.3240566 288.12,49.79 L288.17,32.89 Z" id="Shape" fill="#E3077B"></path>
                <path d="M322.64,53.18 C320.794264,55.4372226 317.993177,56.6932659 315.08,56.57 C311.13497,56.6153299 307.410754,54.7532218 305.08,51.57 C302.666521,48.4789885 301.391654,44.6508537 301.47,40.73 C301.387038,36.7313063 302.726617,32.833059 305.25,29.73 C307.644222,26.5315138 311.425087,24.6726814 315.42,24.73 C318.20291,24.6445402 320.868691,25.8518952 322.64,28 C323.388624,26.2992846 325.06195,25.192856 326.92,25.17 C329.886667,25.17 331.37,27.3433333 331.37,31.69 L331.37,49.79 C331.37,54.17 329.886667,56.36 326.92,56.36 C324.973333,56.3533333 323.546667,55.2933333 322.64,53.18 Z M310.74,40.62 C310.684079,42.3878363 311.165224,44.1311162 312.12,45.62 C313.074294,47.1383363 314.757175,48.0424574 316.55,48 C318.316012,48.0499333 319.977279,47.1641776 320.92,45.67 C321.843165,44.1694356 322.305611,42.4309188 322.25,40.67 C322.310093,38.924302 321.84693,37.2004978 320.92,35.72 C319.965159,34.2449233 318.306101,33.3793283 316.55,33.44 C314.797059,33.3931309 313.144354,34.2554119 312.18,35.72 C311.204275,37.1648578 310.701122,38.8769732 310.74,40.62 L310.74,40.62 Z" id="Shape" fill="#E3077B"></path>
                <path d="M343.38,32.89 L339.54,32.89 C335.793333,32.89 333.923333,31.6033333 333.93,29.03 C333.936667,26.4566667 335.806667,25.17 339.54,25.17 L356.11,25.17 C359.89,25.17 361.78,26.4566667 361.78,29.03 C361.78,31.6033333 359.88,32.89 356.08,32.89 L352.22,32.89 L352.22,49.79 C352.22,54.1633333 350.746667,56.35 347.8,56.35 C344.853333,56.35 343.38,54.1633333 343.38,49.79 L343.38,32.89 Z" id="Shape" fill="#E3077B"></path>
                <path d="M383.85,53.18 C382.004264,55.4372226 379.203177,56.6932659 376.29,56.57 C372.34497,56.6153299 368.620754,54.7532218 366.29,51.57 C363.876521,48.4789885 362.601654,44.6508537 362.68,40.73 C362.597038,36.7313063 363.936617,32.833059 366.46,29.73 C368.854222,26.5315138 372.635087,24.6726814 376.63,24.73 C379.41291,24.6445402 382.078691,25.8518952 383.85,28 C384.598624,26.2992846 386.27195,25.192856 388.13,25.17 C391.096667,25.17 392.58,27.3433333 392.58,31.69 L392.58,49.79 C392.58,54.17 391.096667,56.36 388.13,56.36 C386.163333,56.3533333 384.736667,55.2933333 383.85,53.18 Z M372,40.62 C371.944708,42.3877611 372.425803,44.130858 373.38,45.62 C374.323648,47.124368 375.984365,48.0267666 377.76,48 C379.526012,48.0499333 381.187279,47.1641776 382.13,45.67 C383.053165,44.1694356 383.515611,42.4309188 383.46,40.67 C383.520093,38.924302 383.05693,37.2004978 382.13,35.72 C381.175159,34.2449233 379.516101,33.3793283 377.76,33.44 C376.007059,33.3931309 374.354354,34.2554119 373.39,35.72 C372.431318,37.1703918 371.945708,38.8822544 372,40.62 L372,40.62 Z" id="Shape" fill="#E3077B"></path>
                <path d="M23.47,41.49 L29.34,41.49 C32.7066667,41.49 34.39,43.23 34.39,46.71 C34.39,50.19 32.7066667,51.93 29.34,51.93 L5.72,51.93 C2.35333333,51.93 0.67,50.19 0.67,46.71 C0.67,43.23 2.35333333,41.49 5.72,41.49 L12,41.49 L12,12.16 C10.2195499,12.2437471 8.43530396,12.1297163 6.68,11.82 C4.86,11.32 3.95,10.02 3.95,7.92 C3.98638445,6.77086326 4.53707226,5.69885765 5.45,5 C8.18333333,2.67333333 12.62,1.51 18.76,1.51 C19.5850338,1.47868954 20.4108589,1.54582979 21.22,1.71 C22.36,2.03 23.0666667,3.26 23.34,5.4 C23.4713316,6.99306792 23.518064,8.59198106 23.48,10.19 L23.47,41.49 Z" id="Shape" fill="#FFFFFF"></path>
                <path d="M68.32,24.56 C73.8733333,27.38 76.65,31.6133333 76.65,37.26 C76.752851,41.8135716 74.7673098,46.1640802 71.26,49.07 C67.7959689,52.0004365 63.3758117,53.555677 58.84,53.44 C54.686275,53.4797707 50.6250382,52.2134764 47.23,49.82 C43.41,47.1533333 41.5,43.74 41.5,39.58 C41.5194524,38.2053929 42.0548526,36.8883084 43,35.89 C43.8441918,34.8261324 45.1220083,34.1982399 46.48,34.18 C48.0887683,34.2736964 49.5645133,35.103803 50.48,36.43 L53.69,40.59 C55.0554433,42.0690707 56.987324,42.8949406 59,42.86 C60.6378652,42.9063956 62.2122524,42.2253816 63.3,41 C64.4277125,39.7525727 65.0358898,38.1212264 65,36.44 C65.1320483,34.6496858 64.2519574,32.9358248 62.72,32 C61.1434974,31.2511263 59.4540669,30.7679492 57.72,30.57 C54.5733333,30.0233333 53,28.34 53,25.52 C52.8988797,24.2206809 53.3573056,22.9399991 54.26,22 C55.2740663,21.213045 56.4715876,20.6968721 57.74,20.5 C61.2466667,19.7066667 63,18.01 63,15.41 C63,12.5433333 61.6333333,11.11 58.9,11.11 C57.0790512,11.0658195 55.2975445,11.6443682 53.85,12.75 C53.7566667,12.7966667 52.78,13.7966667 50.92,15.75 C50.1387626,16.7410512 48.9616176,17.3388972 47.7005153,17.3851056 C46.439413,17.4313139 45.2216717,16.9212194 44.37,15.99 C43.47562,15.0986697 42.9812332,13.8825503 43,12.62 C43.0420423,11.1182528 43.491386,9.65615777 44.3,8.39 C45.8123926,5.8900941 48.0523387,3.91182388 50.72,2.72 C53.3240853,1.40292405 56.2017909,0.717756053 59.12,0.72 C62.9652109,0.638462605 66.7048535,1.98117235 69.62,4.49 C72.5234454,6.91673324 74.1587503,10.5372394 74.06,14.32 C74.06,18.3733333 72.1466667,21.7866667 68.32,24.56 Z" id="Shape" fill="#FFFFFF"></path>
                <path d="M100.4,39.65 L98.4,39.65 L90.29,50.26 C89.8538104,50.8913376 89.3086246,51.4399096 88.68,51.88 C87.9787029,52.2484235 87.1911137,52.4211404 86.4,52.38 C85.3278722,52.4243331 84.2876529,52.0097002 83.54,51.24 C82.9292818,50.7044849 82.5435112,49.9579474 82.46,49.15 C82.4739868,47.8484942 82.9691158,46.5982046 83.85,45.64 L89.52,39.12 C84.9266667,38.1533333 82.63,35.2566667 82.63,30.43 C82.63,24.2633333 86.8933333,21.1833333 95.42,21.19 L104.26,21.19 C106.3,21.19 107.69,21.6533333 108.43,22.58 C109.056667,23.3933333 109.37,24.8566667 109.37,26.97 L109.37,46.53 C109.37,50.43 107.87,52.38 104.87,52.38 C103.469468,52.4462921 102.145175,51.7400022 101.42,50.54 C100.711334,49.3295979 100.364307,47.9414917 100.42,46.54 L100.4,39.65 Z M100.4,33.87 L100.4,27 L96.81,27 C93.4233333,27 91.73,28.15 91.73,30.45 C91.73,32.75 93.4233333,33.9 96.81,33.9 L100.4,33.87 Z" id="Shape" fill="#FFFFFF"></path>
                <path d="M139,36.76 C139,34.7933333 140.426667,33.81 143.28,33.81 C144.585734,33.8835462 145.895314,33.7724507 147.17,33.48 C148.316667,33.0733333 148.89,32.0533333 148.89,30.42 C148.89,28.7866667 148.406667,27.6766667 147.44,27.09 C146.320279,26.6012478 145.098562,26.3919086 143.88,26.48 C142.531434,26.4879616 141.194643,26.7316298 139.93,27.2 C138.884394,27.6305789 137.777502,27.8938033 136.65,27.98 C134.463333,27.98 133.37,26.96 133.37,24.92 C133.37,22.0666667 137.093333,20.64 144.54,20.64 C148.693333,20.64 151.786667,21.2333333 153.82,22.42 C156.486667,23.94 157.82,26.6066667 157.82,30.42 C157.86112,32.9482618 156.400615,35.2607284 154.1,36.31 C157.066667,37.9033333 158.55,40.1466667 158.55,43.04 C158.55,49.56 153.883333,52.82 144.55,52.82 C136.55,52.82 132.55,51.2833333 132.55,48.21 C132.55,46.3233333 133.586667,45.38 135.66,45.38 C136.841749,45.5022708 138.001949,45.7813914 139.11,46.21 C140.850294,46.7749234 142.670374,47.0551956 144.5,47.04 C147.686667,47.04 149.28,45.7066667 149.28,43.04 C149.375759,42.0821132 149.051032,41.129824 148.39,40.43 C147.341579,39.787456 146.115303,39.4966534 144.89,39.6 C143.550893,39.6298624 142.211887,39.536132 140.89,39.32 C139.698293,39.0751533 138.883095,37.9709705 139,36.76 L139,36.76 Z" id="Shape" fill="#FFFFFF"></path>
                <path d="M183,49.21 C181.154264,51.4672226 178.353177,52.7232659 175.44,52.6 C171.49497,52.6453299 167.770754,50.7832218 165.44,47.6 C163.026521,44.5089885 161.751654,40.6808537 161.83,36.76 C161.747038,32.7613063 163.086617,28.863059 165.61,25.76 C168.004222,22.5615138 171.785087,20.7026814 175.78,20.76 C178.55785,20.6672142 181.222734,21.8630901 183,24 C183.748624,22.2992846 185.42195,21.192856 187.28,21.17 C190.246667,21.17 191.73,23.3433333 191.73,27.69 L191.73,45.79 C191.73,50.17 190.246667,52.36 187.28,52.36 C185.286667,52.3733333 183.86,51.3233333 183,49.21 Z M171.1,36.65 C171.044708,38.4177611 171.525803,40.160858 172.48,41.65 C173.434138,43.1444926 175.09724,44.0347635 176.87,44 C178.636012,44.0499333 180.297279,43.1641776 181.24,41.67 C182.163165,40.1694356 182.625611,38.4309188 182.57,36.67 C182.630093,34.924302 182.16693,33.2004978 181.24,31.72 C180.285159,30.2449233 178.626101,29.3793283 176.87,29.44 C175.117059,29.3931309 173.464354,30.2554119 172.5,31.72 C171.518286,33.1732638 171.014858,34.8968025 171.06,36.65 L171.1,36.65 Z" id="Shape" fill="#FFFFFF"></path>
                <path d="M206.86,50.27 L206.64,50.27 L206.64,58.05 C206.64,62.35 205.213333,64.5 202.36,64.5 C199.32,64.5 197.8,62.3133333 197.8,57.94 L197.8,27.7 C197.8,23.3666667 199.32,21.2 202.36,21.2 C204.205044,21.2370415 205.866982,22.3242908 206.64,24 C208.529109,21.9609947 211.223779,20.8626237 214,21 C217.963297,20.9083196 221.728942,22.7278852 224.12,25.89 C226.519947,29.0084133 227.77665,32.8561845 227.68,36.79 C227.70978,39.817992 226.962657,42.8030447 225.51,45.46 C224.134618,48.1384715 221.932355,50.3021595 219.23,51.63 C217.575426,52.4706645 215.745891,52.9092048 213.89,52.91 C211.299826,52.9352777 208.793269,51.9939816 206.86,50.27 Z M206.64,37.27 C206.564842,39.0429348 207.055106,40.7938798 208.04,42.27 C209.09192,43.7381995 210.815804,44.573794 212.62,44.49 C214.475394,44.5530527 216.222664,43.618378 217.2,42.04 C218.166767,40.4705224 218.653409,38.6525648 218.6,36.81 C218.653894,34.9980549 218.14754,33.2135929 217.15,31.7 C216.190822,30.1327922 214.466705,29.1982602 212.63,29.25 C211.044136,29.2513932 209.52332,29.8805722 208.4,31 C207.226667,32.06 206.64,34.1666667 206.64,37.32 L206.64,37.27 Z" id="Shape" fill="#FFFFFF"></path>
                <path d="M250.89,28.92 L241.11,28.92 L241.11,45.82 C241.11,50.1933333 239.626667,52.38 236.66,52.38 C233.693333,52.38 232.193333,50.19 232.16,45.81 L232.16,27.32 C232.068498,25.8479198 232.336182,24.3756584 232.94,23.03 C233.728656,21.7585553 235.170844,21.0452149 236.66,21.19 L255.28,21.19 C256.786637,21.0318978 258.244885,21.7767018 259,23.09 C259.565371,24.4249143 259.81189,25.8732115 259.72,27.32 L259.72,45.81 C259.72,50.19 258.246667,52.38 255.3,52.38 C252.353333,52.38 250.88,50.1933333 250.88,45.82 L250.89,28.92 Z" id="Shape" fill="#FFFFFF"></path>
                <path d="M284.69,28.92 L278,28.92 C277.423835,28.8262701 276.837676,29.0145936 276.423922,29.4263683 C276.010167,29.8381429 275.819035,30.4233924 275.91,31 L275.91,45.21 C276.101998,47.1641724 275.408517,49.1015935 274.020055,50.4900555 C272.631594,51.8785174 270.694172,52.5719985 268.74,52.38 C267.358382,52.4479435 265.97418,52.3165958 264.63,51.99 C263.296994,51.5315824 262.447462,50.2242917 262.57,48.82 C262.57,47.26 263.07,46.24 264.07,45.76 C265.217421,45.3098031 266.450112,45.1185824 267.68,45.2 L267.68,31 C267.68,27.3266667 268.496667,24.7633333 270.13,23.31 C271.65,21.8966667 274.263333,21.19 277.97,21.19 L289.09,21.19 C290.597893,21.0258185 292.060609,21.7669801 292.82,23.08 C293.385017,24.4150179 293.631521,25.8632309 293.54,27.31 L293.54,45.81 C293.54,50.19 292.066667,52.38 289.12,52.38 C287.582287,52.5106801 286.118899,51.695929 285.42,50.32 C284.864138,48.8878853 284.618725,47.3540566 284.7,45.82 L284.69,28.92 Z" id="Shape" fill="#FFFFFF"></path>
                <path d="M319.16,49.21 C317.314264,51.4672226 314.513177,52.7232659 311.6,52.6 C307.65497,52.6453299 303.930754,50.7832218 301.6,47.6 C299.1901,44.5076549 297.918805,40.679646 298,36.76 C297.917038,32.7613063 299.256617,28.863059 301.78,25.76 C304.174222,22.5615138 307.955087,20.7026814 311.95,20.76 C314.724384,20.6703355 317.384916,21.8659142 319.16,24 C319.910628,22.3009761 321.582722,21.1953626 323.44,21.17 C326.406667,21.17 327.89,23.3433333 327.89,27.69 L327.89,45.79 C327.89,50.17 326.406667,52.36 323.44,52.36 C321.473333,52.3733333 320.046667,51.3233333 319.16,49.21 Z M307.26,36.65 C307.204079,38.4178363 307.685224,40.1611162 308.64,41.65 C309.600183,43.1583814 311.282662,44.0508931 313.07,44 C314.836012,44.0499333 316.497279,43.1641776 317.44,41.67 C318.363165,40.1694356 318.825611,38.4309188 318.77,36.67 C318.830093,34.924302 318.36693,33.2004978 317.44,31.72 C316.485159,30.2449233 314.826101,29.3793283 313.07,29.44 C311.317059,29.3931309 309.664354,30.2554119 308.7,31.72 C307.718286,33.1732638 307.214858,34.8968025 307.26,36.65 L307.26,36.65 Z" id="Shape" fill="#FFFFFF"></path>
                <path d="M339.9,28.92 L336.06,28.92 C332.313333,28.92 330.44,27.6333333 330.44,25.06 C330.44,22.4866667 332.313333,21.2 336.06,21.2 L352.63,21.2 C356.41,21.2 358.3,22.4866667 358.3,25.06 C358.3,27.6333333 356.4,28.92 352.6,28.92 L348.74,28.92 L348.74,45.82 C348.74,50.1933333 347.266667,52.38 344.32,52.38 C341.373333,52.38 339.9,50.1933333 339.9,45.82 L339.9,28.92 Z" id="Shape" fill="#FFFFFF"></path>
                <path d="M380.37,49.21 C378.524264,51.4672226 375.723177,52.7232659 372.81,52.6 C368.86497,52.6453299 365.140754,50.7832218 362.81,47.6 C360.396521,44.5089885 359.121654,40.6808537 359.2,36.76 C359.117038,32.7613063 360.456617,28.863059 362.98,25.76 C365.374222,22.5615138 369.155087,20.7026814 373.15,20.76 C375.92785,20.6672142 378.592734,21.8630901 380.37,24 C381.118624,22.2992846 382.79195,21.192856 384.65,21.17 C387.616667,21.17 389.1,23.3433333 389.1,27.69 L389.1,45.79 C389.1,50.17 387.616667,52.36 384.65,52.36 C382.683333,52.3733333 381.256667,51.3233333 380.37,49.21 Z M368.47,36.65 C368.414708,38.4177611 368.895803,40.160858 369.85,41.65 C370.811581,43.1568672 372.493132,44.0488865 374.28,44 C376.046012,44.0499333 377.707279,43.1641776 378.65,41.67 C379.573165,40.1694356 380.035611,38.4309188 379.98,36.67 C380.040093,34.924302 379.57693,33.2004978 378.65,31.72 C377.695159,30.2449233 376.036101,29.3793283 374.28,29.44 C372.527059,29.3931309 370.874354,30.2554119 369.91,31.72 C368.928286,33.1732638 368.424858,34.8968025 368.47,36.65 Z" id="Shape" fill="#FFFFFF"></path>
            </g>
        </g>
    </g>
</svg>