<svg xmlns="http://www.w3.org/2000/svg" viewBox="0 0 301.45 31.63"><defs><style>.cls-1{fill:#63b2ce;}.cls-2{fill:#fff;}</style></defs><title>dates</title><g id="Слой_2" data-name="Слой 2"><g id="Слой_1-2" data-name="Слой 1"><path class="cls-1" d="M1.61,16A9.07,9.07,0,0,1,4,9.53,8.28,8.28,0,0,1,10.31,7a9.5,9.5,0,0,1,3.6.63A2.83,2.83,0,0,1,16,10.27a2.14,2.14,0,0,1-.59,1.53,2,2,0,0,1-1.5.63A4.33,4.33,0,0,1,12.33,12a5.26,5.26,0,0,0-2-.39A3.08,3.08,0,0,0,7.65,13a5,5,0,0,0-.84,3,4.76,4.76,0,0,0,.88,3,3.4,3.4,0,0,0,2.81,1.25,5.12,5.12,0,0,0,2-.37,4.12,4.12,0,0,1,1.5-.38,1.79,1.79,0,0,1,1.42.64,2.31,2.31,0,0,1,.55,1.55q0,1.53-2.13,2.6A8.63,8.63,0,0,1,10,25a7.81,7.81,0,0,1-6.13-2.6A9.13,9.13,0,0,1,1.61,16Z"/><path class="cls-1" d="M39.78,19.78h2.69a2.08,2.08,0,0,1,2.31,2.39,2.08,2.08,0,0,1-2.31,2.39H31.64a2.08,2.08,0,0,1-2.31-2.39,2.08,2.08,0,0,1,2.31-2.39h2.88V6.33a11,11,0,0,1-2.44-.16,1.64,1.64,0,0,1-1.25-1.79A1.75,1.75,0,0,1,31.52,3q1.88-1.6,6.1-1.6a4.74,4.74,0,0,1,1.12.09q.78.22,1,1.69a20.74,20.74,0,0,1,.06,2.19Z"/><path class="cls-1" d="M64.2,22.17q0,2.39-3.69,2.39H51.29q-3.13,0-3.13-2.41a3.68,3.68,0,0,1,1.12-2.25q1.88-2.07,3.72-4.13,2.25-2.5,3.6-4.28a6.11,6.11,0,0,0,1.5-3.38,2.31,2.31,0,0,0-.52-1.55A1.8,1.8,0,0,0,56.13,6a2.1,2.1,0,0,0-1.66.81,8.75,8.75,0,0,0-.94,1.8,8.3,8.3,0,0,1-.88,1.71,1.86,1.86,0,0,1-1.53.66,2.4,2.4,0,0,1-1.86-.77,2.74,2.74,0,0,1-.7-1.92A6.34,6.34,0,0,1,49,6.17,7.23,7.23,0,0,1,51.8,2.48a7.76,7.76,0,0,1,4.49-1.41,7.58,7.58,0,0,1,5.19,1.79,6.36,6.36,0,0,1,2.13,5q0,2.82-2.84,6.52a69.46,69.46,0,0,1-5,5.39h4.79Q64.2,19.78,64.2,22.17Z"/><path class="cls-1" d="M88.73,11.61h-5.5v9.51q0,3.69-2.5,3.69t-2.53-3.7V10.71a5.12,5.12,0,0,1,.44-2.41,2.21,2.21,0,0,1,2.1-1H91.2a2.15,2.15,0,0,1,2.1,1.06,5.26,5.26,0,0,1,.41,2.38v10.4q0,3.7-2.49,3.7t-2.49-3.69Z"/><path class="cls-1" d="M96.26,16a9.21,9.21,0,0,1,2.39-6.46,8.65,8.65,0,0,1,12.37,0A9.29,9.29,0,0,1,113.38,16a9.21,9.21,0,0,1-2.31,6.41,8.65,8.65,0,0,1-12.45,0A9.1,9.1,0,0,1,96.26,16Zm5.23-.06a5.66,5.66,0,0,0,.78,3,2.94,2.94,0,0,0,5.13,0,5.66,5.66,0,0,0,.78-3,5.27,5.27,0,0,0-.81-2.94,3,3,0,0,0-5.1,0A5.34,5.34,0,0,0,101.49,16Z"/><path class="cls-1" d="M138.59,12a6.22,6.22,0,0,1,3.82,5.82,6.83,6.83,0,0,1-2.47,5.41,8.47,8.47,0,0,1-5.69,2,9.08,9.08,0,0,1-5.32-1.66,5.54,5.54,0,0,1-2.63-4.69,2.51,2.51,0,0,1,.69-1.69,2.07,2.07,0,0,1,1.6-.78,2.4,2.4,0,0,1,1.85,1l1.47,1.91a3.24,3.24,0,0,0,2.41,1,2.54,2.54,0,0,0,2-.86,3,3,0,0,0,.77-2.08,2.19,2.19,0,0,0-1-2,7.26,7.26,0,0,0-2.28-.66,2.22,2.22,0,0,1-2.16-2.31,2.1,2.1,0,0,1,.56-1.6,3.48,3.48,0,0,1,1.59-.69q2.41-.56,2.41-2.35,0-2-1.88-2a3.67,3.67,0,0,0-2.31.75s-.49.48-1.34,1.38a2,2,0,0,1-3,.11A2.13,2.13,0,0,1,127,6.54a3.8,3.8,0,0,1,.59-1.94A6.57,6.57,0,0,1,130.52,2a8.49,8.49,0,0,1,3.85-.94,7.14,7.14,0,0,1,4.82,1.75,5.67,5.67,0,0,1,2,4.5A5.64,5.64,0,0,1,138.59,12Z"/><path class="cls-1" d="M156.57,19.78h2.69a2.08,2.08,0,0,1,2.31,2.39,2.08,2.08,0,0,1-2.31,2.39H148.44a2.08,2.08,0,0,1-2.31-2.39,2.08,2.08,0,0,1,2.31-2.39h2.88V6.33a11,11,0,0,1-2.44-.16,1.64,1.64,0,0,1-1.25-1.79A1.75,1.75,0,0,1,148.31,3q1.88-1.6,6.1-1.6a4.75,4.75,0,0,1,1.13.09q.78.22,1,1.69a20.74,20.74,0,0,1,.06,2.19Z"/><path class="cls-1" d="M189.29,24.56H177.78q0,2.19-.06,2.53a1.57,1.57,0,0,1-1.63,1.5q-2.35,0-2.35-2.47V22.9q0-1.6.75-1.94.66-.15,1.35-.28.75-.34.75-1.91V12.39a4.91,4.91,0,0,1,1.5-4,6.78,6.78,0,0,1,4.25-1.09h6.29a2.15,2.15,0,0,1,2.1,1.06,5.24,5.24,0,0,1,.41,2.38v10.1A1.92,1.92,0,0,1,193.32,23v3.16q0,2.47-2.35,2.47-1.31,0-1.59-1.53A17.73,17.73,0,0,1,189.29,24.56Zm-8.57-3.75h5.44V11.3h-3.78a1,1,0,0,0-1.16,1.16v6.32A4.77,4.77,0,0,1,180.72,20.81Z"/><path class="cls-1" d="M199.49,17.43a3.06,3.06,0,0,0,1.22,2.25,4.27,4.27,0,0,0,2.6.78,7.75,7.75,0,0,0,3.1-.83,8.54,8.54,0,0,1,2.25-.83,1.76,1.76,0,0,1,2,2,2.49,2.49,0,0,1-.56,1.5,6.16,6.16,0,0,1-3.19,2.1,11.89,11.89,0,0,1-3.85.63,8.36,8.36,0,0,1-6.26-2.58,8.79,8.79,0,0,1-2.5-6.37,9.25,9.25,0,0,1,2.39-6.41A7.86,7.86,0,0,1,202.8,7a8,8,0,0,1,3.35.69,8.73,8.73,0,0,1,3.53,3,7.33,7.33,0,0,1,1.38,4.29,2.21,2.21,0,0,1-.91,1.91,3.32,3.32,0,0,1-2.06.6Zm-.06-3.32h6.66a3.12,3.12,0,0,0-1-2.16,3.43,3.43,0,0,0-4.49,0A3.8,3.8,0,0,0,199.42,14.11Z"/><path class="cls-1" d="M219.13,17.52l-.75.57v3q0,3.71-2.5,3.71t-2.53-3.7V11q0-3.7,2.53-3.7,1.91,0,2.35,2.16a23.17,23.17,0,0,1,.16,3.63l4.32-4.42a3.78,3.78,0,0,1,2.6-1.37,2.25,2.25,0,0,1,1.5.53,1.76,1.76,0,0,1,.62,1.41,3.38,3.38,0,0,1-1.28,2.44l-3.41,3.16,4.72,5.54a3.8,3.8,0,0,1,1,2.47,1.72,1.72,0,0,1-.74,1.45,2.68,2.68,0,0,1-1.64.55,3.24,3.24,0,0,1-2.63-1.51Z"/><path class="cls-1" d="M241,23a5.21,5.21,0,0,1-4.25,1.91,6.87,6.87,0,0,1-5.63-2.82,9.59,9.59,0,0,1-2-6.1,9.5,9.5,0,0,1,2.13-6.16A7,7,0,0,1,236.9,7,5.06,5.06,0,0,1,241,8.86a2.67,2.67,0,0,1,2.41-1.59q2.5,0,2.5,3.67V21.11q0,3.7-2.5,3.7A2.52,2.52,0,0,1,241,23ZM234.27,16a4.93,4.93,0,0,0,.78,2.82,2.86,2.86,0,0,0,2.49,1.31A2.79,2.79,0,0,0,240,18.78a5.09,5.09,0,0,0,.75-2.82,4.93,4.93,0,0,0-.75-2.78,2.81,2.81,0,0,0-2.46-1.28,2.86,2.86,0,0,0-2.46,1.28A4.74,4.74,0,0,0,234.27,16Z"/><path class="cls-1" d="M248.72,16v-2.5q0-9.73,4.6-11.07A23.46,23.46,0,0,1,258.79,2a4.78,4.78,0,0,0,2-.23.69.69,0,0,0,.33-.58q0-.47.72-.78A3,3,0,0,1,263,.16q1.66,0,1.66,2.6a2.32,2.32,0,0,1-1,1.85,4.29,4.29,0,0,1-2,.84,8.73,8.73,0,0,1-1.74.16h-3.33a2.9,2.9,0,0,0-2.55,1.28,4.2,4.2,0,0,0-.6,2.35h.09a6.32,6.32,0,0,1,4-1.22,6.81,6.81,0,0,1,5.6,2.38A9.26,9.26,0,0,1,265,16.34a9.09,9.09,0,0,1-2.13,6.35,7.81,7.81,0,0,1-6.1,2.35,7.34,7.34,0,0,1-6.07-2.6A9.87,9.87,0,0,1,248.72,16Zm4.82.28q0,4.35,3.22,4.35a3.07,3.07,0,0,0,2.3-1,4.87,4.87,0,0,0,.92-3.39q0-4.1-3.22-4.1a2.78,2.78,0,0,0-2.47,1.28A5,5,0,0,0,253.54,16.27Z"/><path class="cls-1" d="M272.61,23.62h-.13V28q0,3.63-2.41,3.63-2.57,0-2.56-3.69v-17q0-3.66,2.56-3.66a2.71,2.71,0,0,1,2.41,1.59,5.3,5.3,0,0,1,4.16-1.72,6.94,6.94,0,0,1,5.69,2.75,9.67,9.67,0,0,1,2,6.13,10,10,0,0,1-1.22,4.88,7.9,7.9,0,0,1-3.53,3.47,6.63,6.63,0,0,1-3,.72A5.86,5.86,0,0,1,272.61,23.62Zm-.13-7.29a4.71,4.71,0,0,0,.79,2.81,3,3,0,0,0,2.58,1.25A2.91,2.91,0,0,0,278.43,19a5.31,5.31,0,0,0,.79-2.94,5,5,0,0,0-.82-2.88,2.89,2.89,0,0,0-2.54-1.38,3.36,3.36,0,0,0-2.37.92Q272.49,13.68,272.49,16.34Z"/><path class="cls-1" d="M296.42,17.65h-1.13l-4.57,6a3.64,3.64,0,0,1-.91.91,2.49,2.49,0,0,1-1.28.28,2.12,2.12,0,0,1-1.61-.64,1.81,1.81,0,0,1-.61-1.18,3,3,0,0,1,.78-2l3.19-3.67q-3.88-.81-3.88-4.89,0-5.2,7.19-5.2h5a2.88,2.88,0,0,1,2.34.78,4.21,4.21,0,0,1,.53,2.47v11q0,3.29-2.53,3.29a2.15,2.15,0,0,1-1.94-1,4.13,4.13,0,0,1-.56-2.26Zm0-3.25V10.52h-2q-2.86,0-2.86,1.94t2.86,1.94Z"/><path class="cls-2" d="M0,15.86A9.07,9.07,0,0,1,2.38,9.37,8.28,8.28,0,0,1,8.7,6.85a9.5,9.5,0,0,1,3.6.63,2.83,2.83,0,0,1,2.06,2.63,2.14,2.14,0,0,1-.59,1.53,2,2,0,0,1-1.5.63,4.33,4.33,0,0,1-1.55-.39,5.26,5.26,0,0,0-2-.39A3.08,3.08,0,0,0,6,12.79a5,5,0,0,0-.84,3,4.76,4.76,0,0,0,.88,3A3.4,3.4,0,0,0,8.88,20a5.12,5.12,0,0,0,2-.37,4.12,4.12,0,0,1,1.5-.38,1.79,1.79,0,0,1,1.42.64,2.31,2.31,0,0,1,.55,1.55q0,1.53-2.13,2.6a8.63,8.63,0,0,1-3.82.75,7.81,7.81,0,0,1-6.13-2.6A9.13,9.13,0,0,1,0,15.86Z"/><path class="cls-2" d="M38.16,19.61h2.69A2.08,2.08,0,0,1,43.16,22a2.08,2.08,0,0,1-2.31,2.39H30A2.08,2.08,0,0,1,27.71,22,2.08,2.08,0,0,1,30,19.61h2.88V6.17A11,11,0,0,1,30.47,6a1.64,1.64,0,0,1-1.25-1.79,1.75,1.75,0,0,1,.69-1.35q1.88-1.6,6.1-1.6a4.74,4.74,0,0,1,1.12.09q.78.22,1,1.69a20.74,20.74,0,0,1,.06,2.19Z"/><path class="cls-2" d="M62.59,22q0,2.39-3.69,2.39H49.67q-3.13,0-3.13-2.41a3.68,3.68,0,0,1,1.12-2.25q1.88-2.07,3.72-4.13,2.25-2.5,3.6-4.28a6.11,6.11,0,0,0,1.5-3.38A2.31,2.31,0,0,0,56,6.4a1.8,1.8,0,0,0-1.45-.61,2.1,2.1,0,0,0-1.66.81,8.75,8.75,0,0,0-.94,1.8A8.3,8.3,0,0,1,51,10.1a1.86,1.86,0,0,1-1.53.66A2.4,2.4,0,0,1,47.65,10,2.74,2.74,0,0,1,47,8.07,6.34,6.34,0,0,1,47.36,6a7.23,7.23,0,0,1,2.83-3.69A7.76,7.76,0,0,1,54.68.91a7.58,7.58,0,0,1,5.19,1.79,6.36,6.36,0,0,1,2.13,5q0,2.82-2.84,6.52a69.46,69.46,0,0,1-5,5.39H58.9Q62.59,19.61,62.59,22Z"/><path class="cls-2" d="M87.11,11.45h-5.5V21q0,3.69-2.5,3.69t-2.53-3.7V10.55A5.12,5.12,0,0,1,77,8.13a2.21,2.21,0,0,1,2.1-1H89.58a2.15,2.15,0,0,1,2.1,1.06,5.26,5.26,0,0,1,.41,2.38v10.4q0,3.7-2.49,3.7T87.11,21Z"/><path class="cls-2" d="M94.65,15.86A9.21,9.21,0,0,1,97,9.4a8.65,8.65,0,0,1,12.37,0,9.29,9.29,0,0,1,2.35,6.47,9.21,9.21,0,0,1-2.31,6.41,8.65,8.65,0,0,1-12.45,0A9.1,9.1,0,0,1,94.65,15.86Zm5.23-.06a5.66,5.66,0,0,0,.78,3,2.94,2.94,0,0,0,5.13,0,5.66,5.66,0,0,0,.78-3,5.27,5.27,0,0,0-.81-2.94,3,3,0,0,0-5.1,0A5.34,5.34,0,0,0,99.88,15.8Z"/><path class="cls-2" d="M137,11.85a6.22,6.22,0,0,1,3.82,5.82,6.83,6.83,0,0,1-2.47,5.41,8.47,8.47,0,0,1-5.69,2,9.08,9.08,0,0,1-5.32-1.66,5.54,5.54,0,0,1-2.63-4.69,2.51,2.51,0,0,1,.69-1.69,2.07,2.07,0,0,1,1.6-.78,2.4,2.4,0,0,1,1.85,1l1.47,1.91a3.24,3.24,0,0,0,2.41,1,2.54,2.54,0,0,0,2-.86,3,3,0,0,0,.77-2.08,2.19,2.19,0,0,0-1-2,7.26,7.26,0,0,0-2.28-.66A2.22,2.22,0,0,1,130,12.29a2.1,2.1,0,0,1,.56-1.6,3.48,3.48,0,0,1,1.59-.69q2.41-.56,2.41-2.35,0-2-1.88-2a3.67,3.67,0,0,0-2.31.75s-.49.48-1.34,1.38a2,2,0,0,1-3,.11,2.13,2.13,0,0,1-.63-1.55A3.8,3.8,0,0,1,126,4.44a6.57,6.57,0,0,1,2.94-2.6,8.49,8.49,0,0,1,3.85-.94,7.14,7.14,0,0,1,4.82,1.75,5.67,5.67,0,0,1,2,4.5A5.64,5.64,0,0,1,137,11.85Z"/><path class="cls-2" d="M155,19.61h2.69A2.08,2.08,0,0,1,160,22a2.08,2.08,0,0,1-2.31,2.39H146.82A2.08,2.08,0,0,1,144.51,22a2.08,2.08,0,0,1,2.31-2.39h2.88V6.17A11,11,0,0,1,147.26,6,1.64,1.64,0,0,1,146,4.23a1.75,1.75,0,0,1,.69-1.35q1.88-1.6,6.1-1.6a4.75,4.75,0,0,1,1.13.09q.78.22,1,1.69A20.74,20.74,0,0,1,155,5.26Z"/><path class="cls-2" d="M187.67,24.4H176.17q0,2.19-.06,2.53a1.57,1.57,0,0,1-1.63,1.5q-2.35,0-2.35-2.47V22.74q0-1.6.75-1.94.66-.15,1.35-.28.75-.34.75-1.91V12.23a4.91,4.91,0,0,1,1.5-4,6.78,6.78,0,0,1,4.25-1.09H187a2.15,2.15,0,0,1,2.1,1.06,5.24,5.24,0,0,1,.41,2.38v10.1a1.92,1.92,0,0,1,2.19,2.16V26q0,2.47-2.35,2.47-1.31,0-1.59-1.53A17.73,17.73,0,0,1,187.67,24.4Zm-8.57-3.75h5.44V11.14h-3.78a1,1,0,0,0-1.16,1.16v6.32A4.77,4.77,0,0,1,179.1,20.64Z"/><path class="cls-2" d="M197.87,17.27a3.06,3.06,0,0,0,1.22,2.25,4.27,4.27,0,0,0,2.6.78,7.75,7.75,0,0,0,3.1-.83,8.54,8.54,0,0,1,2.25-.83,1.76,1.76,0,0,1,2,2,2.49,2.49,0,0,1-.56,1.5,6.16,6.16,0,0,1-3.19,2.1,11.89,11.89,0,0,1-3.85.63,8.36,8.36,0,0,1-6.26-2.58,8.79,8.79,0,0,1-2.5-6.37,9.25,9.25,0,0,1,2.39-6.41,7.86,7.86,0,0,1,6.11-2.66,8,8,0,0,1,3.35.69,8.73,8.73,0,0,1,3.53,3,7.33,7.33,0,0,1,1.38,4.29,2.21,2.21,0,0,1-.91,1.91,3.32,3.32,0,0,1-2.06.6Zm-.06-3.32h6.66a3.12,3.12,0,0,0-1-2.16,3.43,3.43,0,0,0-4.49,0A3.8,3.8,0,0,0,197.81,13.95Z"/><path class="cls-2" d="M217.51,17.36l-.75.57v3q0,3.71-2.5,3.71t-2.53-3.7V10.8q0-3.7,2.53-3.7,1.91,0,2.35,2.16a23.17,23.17,0,0,1,.16,3.63l4.32-4.42a3.78,3.78,0,0,1,2.6-1.37,2.25,2.25,0,0,1,1.5.53A1.76,1.76,0,0,1,225.8,9a3.38,3.38,0,0,1-1.28,2.44l-3.41,3.16,4.72,5.54a3.8,3.8,0,0,1,1,2.47,1.72,1.72,0,0,1-.74,1.45,2.68,2.68,0,0,1-1.64.55,3.24,3.24,0,0,1-2.63-1.51Z"/><path class="cls-2" d="M239.35,22.86a5.21,5.21,0,0,1-4.25,1.91A6.87,6.87,0,0,1,229.46,22a9.59,9.59,0,0,1-2-6.1,9.5,9.5,0,0,1,2.13-6.16,7,7,0,0,1,5.72-2.81,5.06,5.06,0,0,1,4.07,1.81,2.67,2.67,0,0,1,2.41-1.59q2.5,0,2.5,3.67V20.95q0,3.7-2.5,3.7A2.52,2.52,0,0,1,239.35,22.86Zm-6.69-7.07a4.93,4.93,0,0,0,.78,2.82,2.86,2.86,0,0,0,2.49,1.31,2.79,2.79,0,0,0,2.46-1.31,5.09,5.09,0,0,0,.75-2.82,4.93,4.93,0,0,0-.75-2.78,2.81,2.81,0,0,0-2.46-1.28A2.86,2.86,0,0,0,233.46,13,4.74,4.74,0,0,0,232.65,15.8Z"/><path class="cls-2" d="M247.1,15.83v-2.5q0-9.73,4.6-11.07a23.46,23.46,0,0,1,5.47-.41,4.78,4.78,0,0,0,2-.23.69.69,0,0,0,.33-.58q0-.47.72-.78A3,3,0,0,1,261.4,0q1.66,0,1.66,2.6a2.32,2.32,0,0,1-1,1.85,4.29,4.29,0,0,1-2,.84,8.73,8.73,0,0,1-1.74.16h-3.33a2.9,2.9,0,0,0-2.55,1.28,4.2,4.2,0,0,0-.6,2.35H252a6.32,6.32,0,0,1,4-1.22,6.81,6.81,0,0,1,5.6,2.38,9.26,9.26,0,0,1,1.75,5.94,9.09,9.09,0,0,1-2.13,6.35,7.81,7.81,0,0,1-6.1,2.35,7.34,7.34,0,0,1-6.07-2.6A9.87,9.87,0,0,1,247.1,15.83Zm4.82.28q0,4.35,3.22,4.35a3.07,3.07,0,0,0,2.3-1,4.87,4.87,0,0,0,.92-3.39q0-4.1-3.22-4.1a2.78,2.78,0,0,0-2.47,1.28A5,5,0,0,0,251.92,16.11Z"/><path class="cls-2" d="M271,23.46h-.13v4.38q0,3.63-2.41,3.63-2.57,0-2.56-3.69v-17q0-3.66,2.56-3.66a2.71,2.71,0,0,1,2.41,1.59A5.3,5.3,0,0,1,275,7a6.94,6.94,0,0,1,5.69,2.75,9.67,9.67,0,0,1,2,6.13,10,10,0,0,1-1.22,4.88A7.9,7.9,0,0,1,278,24.21a6.63,6.63,0,0,1-3,.72A5.86,5.86,0,0,1,271,23.46Zm-.13-7.29a4.71,4.71,0,0,0,.79,2.81,3,3,0,0,0,2.58,1.25,2.91,2.91,0,0,0,2.58-1.38,5.31,5.31,0,0,0,.79-2.94,5,5,0,0,0-.82-2.88,2.89,2.89,0,0,0-2.54-1.38,3.36,3.36,0,0,0-2.37.92Q270.88,13.51,270.88,16.17Z"/><path class="cls-2" d="M294.81,17.48h-1.13l-4.57,6a3.64,3.64,0,0,1-.91.91,2.49,2.49,0,0,1-1.28.28,2.12,2.12,0,0,1-1.61-.64,1.81,1.81,0,0,1-.61-1.18,3,3,0,0,1,.78-2l3.19-3.67q-3.88-.81-3.88-4.89,0-5.2,7.19-5.2h5a2.88,2.88,0,0,1,2.34.78,4.21,4.21,0,0,1,.53,2.47v11q0,3.29-2.53,3.29a2.15,2.15,0,0,1-1.94-1,4.13,4.13,0,0,1-.56-2.26Zm0-3.25V10.35h-2q-2.86,0-2.86,1.94t2.86,1.94Z"/></g></g></svg>