
<svg width="94px"
    height="43px"
    version="1.1" 
    xmlns="http://www.w3.org/2000/svg" 
    xmlns:xlink="http://www.w3.org/1999/xlink">
    <g id="Group" stroke="none" stroke-width="1" fill="none" fill-rule="evenodd" transform="scale(0.285)">

        <circle id="Oval1" fill="#603E54" cx="89.5" cy="73.5" r="50"></circle>
        <circle id="Oval2" fill="#ED6EA0" cx="89.5" cy="73.5" r="40"></circle>
        <circle id="Oval3" fill="#E3077B" cx="89.5" cy="73.5" r="30"></circle>
        <circle id="Oval4" fill="#FFFFFF" cx="89.5" cy="73.5" r="22"></circle>
      
        <circle id="Oval11" fill="#77A2D6" cx="247.5" cy="73.5" r="50"></circle>
        <circle id="Oval22" fill="#3969B1" cx="247.5" cy="73.5" r="40"></circle>
        <circle id="Oval33" fill="#3054A1" cx="247.5" cy="73.5" r="30"></circle>
        <circle id="Oval44" fill="#FFFFFF" cx="247.5" cy="73.5" r="22"></circle>
        
      <path d="M97.5007018,59.7474419 L97.5007018,42.1660465 C97.4847095,39.5510174 95.3690509,37.4350643 92.754386,37.4190698 L83.9649123,37.4190698 C81.3274135,37.4190698 79.1892982,39.5574827 79.1892982,42.1953488 L79.1892982,59.7767442 C84.7313734,55.9340357 92.0758196,55.9340357 97.6178947,59.7767442 L97.5007018,59.7474419 Z" id="Shape" fill="#CE4369"></path>
        <path d="M95.3576316,55.5125205 L95.3576316,42.7074042 C95.3576316,42.2178022 95.1631651,41.7482531 94.8170124,41.4020522 C94.4708597,41.0558513 94.0013759,40.8613577 93.5118421,40.8613577 L84.7516667,40.8613577 C83.7322653,40.8613577 82.9058772,41.6878609 82.9058772,42.7074042 L82.9058772,55.5125205 C86.9856388,54.0946135 91.4243612,54.0946135 95.5041228,55.5125205 L95.3576316,55.5125205 Z M76.9290351,58.8236833 L76.9290351,42.7074042 C76.9287964,40.6430394 77.7566845,38.6648839 79.227181,37.2162156 C80.6976775,35.7675473 82.687828,34.9694954 84.7516667,35.0008926 L93.5411404,35.0008926 C95.5847498,35.0008926 97.5446582,35.8128263 98.9897083,37.2580776 C100.434758,38.7033289 101.246579,40.6635102 101.246579,42.7074042 L101.246579,58.8236833 C101.715351,59.2143809 102.174357,59.6246135 102.623597,60.0543809 C110.07246,67.5193774 110.064304,79.6090364 102.605375,87.0639725 C95.1464454,94.5189087 83.058467,94.5189087 75.5995377,87.0639725 C68.1406084,79.6090364 68.1324521,67.5193774 75.5813158,60.0543809 C76.0110234,59.6246135 76.4700293,59.2143809 76.9583334,58.8236833 L76.9290351,58.8236833 Z" id="Shape" fill="#FFFFFF"></path>
        <path d="M331.304561,2.3715913e-15 L266.379649,2.3715913e-15 C260.693377,-0.00033196934 255.241707,2.26711943 251.232456,6.3 C249.929636,7.59649215 248.797408,9.05382329 247.863158,10.6367442 C246.930981,9.04353686 245.798675,7.57625806 244.49386,6.27069767 C240.486962,2.25576204 235.047865,-0.000301610594 229.375965,0 L107.788246,0 C102.101974,-0.00033196934 96.6503033,2.26711943 92.6410526,6.3 C91.3362372,7.60556038 90.2039313,9.07283919 89.2717544,10.6660465 C88.3395774,9.07283919 87.2072716,7.60556038 85.9024561,6.3 C81.9003684,2.27431475 76.4606763,0.00746074503 70.7845614,2.3715913e-15 L0,2.3715913e-15 L0,5.86046512 L70.7845614,5.86046512 C79.3861525,5.87659035 86.3551051,12.8465134 86.3712281,21.4493023 L86.3712281,37.4190698 C86.3712281,39.0373925 87.6829552,40.3493023 89.3010526,40.3493023 C90.9191501,40.3493023 92.2308772,39.0373925 92.2308772,37.4190698 L92.2308772,21.42 L92.2308772,21.42 C92.2630077,12.8400522 99.2094924,5.89260009 107.788246,5.86046512 L229.375965,5.86046512 C237.954718,5.89260009 244.901203,12.8400522 244.933333,21.42 L244.933333,37.3897674 C244.933333,39.0080902 246.24506,40.32 247.863158,40.32 C249.481255,40.32 250.792982,39.0080902 250.792982,37.3897674 L250.792982,21.42 C250.825201,12.8286565 257.789456,5.87652365 266.379649,5.86046512 L331.304561,5.86046512 L331.304561,2.3715913e-15 Z" id="Shape" fill="#FFFFFF"></path>
        <path d="M256.194211,58.3283721 L256.194211,40.7469767 C256.179652,38.1766617 254.133878,36.078804 251.565088,36 L242.775614,36 C240.138115,36 238,38.138413 238,40.7762791 L238,58.3576744 C243.542075,54.5149659 250.886521,54.5149659 256.428596,58.3576744 L256.194211,58.3283721 Z" id="Shape" fill="#95D1D0"></path>
        <path d="M253.504123,54.5116279 L253.504123,41.7065116 C253.504123,41.2169097 253.309656,40.7473605 252.963504,40.4011596 C252.617351,40.0549587 252.147867,39.8604651 251.658333,39.8604651 L242.86886,39.8604651 C241.849458,39.8604651 241.02307,40.6869683 241.02307,41.7065116 L241.02307,54.5116279 C245.102832,53.0937209 249.541554,53.0937209 253.621316,54.5116279 L253.504123,54.5116279 Z M235.046228,57.8227907 L235.046228,41.7065116 C235.046228,37.4503228 238.49607,34 242.751667,34 L251.54114,34 C253.58475,34 255.544658,34.8119337 256.989708,36.257185 C258.434758,37.7024363 259.246579,39.6626177 259.246579,41.7065116 L259.246579,57.8227907 C259.715351,58.2134884 260.174357,58.6237209 260.623597,59.0534884 C268.07246,66.5184848 268.064304,78.6081438 260.605375,86.06308 C253.146445,93.5180162 241.058467,93.5180162 233.599538,86.06308 C226.140608,78.6081438 226.132452,66.5184848 233.581316,59.0534884 C234.011023,58.6237209 234.470029,58.2134884 234.958333,57.8227907 L235.046228,57.8227907 Z" id="Shape" fill="#FFFFFF"></path>
    </g>
  
<animate xlink:href="#Oval1" attributeName="r" from="50" to="70" dur="1.5s" begin="0s" repeatCount="indefinite"/>
<animate xlink:href="#Oval2" attributeName="r" from="40" to="50" dur="1.5s" begin="0s" repeatCount="indefinite" fill="freeze" />
<animate xlink:href="#Oval3" attributeName="r" from="30" to="40" dur="1.5s" begin="0s" repeatCount="indefinite" fill="freeze" />
<animate xlink:href="#Oval4" attributeName="r" from="20" to="30" dur="1.5s" begin="0s" repeatCount="indefinite" fill="freeze" />

<animate xlink:href="#Oval11" attributeName="r" from="50" to="70" dur="1.5s" begin="0s" repeatCount="indefinite"/>
<animate xlink:href="#Oval22" attributeName="r" from="40" to="50" dur="1.5s" begin="0s" repeatCount="indefinite" fill="freeze" />
<animate xlink:href="#Oval33" attributeName="r" from="30" to="40" dur="1.5s" begin="0s" repeatCount="indefinite" fill="freeze" />
<animate xlink:href="#Oval44" attributeName="r" from="20" to="30" dur="1.5s" begin="0s" repeatCount="indefinite" fill="freeze" />
  
<animate xlink:href="#Oval1" attributeName="opacity" from="1" to="0" dur="1.5s" begin="0s" repeatCount="indefinite" fill="freeze" />
<animate xlink:href="#Oval11" attributeName="opacity" from="1" to="0" dur="1.5s" begin="0s" repeatCount="indefinite" fill="freeze" />
  
<animate xlink:href="#Oval1" attributeName="fill" from="#603E54" to="#E3077B" dur="1.5s" begin="0s" repeatCount="indefinite" fill="freeze" />
<animate xlink:href="#Oval2" attributeName="fill" from="#ED6EA0" to="#703E54" dur="1.5s" begin="0s" repeatCount="indefinite" fill="freeze" />
<animate xlink:href="#Oval3" attributeName="fill" from="#E3077B" to="#ED6EA0" dur="1.5s" begin="0s" repeatCount="indefinite" fill="freeze" /> 
<animate xlink:href="#Oval4" attributeName="fill" from="#FFFFFF" to="#E3077B" dur="1.5s" begin="0s" repeatCount="indefinite" fill="freeze" /> 
  
<animate xlink:href="#Oval11" attributeName="fill" from="#77A2D6" to="#3054A1" dur="1.5s" begin="0s" repeatCount="indefinite" fill="freeze" />
<animate xlink:href="#Oval22" attributeName="fill" from="#3969B1" to="#77A2D6" dur="1.5s" begin="0s" repeatCount="indefinite" fill="freeze" />
<animate xlink:href="#Oval33" attributeName="fill" from="#3054A1" to="#3969B1" dur="1.5s" begin="0s" repeatCount="indefinite" fill="freeze" /> 
<animate xlink:href="#Oval44" attributeName="fill" from="#FFFFFF" to="#3054A1" dur="1.5s" begin="0s" repeatCount="indefinite" fill="freeze" /> 
  
</svg>