<svg id="Слой_1" data-name="Слой 1" xmlns="http://www.w3.org/2000/svg" viewBox="0 0 288.11 99.51"><defs><style>.cls-1{fill:#e3077b;}.cls-2{fill:#fff;}</style></defs><title>v2</title><g id="Слой_2" data-name="Слой 2"><g id="Слой_1-2" data-name="Слой 1-2"><path class="cls-1" d="M73.39,102.88q-6.26,0-6.26-7.09V72.14q0-7,6.26-7h9.8a23.21,23.21,0,0,1,10.88,2q4.73,2.56,4.73,9.26a7.74,7.74,0,0,1-4.52,7.15,9,9,0,0,1,5.61,8.17A9.51,9.51,0,0,1,94.82,101a25.23,25.23,0,0,1-11.16,1.9H73.39Zm4.67-30.74v8.34h4.38a8.34,8.34,0,0,0,3.86-.67,3.65,3.65,0,0,0,1.63-3.44q0-4.17-5.88-4.17Zm0,15.33v8.34h4.38q6.26,0,6.26-4.17a3.61,3.61,0,0,0-2-3.59,10.78,10.78,0,0,0-4.17-.6Z" transform="translate(-58.72 -51.08)"/><path class="cls-1" d="M116.55,80a94.33,94.33,0,0,1,11.68.4q7.36,1.15,9,6.09a15.2,15.2,0,0,1,.67,4.8q0,6.76-4.8,9.32a24.56,24.56,0,0,1-11,1.9H111.9q-6.26,0-6.26-7.09V72.14q0-7,5.46-7t5.4,7Zm0,7.09v8.34H121q6.26,0,6.26-4.17a3.59,3.59,0,0,0-2-3.59,10.86,10.86,0,0,0-4.3-.6ZM153.75,73V95.39a10.43,10.43,0,0,1-.94,5.07,5.75,5.75,0,0,1-8.86,0,10.43,10.43,0,0,1-.92-5.07V73q0-7.9,5.36-7.9T153.75,73Z" transform="translate(-58.72 -51.08)"/><path class="cls-1" d="M172.08,85.18L185.17,73a13.49,13.49,0,0,1,.81-5.46,5.55,5.55,0,0,1,9.2,0A13.55,13.55,0,0,1,196,73V95a13.66,13.66,0,0,1-.81,5.48,5.4,5.4,0,0,1-9.13,0,13.72,13.72,0,0,1-.81-5.48V84.3L172.1,95a13.89,13.89,0,0,1-.81,5.48,4.59,4.59,0,0,1-4.55,2.5q-5.55,0-5.55-8V73a12.7,12.7,0,0,1,.9-5.42,4.75,4.75,0,0,1,4.67-2.5,4.59,4.59,0,0,1,4.5,2.44,13.55,13.55,0,0,1,.81,5.46V85.18Z" transform="translate(-58.72 -51.08)"/><path class="cls-1" d="M202.06,95V73q0-7.92,5.46-7.92h11.28q6.88,0,6.88,4.69t-6.86,4.73h-5.88V95.08q0,8-5.4,8T202.06,95Z" transform="translate(-58.72 -51.08)"/><path class="cls-1" d="M239.55,100.46h-0.31V110q0,7.84-5.19,7.84-5.55,0-5.55-8V73q0-7.9,5.55-7.9a5.86,5.86,0,0,1,5.19,3.44,11.43,11.43,0,0,1,9-3.71,15,15,0,0,1,12.3,5.94A20.85,20.85,0,0,1,264.85,84a21.54,21.54,0,0,1-2.67,10.55,17.08,17.08,0,0,1-7.63,7.51,14.3,14.3,0,0,1-6.48,1.54A12.66,12.66,0,0,1,239.55,100.46Zm-0.31-15.74a10.15,10.15,0,0,0,1.69,6.09,6.48,6.48,0,0,0,5.57,2.71,6.26,6.26,0,0,0,5.57-3,11.49,11.49,0,0,0,1.69-6.26A10.74,10.74,0,0,0,252,78a6.26,6.26,0,0,0-5.5-3,7.26,7.26,0,0,0-5.13,2.09Q239.24,79,239.24,84.72Z" transform="translate(-58.72 -51.08)"/><path class="cls-1" d="M294,99.17a11.26,11.26,0,0,1-9.2,4.17,14.85,14.85,0,0,1-12.22-6.13,21.76,21.76,0,0,1,.19-26.48,15.16,15.16,0,0,1,12.37-6.09,10.93,10.93,0,0,1,8.78,3.92,5.76,5.76,0,0,1,5.19-3.44q5.4,0,5.4,7.92V95q0,8-5.4,8A5.44,5.44,0,0,1,294,99.17ZM279.57,83.9A10.63,10.63,0,0,0,281.26,90a6.26,6.26,0,0,0,5.38,2.84A6,6,0,0,0,292,90a11,11,0,0,0,1.61-6.09,10.66,10.66,0,0,0-1.61-6,6.07,6.07,0,0,0-5.32-2.77,6.26,6.26,0,0,0-5.32,2.77,10.24,10.24,0,0,0-1.77,6h0Z" transform="translate(-58.72 -51.08)"/><path class="cls-1" d="M312.05,95V73a12.7,12.7,0,0,1,.88-5.42,4.75,4.75,0,0,1,4.67-2.5,4.59,4.59,0,0,1,4.52,2.44,13.55,13.55,0,0,1,.81,5.46V85.18L336,68.49a7.17,7.17,0,0,1,5.38-3.38A4.65,4.65,0,0,1,346,67.56a13.55,13.55,0,0,1,.81,5.48V95a13.66,13.66,0,0,1-.81,5.48,5.4,5.4,0,0,1-9.13,0,13.72,13.72,0,0,1-.81-5.48V83.84L322.92,99.71a7.49,7.49,0,0,1-5.36,3.32Q312,103,312.05,95Zm17.41-33a11.76,11.76,0,0,1-7.57-2.36,6.11,6.11,0,0,1-2.77-4.8q0-3.44,3.23-3.44a3.92,3.92,0,0,1,3.21,2.09,4.44,4.44,0,0,0,3.88,2.09,4.32,4.32,0,0,0,3.92-2.09,3.63,3.63,0,0,1,3-2.09q3.32,0,3.32,3.44a6.13,6.13,0,0,1-3.59,5.46A13.28,13.28,0,0,1,329.47,62Z" transform="translate(-58.72 -51.08)"/><path class="cls-1" d="M77.14,143.15H65.33q0,2.25-.06,2.6a1.61,1.61,0,0,1-1.67,1.54h0q-2.41,0-2.41-2.54v-3.3q0-1.64.77-2,0.67-.16,1.38-0.29,0.77-.36.77-2v-6.53a5,5,0,0,1,1.55-4.14A6.94,6.94,0,0,1,70,125.4h6.45a2.21,2.21,0,0,1,2.15,1.09,5.36,5.36,0,0,1,.41,2.39V139.3a2,2,0,0,1,2.25,2.22v3.22q0,2.54-2.41,2.54a1.61,1.61,0,0,1-1.64-1.58A18.2,18.2,0,0,1,77.14,143.15Zm-8.8-3.86h5.59v-9.76H70.06a1.05,1.05,0,0,0-1.2,1.19v6.48a4.9,4.9,0,0,1-.52,2.09h0Z" transform="translate(-58.72 -51.08)"/><path class="cls-1" d="M82.28,134.38a9.46,9.46,0,0,1,2.46-6.63,8.92,8.92,0,0,1,12.62-.08l0.08,0.08a10.33,10.33,0,0,1,0,13.22,8.92,8.92,0,0,1-12.62.16L84.69,141A9.35,9.35,0,0,1,82.28,134.38Zm5.36-.06a5.81,5.81,0,0,0,.81,3.08,3,3,0,0,0,5.26,0,5.81,5.81,0,0,0,.8-3.08,5.4,5.4,0,0,0-.83-3,3.05,3.05,0,0,0-5.23,0,5.48,5.48,0,0,0-.81,3h0Z" transform="translate(-58.72 -51.08)"/><path class="cls-1" d="M120.3,127.45a10.29,10.29,0,0,1,2.28-.29,6.47,6.47,0,0,1,5.17,2.35,8.07,8.07,0,0,1,1.89,5.43,8.64,8.64,0,0,1-8.36,8.92h-0.56a10.29,10.29,0,0,1-2.92-.42,8.71,8.71,0,0,1-3-1.51,3.48,3.48,0,0,1-1.59-2.78,2.42,2.42,0,0,1,.62-1.69,2.05,2.05,0,0,1,1.59-.69,5.49,5.49,0,0,1,2.36,1,5.64,5.64,0,0,0,2.85,1,3.09,3.09,0,0,0,2.39-1,3.57,3.57,0,0,0,1-2.49,3.64,3.64,0,0,0-.75-2.39,2.69,2.69,0,0,0-2.2-.91,6.74,6.74,0,0,0-2,.42,6.69,6.69,0,0,1-2,.42q-2.05,0-2.05-2.31a16.93,16.93,0,0,1,.16-1.83l0.77-6.11a3.32,3.32,0,0,1,1-2.31,4.28,4.28,0,0,1,2.47-.52H126q3.4,0,3.4,2.47t-3.19,2.45h-5.52Z" transform="translate(-58.72 -51.08)"/><path class="cls-1" d="M132.07,131.46A16.39,16.39,0,0,1,134,123a8.65,8.65,0,0,1,14.54,0,16.26,16.26,0,0,1,2,8.48,16.08,16.08,0,0,1-2,8.45,8.64,8.64,0,0,1-14.51,0A16.16,16.16,0,0,1,132.07,131.46Zm9.2-7.54q-2.26,0-3.25,2.8a16.82,16.82,0,0,0,0,9.43q1,2.8,3.27,2.8t3.28-2.8a14.3,14.3,0,0,0,.67-4.73Q145.23,123.92,141.27,123.92Z" transform="translate(-58.72 -51.08)"/><path class="cls-1" d="M162.81,131.46a16.4,16.4,0,0,1,1.92-8.45,8.65,8.65,0,0,1,14.55,0,16.24,16.24,0,0,1,2,8.48,16.06,16.06,0,0,1-2,8.45,8.64,8.64,0,0,1-14.51,0A16.18,16.18,0,0,1,162.81,131.46Zm9.17-7.54q-2.28,0-3.27,2.77a16.82,16.82,0,0,0,0,9.43q1,2.8,3.27,2.8t3.27-2.8a14.26,14.26,0,0,0,.67-4.73Q175.93,123.92,172,123.92Z" transform="translate(-58.72 -51.08)"/><path class="cls-1" d="M182.54,131.46a16.4,16.4,0,0,1,1.92-8.45A8.65,8.65,0,0,1,199,123a16.24,16.24,0,0,1,2,8.48,16.06,16.06,0,0,1-2,8.45,8.64,8.64,0,0,1-14.51,0A16.17,16.17,0,0,1,182.54,131.46Zm9.22-7.54q-2.28,0-3.27,2.77a16.82,16.82,0,0,0,0,9.43q1,2.8,3.27,2.8t3.27-2.8a14.26,14.26,0,0,0,.67-4.73Q195.71,123.92,191.76,123.92Z" transform="translate(-58.72 -51.08)"/><path class="cls-1" d="M202.33,131.46a16.39,16.39,0,0,1,1.92-8.45,8.65,8.65,0,0,1,14.55,0,16.26,16.26,0,0,1,2,8.48,16.08,16.08,0,0,1-2,8.45,8.64,8.64,0,0,1-14.51,0A16.17,16.17,0,0,1,202.33,131.46Zm9.21-7.54q-2.28,0-3.27,2.77a16.82,16.82,0,0,0,0,9.43q1,2.8,3.27,2.8t3.27-2.8a14.3,14.3,0,0,0,.67-4.73Q215.5,123.92,211.54,123.92Z" transform="translate(-58.72 -51.08)"/><path class="cls-1" d="M239.36,142.19h-0.13v4.53q0,3.73-2.47,3.73-2.64,0-2.64-3.79V129.15q0-3.76,2.64-3.76a2.79,2.79,0,0,1,2.47,1.64,5.43,5.43,0,0,1,4.27-1.76,7.12,7.12,0,0,1,5.85,2.83,9.91,9.91,0,0,1,2.05,6.3,10.24,10.24,0,0,1-1.25,5,8.12,8.12,0,0,1-3.63,3.57,6.8,6.8,0,0,1-3.08.73A6,6,0,0,1,239.36,142.19Zm-0.13-7.48a4.83,4.83,0,0,0,.8,2.89,3.08,3.08,0,0,0,2.65,1.29,3,3,0,0,0,2.65-1.42,5.46,5.46,0,0,0,.8-3,5.11,5.11,0,0,0-.84-3,3,3,0,0,0-2.62-1.42,3.45,3.45,0,0,0-2.44,1Q239.23,132,239.23,134.71Z" transform="translate(-58.72 -51.08)"/><path class="cls-1" d="M254.74,125.39a2.12,2.12,0,0,1,1.73.73,6.19,6.19,0,0,1,.9,1.76l3,7.84,3.18-8.29q0.8-2.05,2.28-2.05,2.57,0,2.57,2.47a4.73,4.73,0,0,1-.42,1.8L260,148.5q-0.9,2.09-2.28,2.09a2.6,2.6,0,0,1-1.86-.67,2.4,2.4,0,0,1-.7-1.82,4.52,4.52,0,0,1,.43-1.75l2.14-4.65-5.23-12.23a3.62,3.62,0,0,1-.29-1.45,2.51,2.51,0,0,1,.72-1.83A2.43,2.43,0,0,1,254.74,125.39Z" transform="translate(-58.72 -51.08)"/><path class="cls-1" d="M269.23,134.35v-2.57q0-10,4.72-11.37a24.11,24.11,0,0,1,5.62-.46,5,5,0,0,0,2.07-.24,0.71,0.71,0,0,0,.34-0.59,1,1,0,0,1,.73-0.8,3.07,3.07,0,0,1,1.19-.26q1.71,0,1.71,2.67a2.38,2.38,0,0,1-1,1.89,4.41,4.41,0,0,1-2,.86,9,9,0,0,1-1.78.16h-3.42a3,3,0,0,0-2.6,1.36,4.31,4.31,0,0,0-.61,2.41h0.1a6.49,6.49,0,0,1,4.11-1.25,7,7,0,0,1,5.75,2.44,9.51,9.51,0,0,1,1.79,6.1,9.35,9.35,0,0,1-2.18,6.52,8,8,0,0,1-6.27,2.41A7.53,7.53,0,0,1,271.3,141,10.12,10.12,0,0,1,269.23,134.35Zm5,0.29q0,4.46,3.31,4.46a3.15,3.15,0,0,0,2.36-1,5,5,0,0,0,1-3.49q0-4.2-3.31-4.2a2.85,2.85,0,0,0-2.54,1.32,5.1,5.1,0,0,0-.83,2.9h0Z" transform="translate(-58.72 -51.08)"/><path class="cls-1" d="M299.38,129.87H295.5a1.05,1.05,0,0,0-1.2,1.19v8.22a3.79,3.79,0,0,1-4.14,4.14,8.32,8.32,0,0,1-2.38-.23,2.11,2.11,0,0,1-.32-3.61,4.83,4.83,0,0,1,2.09-.32V131q0-3.18,1.41-4.44t4.53-1.22h6.42a2.21,2.21,0,0,1,2.15,1.09,5.38,5.38,0,0,1,.42,2.45v10.69q0,3.8-2.56,3.8a2.19,2.19,0,0,1-2.14-1.19,6.3,6.3,0,0,1-.42-2.6v-9.75Z" transform="translate(-58.72 -51.08)"/><path class="cls-1" d="M312.42,135.82a3.14,3.14,0,0,0,1.25,2.31,4.38,4.38,0,0,0,2.67.8,7.93,7.93,0,0,0,3.18-.85,8.76,8.76,0,0,1,2.31-.85,1.8,1.8,0,0,1,2.05,2,2.56,2.56,0,0,1-.58,1.57,6.32,6.32,0,0,1-3.27,2.15,12.21,12.21,0,0,1-4,.64,8.58,8.58,0,0,1-6.42-2.65,9,9,0,0,1-2.57-6.53,9.5,9.5,0,0,1,2.45-6.56,8.07,8.07,0,0,1,6.28-2.73,8.17,8.17,0,0,1,3.44.7,8.92,8.92,0,0,1,3.65,3.07,7.52,7.52,0,0,1,1.42,4.4,2.27,2.27,0,0,1-.93,2,3.41,3.41,0,0,1-2.12.61Zm-0.06-3.4h6.84a3.2,3.2,0,0,0-1-2.22,3.52,3.52,0,0,0-4.61,0,3.9,3.9,0,0,0-1.2,2.23h0Z" transform="translate(-58.72 -51.08)"/><path class="cls-1" d="M326.65,139.61V129.16a6,6,0,0,1,.42-2.58,2.27,2.27,0,0,1,2.22-1.19,2.18,2.18,0,0,1,2.15,1.16,6.41,6.41,0,0,1,.39,2.6v5.78L338,127a3.41,3.41,0,0,1,2.57-1.61,2.21,2.21,0,0,1,2.18,1.16,6.44,6.44,0,0,1,.39,2.61v10.46a6.49,6.49,0,0,1-.39,2.61,2.57,2.57,0,0,1-4.34,0,6.5,6.5,0,0,1-.39-2.61v-5.32l-6.25,7.54a3.56,3.56,0,0,1-2.55,1.58Q326.65,143.41,326.65,139.61Zm8.29-15.69a5.6,5.6,0,0,1-3.6-1.16,2.9,2.9,0,0,1-1.32-2.28,1.4,1.4,0,0,1,1.54-1.64,1.86,1.86,0,0,1,1.53,1,2.11,2.11,0,0,0,1.84,1,2.05,2.05,0,0,0,1.86-1,1.72,1.72,0,0,1,1.45-1,1.42,1.42,0,0,1,1.58,1.64,2.91,2.91,0,0,1-1.71,2.6A6.31,6.31,0,0,1,334.94,123.92Z" transform="translate(-58.72 -51.08)"/><path class="cls-2" d="M68.26,102.61q-6.26,0-6.26-7.09V71.87q0-7,6.26-7h9.8a23.21,23.21,0,0,1,10.88,2q4.73,2.56,4.73,9.26a7.74,7.74,0,0,1-4.57,7.15,9,9,0,0,1,5.61,8.17,9.51,9.51,0,0,1-5.07,9.32,25.23,25.23,0,0,1-11.16,1.9H68.26Zm4.63-30.74v8.34h4.38a8.34,8.34,0,0,0,3.86-.67,3.65,3.65,0,0,0,1.63-3.44q0-4.17-5.88-4.17Zm0,15.33v8.34h4.38q6.26,0,6.26-4.17a3.61,3.61,0,0,0-2-3.59,10.78,10.78,0,0,0-4.17-.6Z" transform="translate(-58.72 -51.08)"/><path class="cls-2" d="M111.38,79.71a94.33,94.33,0,0,1,11.68.4q7.36,1.15,9,6.09a15.2,15.2,0,0,1,.67,4.8q0,6.76-4.8,9.32a24.56,24.56,0,0,1-11,1.9H106.73q-6.26,0-6.26-7.09V71.87q0-7,5.46-7t5.4,7Zm0,7.09v8.34h4.42q6.26,0,6.26-4.17a3.59,3.59,0,0,0-2-3.59,10.86,10.86,0,0,0-4.27-.6ZM148.6,72.75V95.12a10.43,10.43,0,0,1-.94,5.07,5.75,5.75,0,0,1-8.86,0,10.43,10.43,0,0,1-.94-5.07V72.75q0-7.9,5.36-7.9T148.6,72.75Z" transform="translate(-58.72 -51.08)"/><path class="cls-2" d="M166.91,85L180,72.81a13.49,13.49,0,0,1,.85-5.53,5.55,5.55,0,0,1,9.2,0,13.55,13.55,0,0,1,.81,5.48v22a13.66,13.66,0,0,1-.81,5.48,5.4,5.4,0,0,1-9.13,0,13.72,13.72,0,0,1-.81-5.48V84L167,94.75a13.89,13.89,0,0,1-.81,5.48,4.59,4.59,0,0,1-4.55,2.5q-5.55,0-5.55-8v-22a12.7,12.7,0,0,1,.88-5.42,4.75,4.75,0,0,1,4.67-2.5,4.59,4.59,0,0,1,4.52,2.44,13.55,13.55,0,0,1,.81,5.46Z" transform="translate(-58.72 -51.08)"/><path class="cls-2" d="M196.89,94.77v-22q0-7.92,5.46-7.92h11.28q6.88,0,6.88,4.69t-6.88,4.69h-5.86V94.77q0,8-5.4,8T196.89,94.77Z" transform="translate(-58.72 -51.08)"/><path class="cls-2" d="M234.38,100.19h-0.27v9.47q0,7.84-5.19,7.84-5.55,0-5.55-8V72.75q0-7.9,5.55-7.9a5.86,5.86,0,0,1,5.19,3.44,11.43,11.43,0,0,1,9-3.71,15,15,0,0,1,12.3,5.94,20.85,20.85,0,0,1,4.32,13.24,21.54,21.54,0,0,1-2.63,10.53,17.08,17.08,0,0,1-7.63,7.51,14.3,14.3,0,0,1-6.48,1.54A12.66,12.66,0,0,1,234.38,100.19Zm-0.27-15.74a10.15,10.15,0,0,0,1.69,6.09,6.48,6.48,0,0,0,5.53,2.77,6.26,6.26,0,0,0,5.57-3,11.49,11.49,0,0,0,1.69-6.26,10.74,10.74,0,0,0-1.77-6.26,6.26,6.26,0,0,0-5.48-3.11,7.26,7.26,0,0,0-5.13,2.09Q234.11,78.71,234.11,84.45Z" transform="translate(-58.72 -51.08)"/><path class="cls-2" d="M288.83,98.9a11.26,11.26,0,0,1-9.2,4.17A14.85,14.85,0,0,1,267.47,97a20.71,20.71,0,0,1-4.4-13.18,20.52,20.52,0,0,1,4.61-13.43A15.16,15.16,0,0,1,280,64.28a10.93,10.93,0,0,1,8.78,4A5.76,5.76,0,0,1,294,64.85q5.4,0,5.4,7.92v22q0,8-5.4,8A5.44,5.44,0,0,1,288.83,98.9ZM274.38,83.63a10.63,10.63,0,0,0,1.69,6.09,6.26,6.26,0,0,0,5.38,2.84,6,6,0,0,0,5.32-2.84,11,11,0,0,0,1.61-6.09,10.66,10.66,0,0,0-1.61-6,6.07,6.07,0,0,0-5.32-2.77,6.26,6.26,0,0,0-5.32,2.77A10.24,10.24,0,0,0,274.38,83.63Z" transform="translate(-58.72 -51.08)"/><path class="cls-2" d="M306.86,94.77v-22a12.7,12.7,0,0,1,.88-5.42,4.75,4.75,0,0,1,4.67-2.5,4.59,4.59,0,0,1,4.52,2.44,13.55,13.55,0,0,1,.81,5.46V85l13.09-16.68a7.17,7.17,0,0,1,5.4-3.38,4.65,4.65,0,0,1,4.59,2.44,13.55,13.55,0,0,1,.81,5.48V94.77a13.66,13.66,0,0,1-.81,5.48,5.4,5.4,0,0,1-9.13,0,13.72,13.72,0,0,1-.81-5.48V83.57L317.75,99.44a7.49,7.49,0,0,1-5.36,3.32Q306.86,102.75,306.86,94.77ZM324.3,61.68a11.76,11.76,0,0,1-7.57-2.36,6.11,6.11,0,0,1-2.77-4.8q0-3.44,3.23-3.44a3.92,3.92,0,0,1,3.21,2.09,4.44,4.44,0,0,0,3.88,2.09,4.32,4.32,0,0,0,3.92-2.09,3.63,3.63,0,0,1,3-2.09q3.32,0,3.32,3.44A6.13,6.13,0,0,1,331,59.95,13.28,13.28,0,0,1,324.3,61.68Z" transform="translate(-58.72 -51.08)"/><path class="cls-2" d="M74.68,143H62.87q0,2.25-.06,2.6a1.61,1.61,0,0,1-1.67,1.54h0q-2.41,0-2.41-2.54v-3.3q0-1.64.77-2,0.67-.16,1.38-0.29,0.77-.36.77-2v-6.53a5,5,0,0,1,1.54-4.14,6.94,6.94,0,0,1,4.37-1.12H74a2.21,2.21,0,0,1,2.15,1.09,5.36,5.36,0,0,1,.42,2.44v10.37a2,2,0,0,1,2.25,2.22v3.24q0,2.54-2.41,2.54a1.61,1.61,0,0,1-1.64-1.58A18.2,18.2,0,0,1,74.68,143Zm-8.8-3.86h5.59V129.4H67.64a1.05,1.05,0,0,0-1.2,1.19v6.48A4.9,4.9,0,0,1,65.88,139.17Z" transform="translate(-58.72 -51.08)"/><path class="cls-2" d="M79.82,134.25a9.46,9.46,0,0,1,2.46-6.63,8.92,8.92,0,0,1,12.62-.08L95,127.62a10.33,10.33,0,0,1,0,13.22,8.92,8.92,0,0,1-12.62.16l-0.16-.16A9.35,9.35,0,0,1,79.82,134.25Zm5.36-.06a5.81,5.81,0,0,0,.8,3.08,3,3,0,0,0,5.26,0,5.81,5.81,0,0,0,.8-3.08,5.4,5.4,0,0,0-.83-3,3.05,3.05,0,0,0-5.23,0A5.48,5.48,0,0,0,85.18,134.19Z" transform="translate(-58.72 -51.08)"/><path class="cls-2" d="M117.84,127.32a10.29,10.29,0,0,1,2.28-.29,6.47,6.47,0,0,1,5.17,2.35,8.07,8.07,0,0,1,1.89,5.44,8.64,8.64,0,0,1-8.36,8.92h-0.56a10.29,10.29,0,0,1-2.92-.42,8.71,8.71,0,0,1-3-1.51,3.48,3.48,0,0,1-1.58-2.77,2.42,2.42,0,0,1,.62-1.69,2.05,2.05,0,0,1,1.59-.69,5.49,5.49,0,0,1,2.36,1,5.64,5.64,0,0,0,2.85,1,3.09,3.09,0,0,0,2.39-1,3.57,3.57,0,0,0,1-2.49,3.64,3.64,0,0,0-.75-2.39,2.69,2.69,0,0,0-2.2-.91,6.74,6.74,0,0,0-2,.42,6.69,6.69,0,0,1-2,.42q-2.05,0-2.05-2.31a16.93,16.93,0,0,1,.16-1.83l0.77-6.11a3.32,3.32,0,0,1,1-2.31,4.28,4.28,0,0,1,2.47-.52h6.52q3.4,0,3.4,2.47t-3.21,2.44H118.2Z" transform="translate(-58.72 -51.08)"/><path class="cls-2" d="M129.6,131.34a16.39,16.39,0,0,1,1.93-8.41,8.65,8.65,0,0,1,14.54,0,16.26,16.26,0,0,1,2,8.48,16.08,16.08,0,0,1-2,8.45,8.64,8.64,0,0,1-14.51,0A16.16,16.16,0,0,1,129.6,131.34Zm9.22-7.51q-2.28,0-3.27,2.77a16.82,16.82,0,0,0,0,9.43q1,2.8,3.27,2.8t3.28-2.8a14.3,14.3,0,0,0,.67-4.73Q142.76,123.82,138.82,123.82Z" transform="translate(-58.72 -51.08)"/><path class="cls-2" d="M160.3,131.34a16.4,16.4,0,0,1,1.93-8.41,8.65,8.65,0,0,1,14.55,0,16.24,16.24,0,0,1,2,8.48,16.06,16.06,0,0,1-2,8.45,8.64,8.64,0,0,1-14.51,0A16.18,16.18,0,0,1,160.3,131.34Zm9.22-7.51q-2.28,0-3.27,2.77a16.82,16.82,0,0,0,0,9.43q1,2.8,3.27,2.8t3.27-2.8a14.26,14.26,0,0,0,.67-4.73Q173.46,123.82,169.52,123.82Z" transform="translate(-58.72 -51.08)"/><path class="cls-2" d="M180.09,131.34a16.4,16.4,0,0,1,1.92-8.41,8.65,8.65,0,0,1,14.54,0,16.24,16.24,0,0,1,2,8.48,16.06,16.06,0,0,1-2,8.38,8.64,8.64,0,0,1-14.51,0A16.17,16.17,0,0,1,180.09,131.34Zm9.22-7.51q-2.28,0-3.27,2.77a16.82,16.82,0,0,0,0,9.43q1,2.8,3.27,2.8t3.24-2.8a14.26,14.26,0,0,0,.67-4.73q0-7.46-3.92-7.46h0Z" transform="translate(-58.72 -51.08)"/><path class="cls-2" d="M199.86,131.34a16.39,16.39,0,0,1,1.93-8.41,8.65,8.65,0,0,1,14.55,0,16.26,16.26,0,0,1,2,8.48,16.08,16.08,0,0,1-2,8.38,8.64,8.64,0,0,1-14.51,0A16.17,16.17,0,0,1,199.86,131.34Zm9.22-7.51q-2.28,0-3.27,2.77a16.82,16.82,0,0,0,0,9.43q1,2.8,3.27,2.8t3.29-2.8a14.3,14.3,0,0,0,.67-4.73Q213,123.82,209.08,123.82Z" transform="translate(-58.72 -51.08)"/><path class="cls-2" d="M236.9,142.06h-0.13v4.5q0,3.73-2.47,3.73-2.64,0-2.64-3.79V129q0-3.76,2.64-3.76a2.79,2.79,0,0,1,2.47,1.64,5.43,5.43,0,0,1,4.27-1.76,7.12,7.12,0,0,1,5.85,2.83,9.91,9.91,0,0,1,2.05,6.3,10.24,10.24,0,0,1-1.25,5,8.12,8.12,0,0,1-3.63,3.57,6.8,6.8,0,0,1-3.08.73A6,6,0,0,1,236.9,142.06Zm-0.13-7.48a4.83,4.83,0,0,0,.8,2.89,3.08,3.08,0,0,0,2.65,1.29,3,3,0,0,0,2.65-1.42,5.46,5.46,0,0,0,.8-3,5.11,5.11,0,0,0-.84-3,3,3,0,0,0-2.62-1.42,3.45,3.45,0,0,0-2.44,1Q236.77,131.85,236.77,134.58Z" transform="translate(-58.72 -51.08)"/><path class="cls-2" d="M252.28,125.26A2.12,2.12,0,0,1,254,126a6.19,6.19,0,0,1,.9,1.76l3,7.84,3.18-8.29q0.8-2.05,2.28-2.05,2.57,0,2.57,2.47a4.73,4.73,0,0,1-.42,1.8l-7.93,18.84q-0.9,2.09-2.28,2.09a2.6,2.6,0,0,1-1.86-.67,2.4,2.4,0,0,1-.7-1.82,4.52,4.52,0,0,1,.43-1.75l2.14-4.65L250,129.27a3.62,3.62,0,0,1-.29-1.45,2.51,2.51,0,0,1,.72-1.83A2.43,2.43,0,0,1,252.28,125.26Z" transform="translate(-58.72 -51.08)"/><path class="cls-2" d="M266.76,134.22v-2.57q0-10,4.72-11.37a24.11,24.11,0,0,1,5.62-.42,5,5,0,0,0,2.07-.24,0.71,0.71,0,0,0,.34-0.59,1,1,0,0,1,.73-0.8,3.07,3.07,0,0,1,1.19-.26q1.71,0,1.71,2.67a2.38,2.38,0,0,1-1,1.89,4.41,4.41,0,0,1-2,.86,9,9,0,0,1-1.78.16H275a3,3,0,0,0-2.64,1.36,4.31,4.31,0,0,0-.61,2.41h0.1a6.49,6.49,0,0,1,4.11-1.25,7,7,0,0,1,5.75,2.44,9.51,9.51,0,0,1,1.79,6.1,9.35,9.35,0,0,1-2.18,6.52,8,8,0,0,1-6.27,2.41,7.53,7.53,0,0,1-6.23-2.67A10.12,10.12,0,0,1,266.76,134.22Zm5,0.29q0,4.46,3.31,4.46a3.15,3.15,0,0,0,2.36-1,5,5,0,0,0,1-3.49q0-4.2-3.31-4.2a2.85,2.85,0,0,0-2.54,1.32,5.1,5.1,0,0,0-.82,2.9h0Z" transform="translate(-58.72 -51.08)"/><path class="cls-2" d="M296.92,129.73H293a1.05,1.05,0,0,0-1.2,1.19v8.22a3.79,3.79,0,0,1-4.14,4.14,8.32,8.32,0,0,1-2.38-.23,2.11,2.11,0,0,1-.32-3.61,4.83,4.83,0,0,1,2.09-.32v-8.2q0-3.18,1.41-4.44t4.53-1.22h6.42a2.21,2.21,0,0,1,2.14,1.09,5.38,5.38,0,0,1,.42,2.45v10.68q0,3.8-2.56,3.8a2.19,2.19,0,0,1-2.14-1.19,6.3,6.3,0,0,1-.42-2.6Z" transform="translate(-58.72 -51.08)"/><path class="cls-2" d="M310,135.7A3.14,3.14,0,0,0,311.2,138a4.38,4.38,0,0,0,2.67.8,7.93,7.93,0,0,0,3.18-.85,8.76,8.76,0,0,1,2.31-.85,1.8,1.8,0,0,1,2.05,2,2.56,2.56,0,0,1-.57,1.54,6.32,6.32,0,0,1-3.27,2.15,12.21,12.21,0,0,1-4,.64,8.58,8.58,0,0,1-6.4-2.65,9,9,0,0,1-2.57-6.53,9.5,9.5,0,0,1,2.46-6.58,8.07,8.07,0,0,1,6.28-2.73,8.17,8.17,0,0,1,3.44.7,8.92,8.92,0,0,1,3.63,3.09,7.52,7.52,0,0,1,1.42,4.4,2.27,2.27,0,0,1-.93,2,3.41,3.41,0,0,1-2.12.61Zm-0.06-3.4h6.84a3.2,3.2,0,0,0-1-2.22,3.52,3.52,0,0,0-4.61,0A3.9,3.9,0,0,0,309.89,132.3Z" transform="translate(-58.72 -51.08)"/><path class="cls-2" d="M324.19,139.49V129a6,6,0,0,1,.42-2.58,2.27,2.27,0,0,1,2.22-1.19,2.18,2.18,0,0,1,2.15,1.16,6.41,6.41,0,0,1,.39,2.6v5.81l6.23-7.93a3.41,3.41,0,0,1,2.57-1.61,2.21,2.21,0,0,1,2.18,1.16,6.44,6.44,0,0,1,.39,2.61v10.43a6.49,6.49,0,0,1-.39,2.61,2.57,2.57,0,0,1-4.34,0,6.5,6.5,0,0,1-.39-2.61v-5.32l-6.26,7.53a3.56,3.56,0,0,1-2.55,1.58Q324.19,143.28,324.19,139.49Zm8.29-15.73a5.6,5.6,0,0,1-3.6-1.12,2.9,2.9,0,0,1-1.32-2.28,1.4,1.4,0,0,1,1.54-1.64,1.86,1.86,0,0,1,1.53,1,2.11,2.11,0,0,0,1.84,1,2.05,2.05,0,0,0,1.86-1,1.72,1.72,0,0,1,1.45-1,1.42,1.42,0,0,1,1.58,1.64,2.91,2.91,0,0,1-1.71,2.58,6.31,6.31,0,0,1-3.18.82h0Z" transform="translate(-58.72 -51.08)"/></g></g></svg>