<svg xmlns="http://www.w3.org/2000/svg" viewBox="0 0 45.72 17.58"><defs><style>.cls-1{fill:#f6f6f6;}</style></defs><title>12+</title><g id="Слой_2" data-name="Слой 2"><g id="Слой_1-2" data-name="Слой 1"><path class="cls-1" d="M7.82,14h2a1.56,1.56,0,0,1,1.73,1.79,1.56,1.56,0,0,1-1.73,1.79H1.73A1.56,1.56,0,0,1,0,15.79,1.56,1.56,0,0,1,1.73,14H3.88V3.94a8.26,8.26,0,0,1-1.83-.12,1.23,1.23,0,0,1-.94-1.34,1.31,1.31,0,0,1,.52-1A7,7,0,0,1,6.2.28,3.55,3.55,0,0,1,7,.35q.59.17.73,1.27a15.52,15.52,0,0,1,0,1.64Z"/><path class="cls-1" d="M26.1,15.79q0,1.79-2.76,1.79H16.43q-2.34,0-2.34-1.8a2.75,2.75,0,0,1,.84-1.68L17.72,11q1.69-1.87,2.69-3.21a4.57,4.57,0,0,0,1.12-2.53,1.73,1.73,0,0,0-.39-1.16,1.35,1.35,0,0,0-1.09-.46,1.57,1.57,0,0,0-1.24.61,6.55,6.55,0,0,0-.7,1.35,6.21,6.21,0,0,1-.66,1.28,1.39,1.39,0,0,1-1.15.49,1.8,1.8,0,0,1-1.39-.57,2,2,0,0,1-.53-1.44,4.74,4.74,0,0,1,.3-1.54,5.41,5.41,0,0,1,2.12-2.76A5.81,5.81,0,0,1,20.18,0a5.67,5.67,0,0,1,3.88,1.34,4.76,4.76,0,0,1,1.59,3.75A8.45,8.45,0,0,1,23.53,10a52,52,0,0,1-3.77,4h3.58Q26.1,14,26.1,15.79Z"/><path class="cls-1" d="M35.54,1.49Q35.85,0,37.15,0t1.6,1.49c.06.28.08,13.18.08,13.18q0,2.48-1.68,2.48t-1.7-2.48S35.48,1.77,35.54,1.49Z"/><path class="cls-1" d="M44.24,7q1.49.32,1.48,1.63t-1.5,1.59c-.28.05-13.18,0-13.18,0q-2.48,0-2.47-1.7t2.49-1.68S44,7,44.24,7Z"/></g></g></svg>