<svg xmlns="http://www.w3.org/2000/svg" viewBox="0 0 171.23 13.29"><defs><style>.cls-1{fill:#63b2ce;}</style></defs><title>podrobnosti</title><g id="Слой_2" data-name="Слой 2"><g id="Слой_1-2" data-name="Слой 1"><path class="cls-1" d="M4.44,4.86H2.12v4q0,1.55-1.05,1.55T0,8.86V4.48a2.15,2.15,0,0,1,.18-1A.93.93,0,0,1,1.07,3H5.48a.91.91,0,0,1,.88.45,2.2,2.2,0,0,1,.17,1V8.86q0,1.56-1,1.56t-1-1.55Z"/><path class="cls-1" d="M7.61,6.71A3.88,3.88,0,0,1,8.62,4a3.37,3.37,0,0,1,2.6-1.1A3.35,3.35,0,0,1,13.83,4a3.92,3.92,0,0,1,1,2.73,3.88,3.88,0,0,1-1,2.7,3.39,3.39,0,0,1-2.62,1.11A3.4,3.4,0,0,1,8.6,9.4,3.83,3.83,0,0,1,7.61,6.71Zm2.2,0A2.38,2.38,0,0,0,10.14,8,1.24,1.24,0,0,0,12.3,8a2.38,2.38,0,0,0,.33-1.26,2.22,2.22,0,0,0-.34-1.24,1.25,1.25,0,0,0-2.15,0A2.25,2.25,0,0,0,9.81,6.69Z"/><path class="cls-1" d="M21.59,10.31H16.75q0,.92,0,1.07A.66.66,0,0,1,16,12q-1,0-1-1V9.61q0-.67.32-.82l.57-.12q.32-.15.32-.8V5.19a2.07,2.07,0,0,1,.63-1.7A2.86,2.86,0,0,1,18.67,3h2.65a.91.91,0,0,1,.88.45,2.21,2.21,0,0,1,.17,1V8.73a.81.81,0,0,1,.92.91V11q0,1-1,1-.55,0-.67-.65A7.44,7.44,0,0,1,21.59,10.31ZM18,8.73h2.29v-4H18.69a.43.43,0,0,0-.49.49V7.87A2,2,0,0,1,18,8.73Z"/><path class="cls-1" d="M26.23,9.91h-.05v1.84q0,1.53-1,1.53t-1.08-1.55V4.57Q24.08,3,25.16,3a1.14,1.14,0,0,1,1,.67A2.23,2.23,0,0,1,27.93,3a2.92,2.92,0,0,1,2.4,1.16,4.07,4.07,0,0,1,.84,2.58,4.2,4.2,0,0,1-.51,2.05,3.32,3.32,0,0,1-1.49,1.46,2.79,2.79,0,0,1-1.26.3A2.46,2.46,0,0,1,26.23,9.91Zm-.05-3.07A2,2,0,0,0,26.51,8a1.26,1.26,0,0,0,1.08.53A1.23,1.23,0,0,0,28.68,8,2.24,2.24,0,0,0,29,6.74a2.09,2.09,0,0,0-.34-1.21A1.22,1.22,0,0,0,27.59,5a1.42,1.42,0,0,0-1,.39A2.06,2.06,0,0,0,26.18,6.85Z"/><path class="cls-1" d="M31.84,6.71a3.87,3.87,0,0,1,1-2.72,3.64,3.64,0,0,1,5.21,0,3.91,3.91,0,0,1,1,2.73,3.88,3.88,0,0,1-1,2.7,3.64,3.64,0,0,1-5.24,0A3.83,3.83,0,0,1,31.84,6.71Zm2.2,0A2.38,2.38,0,0,0,34.37,8a1.24,1.24,0,0,0,2.16,0,2.38,2.38,0,0,0,.33-1.26,2.22,2.22,0,0,0-.34-1.24,1.25,1.25,0,0,0-2.15,0A2.24,2.24,0,0,0,34,6.69Z"/><path class="cls-1" d="M39.85,6.7V5.65q0-4.1,1.94-4.66a9.88,9.88,0,0,1,2.3-.17,2,2,0,0,0,.85-.1.29.29,0,0,0,.14-.24q0-.2.3-.33A1.25,1.25,0,0,1,45.87,0q.7,0,.7,1.09a1,1,0,0,1-.41.78,1.81,1.81,0,0,1-.82.36,3.71,3.71,0,0,1-.73.07h-1.4a1.22,1.22,0,0,0-1.07.54,1.77,1.77,0,0,0-.25,1h0a2.66,2.66,0,0,1,1.69-.51,2.87,2.87,0,0,1,2.36,1,3.9,3.9,0,0,1,.74,2.5,3.83,3.83,0,0,1-.9,2.67,3.29,3.29,0,0,1-2.57,1,3.09,3.09,0,0,1-2.55-1.09A4.15,4.15,0,0,1,39.85,6.7Zm2,.12q0,1.83,1.36,1.83a1.29,1.29,0,0,0,1-.4,2,2,0,0,0,.39-1.43q0-1.72-1.36-1.72a1.17,1.17,0,0,0-1,.54A2.09,2.09,0,0,0,41.88,6.82Z"/><path class="cls-1" d="M49.89,7.39V8.85q0,1.56-1,1.56T47.77,8.86V4.57Q47.77,3,48.85,3t1,1.54V5.89h2.34V4.57q0-1.54,1-1.54t1,1.54V8.86q0,1.56-1,1.56t-1-1.56V7.39Z"/><path class="cls-1" d="M55.35,6.71a3.87,3.87,0,0,1,1-2.72,3.64,3.64,0,0,1,5.21,0,3.91,3.91,0,0,1,1,2.73,3.88,3.88,0,0,1-1,2.7,3.64,3.64,0,0,1-5.24,0A3.83,3.83,0,0,1,55.35,6.71Zm2.2,0A2.38,2.38,0,0,0,57.88,8,1.24,1.24,0,0,0,60,8a2.38,2.38,0,0,0,.33-1.26A2.22,2.22,0,0,0,60,5.45a1.25,1.25,0,0,0-2.15,0A2.24,2.24,0,0,0,57.55,6.69Z"/><path class="cls-1" d="M63.24,6.71a3.82,3.82,0,0,1,1-2.73A3.49,3.49,0,0,1,66.9,2.92a4,4,0,0,1,1.51.26,1.19,1.19,0,0,1,.87,1.11.9.9,0,0,1-.25.64.84.84,0,0,1-.63.26A1.83,1.83,0,0,1,67.75,5a2.22,2.22,0,0,0-.85-.16,1.29,1.29,0,0,0-1.12.55,2.1,2.1,0,0,0-.36,1.25,2,2,0,0,0,.37,1.26A1.43,1.43,0,0,0,67,8.47a2.15,2.15,0,0,0,.83-.16,1.73,1.73,0,0,1,.63-.16.75.75,0,0,1,.6.27,1,1,0,0,1,.23.65q0,.64-.9,1.09a3.63,3.63,0,0,1-1.61.32,3.29,3.29,0,0,1-2.58-1.09A3.84,3.84,0,0,1,63.24,6.71Z"/><path class="cls-1" d="M71.69,4.86h-.91q-1.33,0-1.33-.91T70.78,3h3.92Q76,3,76,3.94t-1.35.91h-.91v4q0,1.55-1,1.55t-1-1.55Z"/><path class="cls-1" d="M78.78,6.94l2.55-2.37a2.64,2.64,0,0,1,.16-1.07,1.08,1.08,0,0,1,1.79,0,2.64,2.64,0,0,1,.16,1.07V8.86a2.67,2.67,0,0,1-.16,1.07,1.05,1.05,0,0,1-1.78,0,2.66,2.66,0,0,1-.16-1.07V6.77L78.78,8.86a2.7,2.7,0,0,1-.16,1.07.89.89,0,0,1-.88.49q-1.08,0-1.08-1.56V4.57a2.47,2.47,0,0,1,.17-1.06A.93.93,0,0,1,77.73,3a.9.9,0,0,1,.88.47,2.64,2.64,0,0,1,.16,1.07Z"/><path class="cls-1" d="M91.22,7.39V8.85q0,1.56-1,1.56T89.1,8.86V4.57Q89.1,3,90.18,3t1,1.54V5.89h2.34V4.57q0-1.54,1-1.54t1,1.54V8.86q0,1.56-1,1.56t-1-1.56V7.39Z"/><path class="cls-1" d="M101.68,9.66a2.19,2.19,0,0,1-1.79.8,2.89,2.89,0,0,1-2.37-1.18,4,4,0,0,1-.86-2.57,4,4,0,0,1,.9-2.59A3,3,0,0,1,100,2.94a2.13,2.13,0,0,1,1.71.76,1.12,1.12,0,0,1,1-.67q1.05,0,1.05,1.54V8.86q0,1.56-1.05,1.56A1.06,1.06,0,0,1,101.68,9.66Zm-2.82-3a2.08,2.08,0,0,0,.33,1.19,1.21,1.21,0,0,0,1,.55,1.17,1.17,0,0,0,1-.55,2.14,2.14,0,0,0,.31-1.19,2.07,2.07,0,0,0-.31-1.17,1.18,1.18,0,0,0-1-.54,1.2,1.2,0,0,0-1,.54A2,2,0,0,0,98.87,6.69Z"/><path class="cls-1" d="M109.68,8.86V4.57q0-1.54,1.08-1.54a1.14,1.14,0,0,1,1,.67,2,2,0,0,1,1.44-.7,1.09,1.09,0,0,1,.78.3,1,1,0,0,1,.32.76.9.9,0,0,1-.54.8l-1.06.41a1.28,1.28,0,0,0-.76.57,2.29,2.29,0,0,0-.1.82V8.86q0,1.55-1.07,1.55T109.68,8.86Z"/><path class="cls-1" d="M116.62,7.31a1.28,1.28,0,0,0,.51.95,1.79,1.79,0,0,0,1.09.33,3.26,3.26,0,0,0,1.3-.35,3.59,3.59,0,0,1,.95-.35.74.74,0,0,1,.84.83,1.05,1.05,0,0,1-.24.63,2.6,2.6,0,0,1-1.34.88,5,5,0,0,1-1.62.26,3.51,3.51,0,0,1-2.63-1.09,3.7,3.7,0,0,1-1.05-2.68,3.89,3.89,0,0,1,1-2.7A3.31,3.31,0,0,1,118,2.91a3.35,3.35,0,0,1,1.41.29,3.68,3.68,0,0,1,1.49,1.25,3.09,3.09,0,0,1,.58,1.8.93.93,0,0,1-.38.8,1.4,1.4,0,0,1-.87.25Zm0-1.4h2.8A1.31,1.31,0,0,0,119,5a1.44,1.44,0,0,0-1.89,0A1.59,1.59,0,0,0,116.59,5.91Z"/><path class="cls-1" d="M122.88,5.09q-1.28,0-1.28-.92t1.28-.95a12.41,12.41,0,0,1,.05-1.56q.2-.94,1-.94t1,.94A12.41,12.41,0,0,1,125,3.22q1.54,0,1.54.95T125,5.09V8.86q0,1.56-1.05,1.56t-1.07-1.56Z"/><path class="cls-1" d="M127,8.86V4.57Q127,3,128,3a1.14,1.14,0,0,1,1,.67,2,2,0,0,1,1.44-.7,1.09,1.09,0,0,1,.78.3,1,1,0,0,1,.32.76.9.9,0,0,1-.54.8L130,5.27a1.28,1.28,0,0,0-.76.57,2.28,2.28,0,0,0-.1.82V8.86q0,1.55-1.07,1.55T127,8.86Z"/><path class="cls-1" d="M131.7,6.71a3.87,3.87,0,0,1,1-2.72,3.64,3.64,0,0,1,5.21,0,3.91,3.91,0,0,1,1,2.73,3.88,3.88,0,0,1-1,2.7,3.64,3.64,0,0,1-5.24,0A3.83,3.83,0,0,1,131.7,6.71Zm2.2,0a2.12,2.12,0,0,0,.34,1.22,1.21,1.21,0,0,0,1.07.58,1.22,1.22,0,0,0,1.08-.58,2.14,2.14,0,0,0,.33-1.22,2.09,2.09,0,0,0-.34-1.21,1.21,1.21,0,0,0-1.07-.58,1.23,1.23,0,0,0-1.08.57A2.18,2.18,0,0,0,133.9,6.7Z"/><path class="cls-1" d="M142.58,3.22q1.66,0,1.66.95a.79.79,0,0,1-.61.82,4,4,0,0,1-1.11.11V8.86q0,1.56-1.05,1.56t-1.07-1.56V5.09q-1.28,0-1.28-.92t1.28-.95V2.48A2.71,2.71,0,0,1,140.93.7a2,2,0,0,1,1.69-.7Q144,0,144,1.07q0,.87-1,.87c-.21,0-.34.06-.39.17A4.09,4.09,0,0,0,142.58,3.22Z"/><path class="cls-1" d="M144.71,8.86V4.57q0-1.54,1-1.54a1.17,1.17,0,0,1,1.05.67A2.14,2.14,0,0,1,148.5,3a2.48,2.48,0,0,1,2.12,1,2.79,2.79,0,0,1,2.15-1q2.41,0,2.41,2.77V8.86q0,1.56-1.06,1.56t-1-1.55V6.45q0-1.59-1-1.59T151,6.43V8.86q0,1.55-1,1.55t-1-1.55V6.45q0-1.59-1-1.59t-1.1,1.57V8.86q0,1.55-1,1.55T144.71,8.86Z"/><path class="cls-1" d="M156.19,9.18a1.21,1.21,0,0,1,.36-.88,1.23,1.23,0,0,1,1.74,0,1.22,1.22,0,0,1,.35.89,1.22,1.22,0,1,1-2.45,0Z"/><path class="cls-1" d="M159.7,8.86V4.57Q159.7,3,160.78,3a1.14,1.14,0,0,1,1,.67,2,2,0,0,1,1.44-.7,1.09,1.09,0,0,1,.78.3,1,1,0,0,1,.32.76.9.9,0,0,1-.54.8l-1.06.41a1.28,1.28,0,0,0-.76.57,2.28,2.28,0,0,0-.1.82V8.86q0,1.55-1.07,1.55T159.7,8.86Z"/><path class="cls-1" d="M164.79,7.4V4.57q0-1.54,1.07-1.54t1.07,1.54V7A2.38,2.38,0,0,0,167.11,8a1.09,1.09,0,0,0,1.82,0A2.39,2.39,0,0,0,169.11,7V4.57q0-1.54,1.07-1.54t1.05,1.54V7.4a3.06,3.06,0,0,1-.84,2.32,4,4,0,0,1-4.76,0A3,3,0,0,1,164.79,7.4Z"/></g></g></svg>